SplineFontDB: 2.0
FontName: THK2DJuly8-BoldItalic
FullName: THK2DJuly8-BoldItalic
FamilyName: TH K2D July8
Weight: Bold
Copyright: Copyright (c) 2006 by Department of Intellectual Property (DIP), Ministry of Commerce and Software Industry Promotion Agency (Public Organization) (SIPA). All rights reserved.
Version: 1.1
ItalicAngle: -12
UnderlinePosition: -55
UnderlineWidth: 50
Ascent: 800
Descent: 200
Order2: 1
XUID: [1021 375 425136265 7420101]
FSType: 0
OS2Version: 3
OS2_WeightWidthSlopeOnly: 0
OS2_UseTypoMetrics: 1
CreationTime: 1158666360
ModificationTime: 1196170907
PfmFamily: 17
TTFWeight: 700
TTFWidth: 5
LineGap: 60
VLineGap: 0
Panose: 2 0 5 6 0 0 0 2 0 4
OS2TypoAscent: 0
OS2TypoAOffset: 1
OS2TypoDescent: 0
OS2TypoDOffset: 1
OS2TypoLinegap: 0
OS2WinAscent: -26
OS2WinAOffset: 1
OS2WinDescent: -176
OS2WinDOffset: 1
HheadAscent: -26
HheadAOffset: 1
HheadDescent: 176
HheadDOffset: 1
OS2SubXSize: 700
OS2SubYSize: 650
OS2SubXOff: 0
OS2SubYOff: 140
OS2SupXSize: 700
OS2SupYSize: 650
OS2SupXOff: 0
OS2SupYOff: 477
OS2StrikeYSize: 50
OS2StrikeYPos: 250
OS2FamilyClass: 773
OS2Vendor: 'K2D '
Lookup: 4 0 0 "'frac' Diagonal Fractions in Latin lookup 0"  {"'frac' Diagonal Fractions in Latin lookup 0 subtable"  } ['frac' ('latn' <'dflt' > ) ]
Lookup: 6 0 0 "'liga' Standard Ligatures in Latin lookup 1"  {"'liga' Standard Ligatures in Latin lookup 1 subtable"  } ['liga' ('latn' <'dflt' > ) ]
Lookup: 6 0 0 "'liga' Standard Ligatures in Latin lookup 2"  {"'liga' Standard Ligatures in Latin lookup 2 subtable"  } ['liga' ('latn' <'dflt' > ) ]
Lookup: 6 0 0 "'liga' Standard Ligatures in Latin lookup 3"  {"'liga' Standard Ligatures in Latin lookup 3 subtable"  } ['liga' ('latn' <'dflt' > ) ]
Lookup: 6 0 0 "'liga' Standard Ligatures in Latin lookup 4"  {"'liga' Standard Ligatures in Latin lookup 4 subtable"  } ['liga' ('latn' <'dflt' > ) ]

StartChar: .notdef
Encoding: 65536 -1 0
Width: 783
VWidth: 1507
Flags: W
HStem: 0 59<191 612> 989 59<389 809>
Fore
612 59 m 1,0,-1
 809 989 l 1,1,-1
 389 989 l 1,2,-1
 191 59 l 1,3,-1
 612 59 l 1,0,-1
687 0 m 1,4,-1
 92 0 l 1,5,-1
 314 1048 l 1,6,-1
 909 1048 l 1,7,-1
 687 0 l 1,4,-1
EndSplineSet
EndChar
StartChar: numbersign
Encoding: 35 35 4
Width: 652
VWidth: 1507
Flags: W
HStem: 220 54<107.234 225 327 398 502 622.547> 434 53<175.88 295 398 469 571 692.659>
Fore
549 677 m 2,0,1
 567 736 567 736 651 724 c 1,2,-1
 571 487 l 1,3,-1
 708 487 l 1,4,5
 696 434 696 434 632 434 c 2,6,-1
 555 434 l 1,7,-1
 502 274 l 1,8,-1
 639 274 l 1,9,10
 627 220 627 220 562 220 c 2,11,-1
 485 220 l 1,12,13
 470 173 470 173 454.5 127 c 128,-1,14
 439 81 439 81 425 38 c 0,15,16
 407 -20 407 -20 321 -8 c 1,17,-1
 398 220 l 1,18,-1
 311 220 l 1,19,20
 297 173 297 173 281 127 c 128,-1,21
 265 81 265 81 252 38 c 0,22,23
 234 -20 234 -20 148 -8 c 1,24,-1
 225 220 l 1,25,-1
 92 220 l 1,26,27
 102 274 102 274 167 274 c 2,28,-1
 241 274 l 1,29,-1
 295 434 l 1,30,-1
 161 434 l 1,31,32
 172 487 172 487 237 487 c 2,33,-1
 312 487 l 1,34,-1
 375 677 l 2,35,36
 393 734 393 734 478 724 c 1,37,-1
 398 487 l 1,38,-1
 485 487 l 1,39,-1
 549 677 l 2,0,1
327 274 m 1,40,-1
 415 274 l 1,41,-1
 469 434 l 1,42,-1
 381 434 l 1,43,-1
 327 274 l 1,40,-1
EndSplineSet
EndChar
StartChar: dollar
Encoding: 36 36 5
Width: 712
VWidth: 1507
Flags: W
HStem: -6 62<245.646 317.033> 660 62<550 606.372>
Fore
199 228 m 2,0,1
 185 164 185 164 220 116 c 128,-1,2
 255 68 255 68 321 56 c 1,3,-1
 383 345 l 1,4,5
 332 356 332 356 295 369.5 c 128,-1,6
 258 383 258 383 234 402 c 128,-1,7
 210 421 210 421 200.5 446.5 c 128,-1,8
 191 472 191 472 196 509 c 256,9,10
 200 547 200 547 221.5 583.5 c 128,-1,11
 243 620 243 620 278.5 648.5 c 128,-1,12
 314 677 314 677 360.5 696.5 c 128,-1,13
 407 716 407 716 463 722 c 1,14,-1
 469 746 l 2,15,16
 481 800 481 800 567 800 c 1,17,-1
 550 722 l 1,18,19
 642 710 642 710 686.5 658 c 128,-1,20
 731 606 731 606 728 531 c 0,21,22
 727 511 727 511 716 497.5 c 128,-1,23
 705 484 705 484 688.5 475 c 128,-1,24
 672 466 672 466 653.5 462 c 128,-1,25
 635 458 635 458 618 458 c 1,26,27
 621 466 621 466 622.5 474 c 128,-1,28
 624 482 624 482 627 490 c 1,29,30
 639 553 639 553 617 600.5 c 128,-1,31
 595 648 595 648 538 660 c 1,32,-1
 481 393 l 1,33,34
 532 383 532 383 575 371.5 c 128,-1,35
 618 360 618 360 647.5 342 c 128,-1,36
 677 324 677 324 691 297 c 128,-1,37
 705 270 705 270 701 229 c 0,38,39
 693 185 693 185 665.5 145.5 c 128,-1,40
 638 106 638 106 596.5 74 c 128,-1,41
 555 42 555 42 503 21 c 128,-1,42
 451 0 451 0 396 -6 c 1,43,-1
 390 -30 l 2,44,45
 378 -84 378 -84 292 -84 c 1,46,-1
 309 -6 l 1,47,48
 216 6 216 6 157.5 58 c 128,-1,49
 99 110 99 110 99 185 c 0,50,51
 99 205 99 205 109 219.5 c 128,-1,52
 119 234 119 234 135 243 c 128,-1,53
 151 252 151 252 169.5 256.5 c 128,-1,54
 188 261 188 261 206 261 c 1,55,56
 205 258 205 258 204 252.5 c 128,-1,57
 203 247 203 247 202 243 c 2,58,-1
 199 228 l 2,0,1
603 225 m 0,59,60
 609 270 609 270 571.5 291 c 128,-1,61
 534 312 534 312 467 329 c 1,62,-1
 408 56 l 1,63,64
 445 62 445 62 478 78.5 c 128,-1,65
 511 95 511 95 537.5 117.5 c 128,-1,66
 564 140 564 140 581 168 c 128,-1,67
 598 196 598 196 603 225 c 0,59,60
292 515 m 0,68,69
 286 472 286 472 312.5 448.5 c 128,-1,70
 339 425 339 425 396 410 c 1,71,-1
 451 660 l 1,72,73
 418 654 418 654 390 640 c 128,-1,74
 362 626 362 626 341 606 c 128,-1,75
 320 586 320 586 307 563 c 128,-1,76
 294 540 294 540 292 515 c 0,68,69
EndSplineSet
EndChar
StartChar: percent
Encoding: 37 37 6
Width: 884
VWidth: 1507
Flags: W
HStem: -5 50<606.546 705.894> 306 50<250.644 350.211> 360 50<665.274 780.55> 671 49<309.532 425.993>
Fore
487 427 m 2,0,1
 481 401 481 401 463.5 379 c 128,-1,2
 446 357 446 357 419.5 341.5 c 128,-1,3
 393 326 393 326 361.5 316 c 128,-1,4
 330 306 330 306 295 306 c 256,5,6
 261 306 261 306 232 316 c 128,-1,7
 203 326 203 326 183.5 341.5 c 128,-1,8
 164 357 164 357 156 379 c 128,-1,9
 148 401 148 401 154 427 c 2,10,-1
 190 601 l 2,11,12
 202 651 202 651 257 685.5 c 128,-1,13
 312 720 312 720 383 720 c 0,14,15
 452 720 452 720 493 685.5 c 128,-1,16
 534 651 534 651 523 601 c 2,17,-1
 487 427 l 2,0,1
238 427 m 2,18,19
 231 396 231 396 251 376 c 128,-1,20
 271 356 271 356 306 356 c 0,21,22
 339 356 339 356 367 376 c 128,-1,23
 395 396 395 396 402 427 c 2,24,-1
 439 601 l 2,25,26
 446 632 446 632 425.5 651.5 c 128,-1,27
 405 671 405 671 372 671 c 0,28,29
 338 671 338 671 310 651.5 c 128,-1,30
 282 632 282 632 274 601 c 2,31,-1
 238 427 l 2,18,19
843 115 m 2,32,33
 838 90 838 90 820 68.5 c 128,-1,34
 802 47 802 47 776.5 31 c 128,-1,35
 751 15 751 15 718.5 5 c 128,-1,36
 686 -5 686 -5 651 -5 c 256,37,38
 616 -5 616 -5 587.5 5 c 128,-1,39
 559 15 559 15 540.5 31 c 128,-1,40
 522 47 522 47 513.5 68.5 c 128,-1,41
 505 90 505 90 509 115 c 2,42,-1
 546 289 l 2,43,44
 558 341 558 341 613 375.5 c 128,-1,45
 668 410 668 410 739 410 c 0,46,47
 808 410 808 410 848.5 375.5 c 128,-1,48
 889 341 889 341 879 289 c 2,49,-1
 843 115 l 2,32,33
594 115 m 2,50,51
 586 86 586 86 606.5 65.5 c 128,-1,52
 627 45 627 45 662 45 c 0,53,54
 695 45 695 45 722 65.5 c 128,-1,55
 749 86 749 86 757 115 c 2,56,-1
 793 289 l 2,57,58
 800 320 800 320 780.5 340 c 128,-1,59
 761 360 761 360 728 360 c 0,60,61
 693 360 693 360 665.5 340 c 128,-1,62
 638 320 638 320 630 289 c 2,63,-1
 594 115 l 2,50,51
730 724 m 2,64,65
 751 751 751 751 778 757.5 c 128,-1,66
 805 764 805 764 838 745 c 1,67,-1
 304 -2 l 2,68,69
 261 -63 261 -63 197 -23 c 1,70,-1
 730 724 l 2,64,65
EndSplineSet
EndChar
StartChar: ampersand
Encoding: 38 38 7
Width: 678
VWidth: 1507
Flags: W
HStem: -9 60<209.723 386.431> 666 59<383.687 500.009>
VStem: 618 75<230.177 326.06>
Fore
515 68 m 1,0,1
 457 32 457 32 389 11.5 c 128,-1,2
 321 -9 321 -9 264 -9 c 0,3,4
 216 -9 216 -9 176 6 c 128,-1,5
 136 21 136 21 110 47.5 c 128,-1,6
 84 74 84 74 73.5 111 c 128,-1,7
 63 148 63 148 72 191 c 0,8,9
 89 265 89 265 144 318.5 c 128,-1,10
 199 372 199 372 268 405 c 1,11,12
 247 445 247 445 237.5 482 c 128,-1,13
 228 519 228 519 235 553 c 0,14,15
 241 586 241 586 260.5 618 c 128,-1,16
 280 650 280 650 310.5 673 c 128,-1,17
 341 696 341 696 380 710.5 c 128,-1,18
 419 725 419 725 467 725 c 0,19,20
 541 725 541 725 579.5 686.5 c 128,-1,21
 618 648 618 648 604 582 c 0,22,23
 592 525 592 525 533.5 474.5 c 128,-1,24
 475 424 475 424 381 384 c 1,25,26
 425 320 425 320 465.5 261.5 c 128,-1,27
 506 203 506 203 534 170 c 1,28,29
 564 199 564 199 585 233.5 c 128,-1,30
 606 268 606 268 618 330 c 1,31,32
 665 330 665 330 682 314 c 128,-1,33
 699 298 699 298 693 273 c 0,34,35
 686 237 686 237 653 197.5 c 128,-1,36
 620 158 620 158 579 121 c 1,37,-1
 586 112 l 2,38,39
 604 89 604 89 624.5 62.5 c 128,-1,40
 645 36 645 36 666 14 c 1,41,42
 641 -9 641 -9 612 -12 c 128,-1,43
 583 -15 583 -15 562 9 c 2,44,-1
 515 68 l 1,0,1
509 576 m 0,45,46
 517 610 517 610 504 638 c 128,-1,47
 491 666 491 666 448 666 c 256,48,49
 404 666 404 666 372.5 634.5 c 128,-1,50
 341 603 341 603 332 559 c 256,51,52
 323 515 323 515 334 488 c 128,-1,53
 345 461 345 461 357 436 c 1,54,55
 415 463 415 463 456 494.5 c 128,-1,56
 497 526 497 526 509 576 c 0,45,46
288 51 m 0,57,58
 339 51 339 51 387.5 70 c 128,-1,59
 436 89 436 89 475 118 c 1,60,61
 461 134 461 134 441 161 c 128,-1,62
 421 188 421 188 397.5 220 c 128,-1,63
 374 252 374 252 349 286.5 c 128,-1,64
 324 321 324 321 301 354 c 1,65,66
 283 344 283 344 263 330.5 c 128,-1,67
 243 317 243 317 224 297 c 128,-1,68
 205 277 205 277 190.5 253 c 128,-1,69
 176 229 176 229 170 199 c 0,70,71
 154 128 154 128 190 89.5 c 128,-1,72
 226 51 226 51 288 51 c 0,57,58
EndSplineSet
EndChar
StartChar: quotesingle
Encoding: 39 39 8
Width: 250
VWidth: 1507
Flags: W
HStem: 503 222<187 333 394.325 425.01>
VStem: 187 102<539.775 609.89> 210 123<651 712.325 712.325 743.01>
Fore
210 651 m 2,0,1
 216 689 216 689 249 707 c 128,-1,2
 282 725 282 725 333 725 c 1,3,-1
 289 564 l 2,4,5
 282 543 282 543 254 523 c 128,-1,6
 226 503 226 503 187 503 c 1,7,-1
 210 651 l 2,0,1
EndSplineSet
EndChar
StartChar: parenleft
Encoding: 40 40 9
Width: 318
VWidth: 1507
Flags: W
VStem: 117 341<176.5 725 176.5 176.5>
Fore
133 307 m 256,0,1
 148 378 148 378 173.5 439 c 128,-1,2
 199 500 199 500 230.5 551.5 c 128,-1,3
 262 603 262 603 298.5 646.5 c 128,-1,4
 335 690 335 690 371 727 c 0,5,6
 393 751 393 751 419.5 749.5 c 128,-1,7
 446 748 446 748 458 725 c 1,8,9
 375 645 375 645 316.5 545 c 128,-1,10
 258 445 258 445 229 307 c 0,11,12
 199 172 199 172 215.5 71 c 128,-1,13
 232 -30 232 -30 280 -109 c 1,14,15
 259 -131 259 -131 232.5 -132.5 c 128,-1,16
 206 -134 206 -134 193 -110 c 0,17,18
 172 -74 172 -74 154.5 -30 c 128,-1,19
 137 14 137 14 126.5 65 c 128,-1,20
 116 116 116 116 117 176.5 c 128,-1,21
 118 237 118 237 133 307 c 256,0,1
EndSplineSet
EndChar
StartChar: asterisk
Encoding: 42 42 11
Width: 464
VWidth: 1507
Flags: W
HStem: 375 382<332 363 332 332> 531 66<155 158 140 558 155 155>
Fore
392 540 m 1,0,1
 399 525 399 525 407.5 511 c 128,-1,2
 416 497 416 497 424 482 c 1,3,-1
 422 482 l 1,4,5
 431 467 431 467 440 451.5 c 128,-1,6
 449 436 449 436 458 421 c 1,7,-1
 363 375 l 1,8,-1
 329 496 l 1,9,10
 324 488 324 488 318 479 c 128,-1,11
 312 470 312 470 307 463 c 2,12,-1
 240 375 l 1,13,-1
 178 422 l 1,14,-1
 294 543 l 1,15,-1
 237 538 l 2,16,17
 217 535 217 535 187.5 533.5 c 128,-1,18
 158 532 158 532 140 531 c 1,19,-1
 155 597 l 1,20,-1
 306 585 l 1,21,22
 300 597 300 597 292.5 608.5 c 128,-1,23
 285 620 285 620 280 632 c 1,24,-1
 238 707 l 1,25,-1
 332 757 l 1,26,-1
 366 641 l 1,27,-1
 390 674 l 2,28,29
 402 690 402 690 419.5 715 c 128,-1,30
 437 740 437 740 448 757 c 1,31,-1
 519 708 l 1,32,-1
 399 585 l 1,33,-1
 460 589 l 2,34,35
 479 591 479 591 508 593 c 128,-1,36
 537 595 537 595 558 598 c 1,37,-1
 543 531 l 1,38,-1
 392 540 l 1,0,1
EndSplineSet
EndChar
StartChar: plus
Encoding: 43 43 12
Width: 633
VWidth: 1507
Flags: W
HStem: 271 56<117.875 326 431 639.516>
Fore
326 271 m 1,0,-1
 101 271 l 1,1,2
 113 327 113 327 181 327 c 2,3,-1
 338 327 l 1,4,-1
 372 496 l 2,5,6
 386 556 386 556 479 556 c 1,7,-1
 431 327 l 1,8,-1
 657 327 l 1,9,10
 644 271 644 271 576 271 c 2,11,-1
 419 271 l 1,12,-1
 383 101 l 2,13,14
 369 42 369 42 276 42 c 1,15,-1
 326 271 l 1,0,-1
EndSplineSet
EndChar
StartChar: comma
Encoding: 44 44 13
Width: 223
VWidth: 1507
Flags: W
HStem: -150 259<45 136 45 136 136 136>
VStem: 50 147<10.2001 95.4051>
Fore
50 50 m 0,0,1
 54 75 54 75 79 92 c 128,-1,2
 104 109 104 109 136 109 c 256,3,4
 167 109 167 109 184.5 92 c 128,-1,5
 202 75 202 75 197 50 c 0,6,7
 188 6 188 6 174 -25.5 c 128,-1,8
 160 -57 160 -57 142.5 -79 c 128,-1,9
 125 -101 125 -101 107 -116 c 128,-1,10
 89 -131 89 -131 72 -143 c 0,11,12
 60 -151 60 -151 45 -150 c 128,-1,13
 30 -149 30 -149 23 -140 c 1,14,15
 90 -89 90 -89 110 -9 c 1,16,17
 78 -9 78 -9 61 7.5 c 128,-1,18
 44 24 44 24 50 50 c 0,0,1
EndSplineSet
EndChar
StartChar: hyphen
Encoding: 45 45 14
Width: 384
VWidth: 1507
Flags: W
HStem: 270 59<116.749 382.918 99 410 181 181>
Fore
99 270 m 1,0,1
 110 329 110 329 181 329 c 2,2,-1
 410 329 l 1,3,4
 402 298 402 298 383.5 284 c 128,-1,5
 365 270 365 270 329 270 c 2,6,-1
 99 270 l 1,0,1
EndSplineSet
EndChar
StartChar: period
Encoding: 46 46 15
Width: 227
VWidth: 1507
Flags: W
HStem: -9 118<79.783 165.733>
VStem: 50 147<28.3442 95.4051>
Fore
50 50 m 0,0,1
 54 75 54 75 79 92 c 128,-1,2
 104 109 104 109 136 109 c 256,3,4
 167 109 167 109 184.5 92 c 128,-1,5
 202 75 202 75 197 50 c 0,6,7
 191 24 191 24 166.5 7.5 c 128,-1,8
 142 -9 142 -9 110 -9 c 256,9,10
 78 -9 78 -9 61 7.5 c 128,-1,11
 44 24 44 24 50 50 c 0,0,1
EndSplineSet
EndChar
StartChar: slash
Encoding: 47 47 16
Width: 450
VWidth: 1507
Flags: W
Fore
512 720 m 2,0,1
 534 748 534 748 561 754.5 c 128,-1,2
 588 761 588 761 621 742 c 1,3,-1
 87 -5 l 2,4,5
 44 -66 44 -66 -20 -26 c 1,6,-1
 512 720 l 2,0,1
EndSplineSet
EndChar
StartChar: zero
Encoding: 48 48 17
Width: 723
VWidth: 1507
Flags: W
HStem: -9 60<278.214 439.166> 665 60<432.092 593.898>
Fore
680 196 m 2,0,1
 671 154 671 154 640.5 116 c 128,-1,2
 610 78 610 78 566.5 50.5 c 128,-1,3
 523 23 523 23 469 7 c 128,-1,4
 415 -9 415 -9 357 -9 c 256,5,6
 300 -9 300 -9 252.5 7 c 128,-1,7
 205 23 205 23 173.5 50.5 c 128,-1,8
 142 78 142 78 128.5 116 c 128,-1,9
 115 154 115 154 124 196 c 2,10,-1
 193 520 l 2,11,12
 202 562 202 562 231.5 600 c 128,-1,13
 261 638 261 638 304.5 665.5 c 128,-1,14
 348 693 348 693 402.5 709 c 128,-1,15
 457 725 457 725 514 725 c 256,16,17
 571 725 571 725 618.5 709 c 128,-1,18
 666 693 666 693 698 665.5 c 128,-1,19
 730 638 730 638 744 600 c 128,-1,20
 758 562 758 562 749 520 c 2,21,-1
 680 196 l 2,0,1
219 196 m 2,22,23
 206 134 206 134 250.5 92.5 c 128,-1,24
 295 51 295 51 371 51 c 0,25,26
 408 51 408 51 443.5 62.5 c 128,-1,27
 479 74 479 74 508.5 93.5 c 128,-1,28
 538 113 538 113 557.5 139.5 c 128,-1,29
 577 166 577 166 583 196 c 2,30,-1
 653 520 l 2,31,32
 665 582 665 582 621 623.5 c 128,-1,33
 577 665 577 665 500 665 c 0,34,35
 463 665 463 665 427.5 653.5 c 128,-1,36
 392 642 392 642 363.5 622.5 c 128,-1,37
 335 603 335 603 314.5 576.5 c 128,-1,38
 294 550 294 550 288 520 c 2,39,-1
 219 196 l 2,22,23
EndSplineSet
EndChar
StartChar: one
Encoding: 49 49 18
Width: 723
VWidth: 1507
Flags: W
HStem: -9 21G<343.264 387.5> 657 59<377.766 481>
VStem: 339 244<-9 684 -9 -9>
Fore
543 716 m 1,0,1
 564 716 564 716 575 706 c 128,-1,2
 586 696 586 696 583 684 c 2,3,-1
 449 54 l 2,4,5
 436 -9 436 -9 339 -9 c 1,6,-1
 481 657 l 1,7,-1
 433 657 l 2,8,9
 363 657 363 657 374 716 c 1,10,-1
 543 716 l 1,0,1
EndSplineSet
EndChar
StartChar: two
Encoding: 50 50 19
Width: 723
VWidth: 1507
Flags: W
HStem: 0 60<194 626.433> 665 60<465.437 578.686>
Fore
574 60 m 2,0,1
 609 60 609 60 627 45 c 128,-1,2
 645 30 645 30 639 0 c 1,3,-1
 130 0 l 2,4,5
 113 0 113 0 100 7.5 c 128,-1,6
 87 15 87 15 90 27 c 0,7,8
 109 113 109 113 188 190 c 128,-1,9
 267 267 267 267 399 323 c 2,10,-1
 437 338 l 2,11,12
 467 350 467 350 502 365 c 128,-1,13
 537 380 537 380 567.5 400.5 c 128,-1,14
 598 421 598 421 621 446.5 c 128,-1,15
 644 472 644 472 651 506 c 0,16,17
 657 538 657 538 649.5 567.5 c 128,-1,18
 642 597 642 597 621.5 618 c 128,-1,19
 601 639 601 639 570.5 652 c 128,-1,20
 540 665 540 665 502 665 c 256,21,22
 464 665 464 665 428 652 c 128,-1,23
 392 639 392 639 362.5 618 c 128,-1,24
 333 597 333 597 312 567.5 c 128,-1,25
 291 538 291 538 285 506 c 0,26,27
 282 497 282 497 281 490.5 c 128,-1,28
 280 484 280 484 280 473 c 1,29,30
 244 473 244 473 220.5 493.5 c 128,-1,31
 197 514 197 514 200 537 c 1,32,33
 219 580 219 580 252.5 615 c 128,-1,34
 286 650 286 650 329 674.5 c 128,-1,35
 372 699 372 699 421 712 c 128,-1,36
 470 725 470 725 515 725 c 0,37,38
 562 725 562 725 608 710.5 c 128,-1,39
 654 696 654 696 689 668.5 c 128,-1,40
 724 641 724 641 740.5 600 c 128,-1,41
 757 559 757 559 746 506 c 0,42,43
 737 463 737 463 704.5 428 c 128,-1,44
 672 393 672 393 627.5 364.5 c 128,-1,45
 583 336 583 336 530.5 312.5 c 128,-1,46
 478 289 478 289 427 268 c 0,47,48
 338 229 338 229 277.5 175.5 c 128,-1,49
 217 122 217 122 194 60 c 1,50,-1
 574 60 l 2,0,1
EndSplineSet
EndChar
StartChar: three
Encoding: 51 51 20
Width: 723
VWidth: 1507
Flags: W
HStem: -9 60<306.931 438.6> 359 62<424.556 473.619> 665 60<444.258 577.106>
Fore
246 573 m 0,0,1
 256 600 256 600 281 628 c 128,-1,2
 306 656 306 656 340.5 677 c 128,-1,3
 375 698 375 698 419.5 711.5 c 128,-1,4
 464 725 464 725 514 725 c 256,5,6
 564 725 564 725 604 710.5 c 128,-1,7
 644 696 644 696 671 671.5 c 128,-1,8
 698 647 698 647 709 613.5 c 128,-1,9
 720 580 720 580 713 543 c 0,10,11
 704 497 704 497 666.5 458 c 128,-1,12
 629 419 629 419 576 392 c 1,13,14
 638 365 638 365 665.5 314.5 c 128,-1,15
 693 264 693 264 681 205 c 0,16,17
 672 161 672 161 642 122 c 128,-1,18
 612 83 612 83 567.5 53.5 c 128,-1,19
 523 24 523 24 469 7.5 c 128,-1,20
 415 -9 415 -9 357 -9 c 256,21,22
 300 -9 300 -9 255 7.5 c 128,-1,23
 210 24 210 24 179 50.5 c 128,-1,24
 148 77 148 77 133.5 109.5 c 128,-1,25
 119 142 119 142 124 175 c 0,26,27
 128 205 128 205 152 222.5 c 128,-1,28
 176 240 176 240 231 238 c 1,29,30
 228 231 228 231 225.5 223.5 c 128,-1,31
 223 216 223 216 220 205 c 0,32,33
 213 173 213 173 222 144.5 c 128,-1,34
 231 116 231 116 251 95.5 c 128,-1,35
 271 75 271 75 302 63 c 128,-1,36
 333 51 333 51 371 51 c 256,37,38
 408 51 408 51 443.5 63 c 128,-1,39
 479 75 479 75 508.5 95.5 c 128,-1,40
 538 116 538 116 557.5 144.5 c 128,-1,41
 577 173 577 173 585 205 c 0,42,43
 591 237 591 237 583.5 264.5 c 128,-1,44
 576 292 576 292 555.5 313.5 c 128,-1,45
 535 335 535 335 504 347 c 128,-1,46
 473 359 473 359 436 359 c 0,47,48
 415 359 415 359 403.5 368 c 128,-1,49
 392 377 392 377 395 390 c 256,50,51
 398 404 398 404 413 412.5 c 128,-1,52
 428 421 428 421 449 421 c 0,53,54
 478 421 478 421 506 430.5 c 128,-1,55
 534 440 534 440 556.5 456.5 c 128,-1,56
 579 473 579 473 594.5 495 c 128,-1,57
 610 517 610 517 616 543 c 0,58,59
 629 594 629 594 594 629.5 c 128,-1,60
 559 665 559 665 500 665 c 0,61,62
 472 665 472 665 444 655 c 128,-1,63
 416 645 416 645 393.5 628.5 c 128,-1,64
 371 612 371 612 355 590 c 128,-1,65
 339 568 339 568 333 543 c 0,66,67
 332 538 332 538 330.5 528.5 c 128,-1,68
 329 519 329 519 330 511 c 1,69,70
 289 508 289 508 260.5 524 c 128,-1,71
 232 540 232 540 246 573 c 0,0,1
EndSplineSet
EndChar
StartChar: four
Encoding: 52 52 21
Width: 723
VWidth: 1507
Flags: W
HStem: -9 21G<464.278 507.5> 178 60<220 500 607 707.548>
Fore
728 238 m 1,0,1
 714 178 714 178 645 178 c 2,2,-1
 595 178 l 1,3,-1
 568 54 l 2,4,5
 555 -9 555 -9 460 -9 c 1,6,-1
 500 178 l 1,7,-1
 134 178 l 2,8,9
 112 178 112 178 102 194.5 c 128,-1,10
 92 211 92 211 110 228 c 2,11,-1
 626 714 l 2,12,13
 654 739 654 739 681 731.5 c 128,-1,14
 708 724 708 724 704 693 c 2,15,-1
 607 238 l 1,16,-1
 728 238 l 1,0,1
512 238 m 1,17,-1
 585 580 l 1,18,-1
 220 238 l 1,19,-1
 512 238 l 1,17,-1
EndSplineSet
EndChar
StartChar: five
Encoding: 53 53 22
Width: 723
VWidth: 1507
Flags: W
HStem: -9 60<298.829 449.973> 458 59<374.25 529.15> 657 59<448 723.793>
Fore
365 499 m 1,0,1
 411 517 411 517 469 517 c 256,2,3
 526 517 526 517 573 496.5 c 128,-1,4
 620 476 620 476 650 440 c 128,-1,5
 680 404 680 404 692 356.5 c 128,-1,6
 704 309 704 309 692 255 c 256,7,8
 680 200 680 200 648 152 c 128,-1,9
 616 104 616 104 571 68 c 128,-1,10
 526 32 526 32 470.5 11.5 c 128,-1,11
 415 -9 415 -9 357 -9 c 256,12,13
 300 -9 300 -9 255.5 10 c 128,-1,14
 211 29 211 29 181.5 61 c 128,-1,15
 152 93 152 93 140 135.5 c 128,-1,16
 128 178 128 178 134 225 c 0,17,18
 139 255 139 255 163 271.5 c 128,-1,19
 187 288 187 288 241 286 c 1,20,21
 238 280 238 280 236 272.5 c 128,-1,22
 234 265 234 265 231 255 c 0,23,24
 222 213 222 213 228.5 176 c 128,-1,25
 235 139 235 139 254 111 c 128,-1,26
 273 83 273 83 303 67 c 128,-1,27
 333 51 333 51 371 51 c 256,28,29
 408 51 408 51 444.5 67 c 128,-1,30
 481 83 481 83 512 111 c 128,-1,31
 543 139 543 139 564.5 176 c 128,-1,32
 586 213 586 213 595 255 c 256,33,34
 604 297 604 297 598 334 c 128,-1,35
 592 371 592 371 573.5 399 c 128,-1,36
 555 427 555 427 524.5 442.5 c 128,-1,37
 494 458 494 458 457 458 c 0,38,39
 415 458 415 458 376.5 439.5 c 128,-1,40
 338 421 338 421 307 390 c 0,41,42
 291 377 291 377 272 372.5 c 128,-1,43
 253 368 253 368 239.5 371.5 c 128,-1,44
 226 375 226 375 221 386.5 c 128,-1,45
 216 398 216 398 225 416 c 2,46,-1
 377 692 l 1,47,-1
 375 690 l 1,48,49
 380 702 380 702 395 709 c 128,-1,50
 410 716 410 716 427 716 c 2,51,-1
 742 716 l 1,52,53
 731 657 731 657 657 657 c 2,54,-1
 448 657 l 1,55,-1
 365 499 l 1,0,1
EndSplineSet
EndChar
StartChar: six
Encoding: 54 54 23
Width: 723
VWidth: 1507
Flags: W
HStem: -9 60<298.565 449.973> 458 59<446.302 529.15>
Fore
446 515 m 1,0,1
 454 517 454 517 469 517 c 0,2,3
 526 517 526 517 573 496.5 c 128,-1,4
 620 476 620 476 650 440 c 128,-1,5
 680 404 680 404 692 356.5 c 128,-1,6
 704 309 704 309 692 255 c 256,7,8
 680 200 680 200 648 152 c 128,-1,9
 616 104 616 104 571 68 c 128,-1,10
 526 32 526 32 470.5 11.5 c 128,-1,11
 415 -9 415 -9 357 -9 c 256,12,13
 300 -9 300 -9 254 11.5 c 128,-1,14
 208 32 208 32 178 68 c 128,-1,15
 148 104 148 104 136 152 c 128,-1,16
 124 200 124 200 136 255 c 0,17,18
 148 306 148 306 182 355 c 128,-1,19
 216 404 216 404 259 443 c 2,20,-1
 559 704 l 2,21,22
 618 755 618 755 663 705 c 1,23,-1
 446 515 l 1,0,1
595 255 m 256,24,25
 604 297 604 297 598 334 c 128,-1,26
 592 371 592 371 573.5 399 c 128,-1,27
 555 427 555 427 524.5 442.5 c 128,-1,28
 494 458 494 458 457 458 c 256,29,30
 419 458 419 458 383 442.5 c 128,-1,31
 347 427 347 427 316 399 c 128,-1,32
 285 371 285 371 262.5 334 c 128,-1,33
 240 297 240 297 231 255 c 256,34,35
 222 213 222 213 228.5 176 c 128,-1,36
 235 139 235 139 254 111 c 128,-1,37
 273 83 273 83 303 67 c 128,-1,38
 333 51 333 51 371 51 c 256,39,40
 408 51 408 51 444.5 67 c 128,-1,41
 481 83 481 83 512 111 c 128,-1,42
 543 139 543 139 564.5 176 c 128,-1,43
 586 213 586 213 595 255 c 256,24,25
EndSplineSet
EndChar
StartChar: seven
Encoding: 55 55 24
Width: 723
VWidth: 1507
Flags: W
HStem: 657 59<248.242 677>
Fore
677 657 m 1,0,-1
 303 657 l 2,1,2
 234 657 234 657 244 716 c 1,3,-1
 751 716 l 2,4,5
 772 716 772 716 784.5 701 c 128,-1,6
 797 686 797 686 785 668 c 2,7,-1
 315 23 l 2,8,9
 273 -33 273 -33 205 5 c 1,10,-1
 677 657 l 1,0,-1
EndSplineSet
EndChar
StartChar: eight
Encoding: 56 56 25
Width: 723
VWidth: 1507
Flags: W
HStem: -9 60<307.194 438.6> 359 62<371.766 473.619> 665 60<442.877 577.106>
Fore
237 543 m 0,0,1
 244 580 244 580 270.5 613.5 c 128,-1,2
 297 647 297 647 334.5 671.5 c 128,-1,3
 372 696 372 696 418 710.5 c 128,-1,4
 464 725 464 725 514 725 c 256,5,6
 564 725 564 725 604 710.5 c 128,-1,7
 644 696 644 696 671 671.5 c 128,-1,8
 698 647 698 647 709 613.5 c 128,-1,9
 720 580 720 580 713 543 c 0,10,11
 704 497 704 497 666.5 458 c 128,-1,12
 629 419 629 419 576 392 c 1,13,14
 638 365 638 365 665.5 314.5 c 128,-1,15
 693 264 693 264 681 205 c 0,16,17
 672 161 672 161 642 122 c 128,-1,18
 612 83 612 83 567.5 53.5 c 128,-1,19
 523 24 523 24 469 7.5 c 128,-1,20
 415 -9 415 -9 357 -9 c 256,21,22
 300 -9 300 -9 253 7.5 c 128,-1,23
 206 24 206 24 174.5 53.5 c 128,-1,24
 143 83 143 83 129.5 122 c 128,-1,25
 116 161 116 161 125 205 c 0,26,27
 137 262 137 262 187.5 312.5 c 128,-1,28
 238 363 238 363 309 392 c 1,29,30
 267 419 267 419 247.5 459 c 128,-1,31
 228 499 228 499 237 543 c 0,0,1
220 205 m 0,32,33
 213 173 213 173 222 144.5 c 128,-1,34
 231 116 231 116 251 95.5 c 128,-1,35
 271 75 271 75 302 63 c 128,-1,36
 333 51 333 51 371 51 c 256,37,38
 408 51 408 51 443.5 63 c 128,-1,39
 479 75 479 75 508.5 95.5 c 128,-1,40
 538 116 538 116 557.5 144.5 c 128,-1,41
 577 173 577 173 585 205 c 0,42,43
 591 237 591 237 583.5 264.5 c 128,-1,44
 576 292 576 292 555.5 313.5 c 128,-1,45
 535 335 535 335 504 347 c 128,-1,46
 473 359 473 359 436 359 c 256,47,48
 398 359 398 359 362.5 347 c 128,-1,49
 327 335 327 335 297.5 313.5 c 128,-1,50
 268 292 268 292 247 264.5 c 128,-1,51
 226 237 226 237 220 205 c 0,32,33
333 543 m 0,52,53
 321 491 321 491 355.5 456 c 128,-1,54
 390 421 390 421 449 421 c 0,55,56
 478 421 478 421 506 430.5 c 128,-1,57
 534 440 534 440 556.5 456.5 c 128,-1,58
 579 473 579 473 594.5 495 c 128,-1,59
 610 517 610 517 616 543 c 0,60,61
 629 594 629 594 594 629.5 c 128,-1,62
 559 665 559 665 500 665 c 0,63,64
 470 665 470 665 443 655 c 128,-1,65
 416 645 416 645 393.5 628.5 c 128,-1,66
 371 612 371 612 355 590 c 128,-1,67
 339 568 339 568 333 543 c 0,52,53
EndSplineSet
EndChar
StartChar: nine
Encoding: 57 57 26
Width: 723
VWidth: 1507
Flags: W
HStem: 199 60<348.424 423.094> 665 60<420.848 572.611>
Fore
312 12 m 2,0,1
 285 -14 285 -14 258 -14.5 c 128,-1,2
 231 -15 231 -15 208 11 c 1,3,-1
 424 199 l 1,4,-1
 402 199 l 2,5,6
 345 199 345 199 298.5 219.5 c 128,-1,7
 252 240 252 240 221.5 276 c 128,-1,8
 191 312 191 312 180 360 c 128,-1,9
 169 408 169 408 181 463 c 0,10,11
 191 517 191 517 223.5 564.5 c 128,-1,12
 256 612 256 612 301.5 648 c 128,-1,13
 347 684 347 684 402 704.5 c 128,-1,14
 457 725 457 725 514 725 c 256,15,16
 571 725 571 725 618 704.5 c 128,-1,17
 665 684 665 684 695 648 c 128,-1,18
 725 612 725 612 736.5 564.5 c 128,-1,19
 748 517 748 517 737 463 c 0,20,21
 725 410 725 410 690.5 362 c 128,-1,22
 656 314 656 314 612 274 c 2,23,-1
 312 12 l 2,0,1
276 463 m 256,24,25
 267 421 267 421 273.5 384 c 128,-1,26
 280 347 280 347 299 319 c 128,-1,27
 318 291 318 291 347.5 275 c 128,-1,28
 377 259 377 259 415 259 c 256,29,30
 452 259 452 259 489 275 c 128,-1,31
 526 291 526 291 556 319 c 128,-1,32
 586 347 586 347 609 384 c 128,-1,33
 632 421 632 421 641 463 c 256,34,35
 650 505 650 505 643 542 c 128,-1,36
 636 579 636 579 617 606 c 128,-1,37
 598 633 598 633 568 649 c 128,-1,38
 538 665 538 665 500 665 c 256,39,40
 463 665 463 665 426.5 649 c 128,-1,41
 390 633 390 633 359.5 606 c 128,-1,42
 329 579 329 579 307 542 c 128,-1,43
 285 505 285 505 276 463 c 256,24,25
EndSplineSet
EndChar
StartChar: less
Encoding: 60 60 29
Width: 633
VWidth: 1507
Flags: W
HStem: -3 21G<542.071 582.5>
Fore
702 601 m 1,0,1
 708 574 708 574 699 551.5 c 128,-1,2
 690 529 690 529 665 517 c 2,3,-1
 222 298 l 1,4,5
 307 244 307 244 396 190 c 128,-1,6
 485 136 485 136 573 81 c 0,7,8
 592 69 592 69 591.5 46.5 c 128,-1,9
 591 24 591 24 574 -3 c 1,10,-1
 127 277 l 2,11,12
 107 286 107 286 110 298 c 1,13,14
 110 307 110 307 136 321 c 2,15,-1
 702 601 l 1,0,1
EndSplineSet
EndChar
StartChar: equal
Encoding: 61 61 30
Width: 633
VWidth: 1507
Flags: W
HStem: 181 57<98.9199 619.775> 360 58<137.872 656.927>
Fore
119 360 m 1,0,1
 133 418 133 418 199 418 c 2,2,-1
 675 418 l 1,3,4
 663 360 663 360 594 360 c 2,5,-1
 119 360 l 1,0,1
81 181 m 1,6,7
 93 238 93 238 161 238 c 2,8,-1
 638 238 l 1,9,10
 626 181 626 181 556 181 c 2,11,-1
 81 181 l 1,6,7
EndSplineSet
EndChar
StartChar: question
Encoding: 63 63 32
Width: 533
VWidth: 1507
Flags: W
HStem: -9 118<227.782 312.702> 668 57<327.672 471.775>
VStem: 197 148<31.9543 96.3928>
Fore
348 203 m 2,0,1
 335 143 335 143 244 143 c 1,2,-1
 264 235 l 2,3,4
 276 286 276 286 312 320 c 128,-1,5
 348 354 348 354 392 384 c 0,6,7
 430 410 430 410 462 441 c 128,-1,8
 494 472 494 472 505 525 c 0,9,10
 519 588 519 588 489.5 628 c 128,-1,11
 460 668 460 668 401 668 c 0,12,13
 347 668 347 668 298.5 629.5 c 128,-1,14
 250 591 250 591 235 525 c 0,15,16
 234 514 234 514 233 508 c 128,-1,17
 232 502 232 502 231 493 c 1,18,19
 196 493 196 493 172 512 c 128,-1,20
 148 531 148 531 152 553 c 1,21,22
 167 589 167 589 193.5 621 c 128,-1,23
 220 653 220 653 255.5 675.5 c 128,-1,24
 291 698 291 698 331 711.5 c 128,-1,25
 371 725 371 725 413 725 c 0,26,27
 458 725 458 725 496.5 711.5 c 128,-1,28
 535 698 535 698 560.5 671.5 c 128,-1,29
 586 645 586 645 596.5 608 c 128,-1,30
 607 571 607 571 597 525 c 0,31,32
 589 491 589 491 574 465 c 128,-1,33
 559 439 559 439 539 417.5 c 128,-1,34
 519 396 519 396 495.5 378 c 128,-1,35
 472 360 472 360 449 344 c 0,36,37
 416 321 416 321 389.5 297.5 c 128,-1,38
 363 274 363 274 356 235 c 2,39,-1
 348 203 l 2,0,1
197 50 m 0,40,41
 202 75 202 75 227 92 c 128,-1,42
 252 109 252 109 282 109 c 0,43,44
 314 109 314 109 332 92 c 128,-1,45
 350 75 350 75 345 50 c 0,46,47
 339 24 339 24 313.5 7.5 c 128,-1,48
 288 -9 288 -9 256 -9 c 0,49,50
 226 -9 226 -9 208.5 7.5 c 128,-1,51
 191 24 191 24 197 50 c 0,40,41
EndSplineSet
EndChar
StartChar: at
Encoding: 64 64 33
Width: 877
VWidth: 1507
Flags: W
HStem: -9 51<358.978 539.295> 136 54<373.783 465.448 567.328 666.878> 522 55<507.987 607.556> 675 50<484.556 695.723>
Fore
415 190 m 256,0,1
 446 190 446 190 478.5 215 c 128,-1,2
 511 240 511 240 539 277 c 128,-1,3
 567 314 567 314 586.5 356 c 128,-1,4
 606 398 606 398 613 431 c 0,5,6
 621 466 621 466 610.5 494 c 128,-1,7
 600 522 600 522 574 522 c 0,8,9
 540 522 540 522 506 499 c 128,-1,10
 472 476 472 476 444 441.5 c 128,-1,11
 416 407 416 407 395.5 365.5 c 128,-1,12
 375 324 375 324 368 288 c 0,13,14
 359 244 359 244 371 217 c 128,-1,15
 383 190 383 190 415 190 c 256,0,1
701 558 m 1,16,-1
 787 558 l 1,17,-1
 630 265 l 1,18,-1
 623 252 l 2,19,20
 610 232 610 232 604 211 c 0,21,22
 600 187 600 187 610 187 c 0,23,24
 635 187 635 187 665 208 c 128,-1,25
 695 229 695 229 722 262 c 128,-1,26
 749 295 749 295 771 337.5 c 128,-1,27
 793 380 793 380 802 424 c 0,28,29
 814 481 814 481 803.5 527.5 c 128,-1,30
 793 574 793 574 764.5 606.5 c 128,-1,31
 736 639 736 639 692 657 c 128,-1,32
 648 675 648 675 597 675 c 0,33,34
 534 675 534 675 475 649.5 c 128,-1,35
 416 624 416 624 367 580.5 c 128,-1,36
 318 537 318 537 282.5 478 c 128,-1,37
 247 419 247 419 234 354 c 0,38,39
 220 291 220 291 230.5 233.5 c 128,-1,40
 241 176 241 176 272 134 c 128,-1,41
 303 92 303 92 352 67 c 128,-1,42
 401 42 401 42 463 42 c 0,43,44
 532 42 532 42 606 77.5 c 128,-1,45
 680 113 680 113 736 176 c 0,46,47
 761 203 761 203 781.5 201 c 128,-1,48
 802 199 802 199 817 173 c 1,49,50
 784 133 784 133 742.5 99 c 128,-1,51
 701 65 701 65 653.5 41 c 128,-1,52
 606 17 606 17 554.5 4 c 128,-1,53
 503 -9 503 -9 452 -9 c 0,54,55
 371 -9 371 -9 307.5 20.5 c 128,-1,56
 244 50 244 50 204 100.5 c 128,-1,57
 164 151 164 151 149 218.5 c 128,-1,58
 134 286 134 286 151 362 c 0,59,60
 166 436 166 436 211 502 c 128,-1,61
 256 568 256 568 318 618 c 128,-1,62
 380 668 380 668 454.5 696.5 c 128,-1,63
 529 725 529 725 606 725 c 0,64,65
 678 725 678 725 737 702.5 c 128,-1,66
 796 680 796 680 834.5 639 c 128,-1,67
 873 598 873 598 888 542.5 c 128,-1,68
 903 487 903 487 889 422 c 0,69,70
 876 362 876 362 842.5 310 c 128,-1,71
 809 258 809 258 766.5 219.5 c 128,-1,72
 724 181 724 181 677 158.5 c 128,-1,73
 630 136 630 136 589 136 c 0,74,75
 531 136 531 136 519 181 c 1,76,77
 491 163 491 163 457.5 149.5 c 128,-1,78
 424 136 424 136 390 136 c 0,79,80
 354 136 354 136 328.5 148 c 128,-1,81
 303 160 303 160 287 180 c 128,-1,82
 271 200 271 200 266.5 226.5 c 128,-1,83
 262 253 262 253 268 282 c 0,84,85
 280 336 280 336 310.5 389.5 c 128,-1,86
 341 443 341 443 384 484.5 c 128,-1,87
 427 526 427 526 479.5 551.5 c 128,-1,88
 532 577 532 577 591 577 c 0,89,90
 621 577 621 577 646 567.5 c 128,-1,91
 671 558 671 558 684 529 c 1,92,-1
 701 558 l 1,16,-1
EndSplineSet
EndChar
StartChar: A
Encoding: 65 65 34
Width: 663
VWidth: 1507
Flags: W
HStem: -17 21G<76 111.5 555.466 578> 232 60<280 506> 707 20G<466 491.5>
Fore
642 74 m 2,0,1
 645 50 645 50 621 23.5 c 128,-1,2
 597 -3 597 -3 559 -17 c 1,3,-1
 515 232 l 1,4,-1
 243 232 l 1,5,6
 206 172 206 172 168 107 c 128,-1,7
 130 42 130 42 93 -17 c 1,8,9
 59 -3 59 -3 47 23.5 c 128,-1,10
 35 50 35 50 50 74 c 2,11,-1
 436 707 l 2,12,13
 448 727 448 727 484 727 c 0,14,15
 499 727 499 727 510.5 721.5 c 128,-1,16
 522 716 522 716 525 707 c 2,17,-1
 642 74 l 2,0,1
454 586 m 1,18,-1
 280 292 l 1,19,-1
 506 292 l 1,20,-1
 454 586 l 1,18,-1
EndSplineSet
EndChar
StartChar: B
Encoding: 66 66 35
Width: 731
VWidth: 1507
Flags: W
HStem: 0 60<196 563.272> 330 60<267 532.656> 659 58<323 588.042>
Fore
736 525 m 0,0,1
 728 485 728 485 698 443 c 128,-1,2
 668 401 668 401 621 378 c 1,3,4
 684 359 684 359 712 309 c 128,-1,5
 740 259 740 259 727 196 c 0,6,7
 717 157 717 157 697 121.5 c 128,-1,8
 677 86 677 86 646 59 c 128,-1,9
 615 32 615 32 575 16 c 128,-1,10
 535 0 535 0 488 0 c 2,11,-1
 136 0 l 2,12,13
 115 0 115 0 102.5 10 c 128,-1,14
 90 20 90 20 93 33 c 2,15,-1
 232 684 l 2,16,17
 235 699 235 699 251 708 c 128,-1,18
 267 717 267 717 288 717 c 2,19,-1
 580 717 l 2,20,21
 623 717 623 717 655 701.5 c 128,-1,22
 687 686 687 686 708.5 659 c 128,-1,23
 730 632 730 632 737.5 597 c 128,-1,24
 745 562 745 562 736 525 c 0,0,1
267 390 m 1,25,-1
 511 390 l 2,26,27
 532 390 532 390 553 402.5 c 128,-1,28
 574 415 574 415 592 433.5 c 128,-1,29
 610 452 610 452 623 476 c 128,-1,30
 636 500 636 500 641 525 c 256,31,32
 645 549 645 549 643 572 c 128,-1,33
 641 595 641 595 631 615 c 128,-1,34
 621 635 621 635 604.5 647 c 128,-1,35
 588 659 588 659 567 659 c 2,36,-1
 323 659 l 1,37,-1
 267 390 l 1,25,-1
500 60 m 2,38,39
 544 60 544 60 581 96.5 c 128,-1,40
 618 133 618 133 632 196 c 256,41,42
 645 259 645 259 623 294.5 c 128,-1,43
 601 330 601 330 558 330 c 2,44,-1
 253 330 l 1,45,-1
 196 60 l 1,46,-1
 500 60 l 2,38,39
EndSplineSet
EndChar
StartChar: C
Encoding: 67 67 36
Width: 729
VWidth: 1507
Flags: W
HStem: -9 60<298.407 440.742> 666 61<423 596.804>
Fore
217 228 m 2,0,1
 210 191 210 191 219 159 c 128,-1,2
 228 127 228 127 249.5 103.5 c 128,-1,3
 271 80 271 80 305 65.5 c 128,-1,4
 339 51 339 51 381 51 c 256,5,6
 424 51 424 51 464.5 65.5 c 128,-1,7
 505 80 505 80 537.5 103.5 c 128,-1,8
 570 127 570 127 593 159 c 128,-1,9
 616 191 616 191 624 228 c 0,10,11
 626 235 626 235 627.5 244 c 128,-1,12
 629 253 629 253 629 261 c 1,13,14
 645 261 645 261 661.5 256.5 c 128,-1,15
 678 252 678 252 690 243 c 128,-1,16
 702 234 702 234 706.5 219.5 c 128,-1,17
 711 205 711 205 705 185 c 0,18,19
 686 142 686 142 649.5 105.5 c 128,-1,20
 613 69 613 69 566.5 43.5 c 128,-1,21
 520 18 520 18 469 4.5 c 128,-1,22
 418 -9 418 -9 368 -9 c 0,23,24
 315 -9 315 -9 266 7 c 128,-1,25
 217 23 217 23 181 53.5 c 128,-1,26
 145 84 145 84 127 128 c 128,-1,27
 109 172 109 172 121 228 c 2,28,-1
 176 491 l 2,29,30
 187 546 187 546 223 589.5 c 128,-1,31
 259 633 259 633 308 663 c 128,-1,32
 357 693 357 693 413.5 710 c 128,-1,33
 470 727 470 727 525 727 c 0,34,35
 573 727 573 727 618 714.5 c 128,-1,36
 663 702 663 702 698.5 679 c 128,-1,37
 734 656 734 656 756 619.5 c 128,-1,38
 778 583 778 583 779 535 c 0,39,40
 779 514 779 514 768.5 499.5 c 128,-1,41
 758 485 758 485 742.5 476 c 128,-1,42
 727 467 727 467 707 462.5 c 128,-1,43
 687 458 687 458 671 458 c 1,44,45
 674 466 674 466 675.5 475 c 128,-1,46
 677 484 677 484 680 491 c 1,47,48
 687 528 687 528 677.5 559.5 c 128,-1,49
 668 591 668 591 645.5 615 c 128,-1,50
 623 639 623 639 588 652.5 c 128,-1,51
 553 666 553 666 511 666 c 256,52,53
 469 666 469 666 429.5 652.5 c 128,-1,54
 390 639 390 639 358 615 c 128,-1,55
 326 591 326 591 303 559.5 c 128,-1,56
 280 528 280 528 273 491 c 2,57,-1
 217 228 l 2,0,1
EndSplineSet
EndChar
StartChar: D
Encoding: 68 68 37
Width: 759
VWidth: 1507
Flags: W
HStem: 0 60<196 478.75> 659 58<323 599.936>
Fore
538 717 m 2,0,1
 591 717 591 717 640.5 701.5 c 128,-1,2
 690 686 690 686 726.5 656.5 c 128,-1,3
 763 627 763 627 781 582.5 c 128,-1,4
 799 538 799 538 787 482 c 2,5,-1
 734 237 l 2,6,7
 722 182 722 182 686.5 138.5 c 128,-1,8
 651 95 651 95 603 64 c 128,-1,9
 555 33 555 33 497.5 16.5 c 128,-1,10
 440 0 440 0 386 0 c 2,11,-1
 136 0 l 2,12,13
 115 0 115 0 102.5 10 c 128,-1,14
 90 20 90 20 93 33 c 2,15,-1
 232 684 l 2,16,17
 235 699 235 699 251 708 c 128,-1,18
 267 717 267 717 288 717 c 2,19,-1
 538 717 l 2,0,1
323 659 m 1,20,-1
 196 60 l 1,21,-1
 398 60 l 2,22,23
 440 60 440 60 480 74.5 c 128,-1,24
 520 89 520 89 553 112.5 c 128,-1,25
 586 136 586 136 609.5 168 c 128,-1,26
 633 200 633 200 641 237 c 2,27,-1
 693 482 l 2,28,29
 701 519 701 519 691 551 c 128,-1,30
 681 583 681 583 658 606.5 c 128,-1,31
 635 630 635 630 601 644.5 c 128,-1,32
 567 659 567 659 525 659 c 2,33,-1
 323 659 l 1,20,-1
EndSplineSet
EndChar
StartChar: E
Encoding: 69 69 38
Width: 729
VWidth: 1507
Flags: W
HStem: -9 60<298.407 440.742> 330 60<252 528.053> 666 61<423 596.804>
Fore
252 390 m 1,0,-1
 549 390 l 1,1,2
 535 330 535 330 463 330 c 2,3,-1
 238 330 l 1,4,-1
 217 228 l 2,5,6
 210 191 210 191 219 159 c 128,-1,7
 228 127 228 127 249.5 103.5 c 128,-1,8
 271 80 271 80 305 65.5 c 128,-1,9
 339 51 339 51 381 51 c 256,10,11
 424 51 424 51 464.5 65.5 c 128,-1,12
 505 80 505 80 537.5 103.5 c 128,-1,13
 570 127 570 127 593 159 c 128,-1,14
 616 191 616 191 624 228 c 0,15,16
 626 235 626 235 627.5 244 c 128,-1,17
 629 253 629 253 629 261 c 1,18,19
 645 261 645 261 661.5 256.5 c 128,-1,20
 678 252 678 252 690 243 c 128,-1,21
 702 234 702 234 706.5 219.5 c 128,-1,22
 711 205 711 205 705 185 c 0,23,24
 686 142 686 142 649.5 105.5 c 128,-1,25
 613 69 613 69 566.5 43.5 c 128,-1,26
 520 18 520 18 469 4.5 c 128,-1,27
 418 -9 418 -9 368 -9 c 0,28,29
 315 -9 315 -9 266 7 c 128,-1,30
 217 23 217 23 181 53.5 c 128,-1,31
 145 84 145 84 127 128 c 128,-1,32
 109 172 109 172 121 228 c 2,33,-1
 176 491 l 2,34,35
 187 546 187 546 223 589.5 c 128,-1,36
 259 633 259 633 308 663 c 128,-1,37
 357 693 357 693 413.5 710 c 128,-1,38
 470 727 470 727 525 727 c 0,39,40
 573 727 573 727 618 714.5 c 128,-1,41
 663 702 663 702 698.5 679 c 128,-1,42
 734 656 734 656 756 619.5 c 128,-1,43
 778 583 778 583 779 535 c 0,44,45
 779 514 779 514 768.5 499.5 c 128,-1,46
 758 485 758 485 742.5 476 c 128,-1,47
 727 467 727 467 707 462.5 c 128,-1,48
 687 458 687 458 671 458 c 1,49,50
 674 466 674 466 675.5 475 c 128,-1,51
 677 484 677 484 680 491 c 1,52,53
 687 528 687 528 677.5 559.5 c 128,-1,54
 668 591 668 591 645.5 615 c 128,-1,55
 623 639 623 639 588 652.5 c 128,-1,56
 553 666 553 666 511 666 c 256,57,58
 469 666 469 666 429.5 652.5 c 128,-1,59
 390 639 390 639 358 615 c 128,-1,60
 326 591 326 591 303 559.5 c 128,-1,61
 280 528 280 528 273 491 c 2,62,-1
 252 390 l 1,0,-1
EndSplineSet
EndChar
StartChar: F
Encoding: 70 70 39
Width: 729
VWidth: 1507
Flags: W
HStem: -9 21G<73.28 117.5> 330 60<252 528.053> 666 61<423 596.612>
Fore
176 491 m 2,0,1
 187 546 187 546 223 589.5 c 128,-1,2
 259 633 259 633 308 663 c 128,-1,3
 357 693 357 693 413.5 710 c 128,-1,4
 470 727 470 727 525 727 c 0,5,6
 573 727 573 727 617.5 714.5 c 128,-1,7
 662 702 662 702 696.5 679 c 128,-1,8
 731 656 731 656 753.5 619.5 c 128,-1,9
 776 583 776 583 779 535 c 0,10,11
 779 514 779 514 768 499.5 c 128,-1,12
 757 485 757 485 741 476 c 128,-1,13
 725 467 725 467 706 462.5 c 128,-1,14
 687 458 687 458 671 458 c 1,15,16
 674 466 674 466 675.5 475 c 128,-1,17
 677 484 677 484 680 491 c 1,18,19
 687 528 687 528 677.5 559.5 c 128,-1,20
 668 591 668 591 645.5 615 c 128,-1,21
 623 639 623 639 588 652.5 c 128,-1,22
 553 666 553 666 511 666 c 256,23,24
 469 666 469 666 429.5 652.5 c 128,-1,25
 390 639 390 639 358 615 c 128,-1,26
 326 591 326 591 303 559.5 c 128,-1,27
 280 528 280 528 273 491 c 2,28,-1
 252 390 l 1,29,-1
 549 390 l 1,30,31
 535 330 535 330 463 330 c 2,32,-1
 238 330 l 1,33,-1
 179 54 l 2,34,35
 166 -9 166 -9 69 -9 c 1,36,-1
 176 491 l 2,0,1
EndSplineSet
EndChar
StartChar: G
Encoding: 71 71 40
Width: 744
VWidth: 1507
Flags: W
HStem: -9 60<298.407 469> 330 60<444.3 644> 666 61<423 596.804>
Fore
717 228 m 1,0,1
 705 172 705 172 669 128 c 128,-1,2
 633 84 633 84 583.5 53.5 c 128,-1,3
 534 23 534 23 477.5 7 c 128,-1,4
 421 -9 421 -9 368 -9 c 256,5,6
 315 -9 315 -9 266 7 c 128,-1,7
 217 23 217 23 181 53.5 c 128,-1,8
 145 84 145 84 127 128 c 128,-1,9
 109 172 109 172 121 228 c 2,10,-1
 176 491 l 2,11,12
 187 546 187 546 223 589.5 c 128,-1,13
 259 633 259 633 308 663 c 128,-1,14
 357 693 357 693 413.5 710 c 128,-1,15
 470 727 470 727 525 727 c 0,16,17
 573 727 573 727 618 714.5 c 128,-1,18
 663 702 663 702 698.5 679 c 128,-1,19
 734 656 734 656 756 619.5 c 128,-1,20
 778 583 778 583 779 535 c 0,21,22
 779 514 779 514 768.5 499.5 c 128,-1,23
 758 485 758 485 742.5 476 c 128,-1,24
 727 467 727 467 707 462.5 c 128,-1,25
 687 458 687 458 671 458 c 1,26,27
 674 466 674 466 675.5 475 c 128,-1,28
 677 484 677 484 680 491 c 1,29,30
 687 528 687 528 677.5 559.5 c 128,-1,31
 668 591 668 591 645.5 615 c 128,-1,32
 623 639 623 639 588 652.5 c 128,-1,33
 553 666 553 666 511 666 c 256,34,35
 469 666 469 666 429.5 652.5 c 128,-1,36
 390 639 390 639 358 615 c 128,-1,37
 326 591 326 591 303 559.5 c 128,-1,38
 280 528 280 528 273 491 c 2,39,-1
 217 228 l 2,40,41
 210 191 210 191 219 159 c 128,-1,42
 228 127 228 127 249.5 103.5 c 128,-1,43
 271 80 271 80 305 65.5 c 128,-1,44
 339 51 339 51 381 51 c 256,45,46
 424 51 424 51 463.5 65.5 c 128,-1,47
 503 80 503 80 536.5 103.5 c 128,-1,48
 570 127 570 127 592.5 159 c 128,-1,49
 615 191 615 191 623 228 c 2,50,-1
 644 330 l 1,51,-1
 424 330 l 1,52,53
 437 390 437 390 509 390 c 2,54,-1
 704 390 l 2,55,56
 725 390 725 390 736.5 380.5 c 128,-1,57
 748 371 748 371 745 357 c 2,58,-1
 717 228 l 1,0,1
EndSplineSet
EndChar
StartChar: H
Encoding: 72 72 41
Width: 774
VWidth: 1507
Flags: W
HStem: -9 21G<88.2857 132.5 590.307 633.5> 330 60<267 659> 707 20G<289.5 333.786 790.5 833.75>
Fore
695 54 m 2,0,1
 681 -9 681 -9 586 -9 c 1,2,-1
 659 330 l 1,3,-1
 253 330 l 1,4,-1
 194 54 l 2,5,6
 181 -9 181 -9 84 -9 c 1,7,-1
 228 663 l 2,8,9
 241 727 241 727 338 727 c 1,10,-1
 267 390 l 1,11,-1
 672 390 l 1,12,-1
 730 663 l 2,13,14
 743 727 743 727 838 727 c 1,15,-1
 695 54 l 2,0,1
EndSplineSet
EndChar
StartChar: I
Encoding: 73 73 42
Width: 271
VWidth: 1507
Flags: W
HStem: -9 736<84 194 228 338>
Fore
194 54 m 2,0,1
 181 -9 181 -9 84 -9 c 1,2,-1
 228 663 l 2,3,4
 241 727 241 727 338 727 c 1,5,-1
 194 54 l 2,0,1
EndSplineSet
EndChar
StartChar: J
Encoding: 74 74 43
Width: 670
VWidth: 1507
Flags: W
HStem: -9 60<267.021 414.781> 659 58<459.185 639>
Fore
202 228 m 0,0,1
 194 191 194 191 201 159 c 128,-1,2
 208 127 208 127 226 103.5 c 128,-1,3
 244 80 244 80 272.5 65.5 c 128,-1,4
 301 51 301 51 338 51 c 256,5,6
 374 51 374 51 408 65.5 c 128,-1,7
 442 80 442 80 470.5 103.5 c 128,-1,8
 499 127 499 127 520 159 c 128,-1,9
 541 191 541 191 549 228 c 2,10,-1
 639 659 l 1,11,-1
 515 659 l 2,12,13
 443 659 443 659 457 717 c 1,14,-1
 702 717 l 2,15,16
 722 717 722 717 732.5 708 c 128,-1,17
 743 699 743 699 740 684 c 2,18,-1
 644 228 l 2,19,20
 633 179 633 179 603 136 c 128,-1,21
 573 93 573 93 529 61 c 128,-1,22
 485 29 485 29 432.5 10 c 128,-1,23
 380 -9 380 -9 324 -9 c 0,24,25
 274 -9 274 -9 232.5 6 c 128,-1,26
 191 21 191 21 162 46.5 c 128,-1,27
 133 72 133 72 117 108.5 c 128,-1,28
 101 145 101 145 101 185 c 0,29,30
 101 205 101 205 111.5 219.5 c 128,-1,31
 122 234 122 234 138 243 c 128,-1,32
 154 252 154 252 173.5 256.5 c 128,-1,33
 193 261 193 261 211 261 c 1,34,35
 208 253 208 253 205.5 245 c 128,-1,36
 203 237 203 237 202 228 c 0,0,1
EndSplineSet
EndChar
StartChar: K
Encoding: 75 75 44
Width: 714
VWidth: 1507
Flags: W
HStem: -9 21G<88.2857 132.5 530.264 573.5> 366 59<425.35 496.608> 707 20G<289.5 333.718>
Fore
228 663 m 2,0,1
 241 727 241 727 338 727 c 1,2,-1
 262 372 l 1,3,4
 375 463 375 463 492 556.5 c 128,-1,5
 609 650 609 650 720 737 c 1,6,7
 760 687 760 687 713 647 c 2,8,-1
 437 428 l 1,9,-1
 425 424 l 1,10,11
 430 425 430 425 435 425 c 128,-1,12
 445 425 l 0,13,14
 500 425 500 425 545.5 406 c 128,-1,15
 591 387 591 387 620.5 355.5 c 128,-1,16
 650 324 650 324 662 281 c 128,-1,17
 674 238 674 238 663 188 c 2,18,-1
 635 54 l 2,19,20
 621 -9 621 -9 526 -9 c 1,21,-1
 568 188 l 2,22,23
 576 225 576 225 569 257 c 128,-1,24
 562 289 562 289 544 313.5 c 128,-1,25
 526 338 526 338 497.5 352 c 128,-1,26
 469 366 469 366 433 366 c 0,27,28
 398 366 398 366 363.5 352 c 128,-1,29
 329 338 329 338 301 313.5 c 128,-1,30
 273 289 273 289 252 257 c 128,-1,31
 231 225 231 225 223 188 c 2,32,-1
 194 54 l 2,33,34
 181 -9 181 -9 84 -9 c 1,35,-1
 228 663 l 2,0,1
EndSplineSet
EndChar
StartChar: L
Encoding: 76 76 45
Width: 654
VWidth: 1507
Flags: W
HStem: 0 60<196 619.569> 707 20G<289.5 333.742>
Fore
565 60 m 2,0,1
 635 60 635 60 624 0 c 1,2,-1
 136 0 l 2,3,4
 115 0 115 0 102.5 10 c 128,-1,5
 90 20 90 20 93 33 c 2,6,-1
 228 663 l 2,7,8
 241 727 241 727 338 727 c 1,9,-1
 196 60 l 1,10,-1
 565 60 l 2,0,1
EndSplineSet
EndChar
StartChar: M
Encoding: 77 77 46
Width: 886
VWidth: 1507
Flags: W
HStem: -9 21G<90.256 133.5 430.5 447 700.272 744.5> 707 20G<289.5 340.441 842.112 902.5>
Fore
229 663 m 2,0,1
 243 727 243 727 336 727 c 1,2,-1
 469 128 l 1,3,-1
 855 727 l 1,4,5
 950 727 950 727 936 663 c 2,6,-1
 806 54 l 2,7,8
 793 -9 793 -9 696 -9 c 1,9,-1
 806 506 l 1,10,-1
 487 12 l 2,11,12
 481 5 481 5 468 -2 c 128,-1,13
 455 -9 455 -9 439 -9 c 256,14,15
 422 -9 422 -9 412 -2 c 128,-1,16
 402 5 402 5 399 12 c 1,17,-1
 291 506 l 1,18,-1
 194 54 l 2,19,20
 181 -9 181 -9 86 -9 c 1,21,-1
 229 663 l 2,0,1
EndSplineSet
EndChar
StartChar: N
Encoding: 78 78 47
Width: 774
VWidth: 1507
Flags: W
HStem: -9 21G<88.2857 132.5 592.863 642> 707 20G<289.5 348.053 738.767 790.5>
Fore
228 663 m 2,0,1
 241 727 241 727 338 727 c 1,2,-1
 623 160 l 1,3,-1
 743 727 l 1,4,5
 838 727 838 727 824 663 c 2,6,-1
 695 54 l 2,7,8
 681 -9 681 -9 603 -9 c 1,9,-1
 306 577 l 1,10,-1
 194 54 l 2,11,12
 181 -9 181 -9 84 -9 c 1,13,-1
 228 663 l 2,0,1
EndSplineSet
EndChar
StartChar: O
Encoding: 79 79 48
Width: 884
VWidth: 1507
Flags: W
HStem: -9 60<349.58 562.532> 666 61<470.819 683.688>
Fore
134 359 m 256,0,1
 151 436 151 436 194.5 503 c 128,-1,2
 238 570 238 570 300.5 619.5 c 128,-1,3
 363 669 363 669 438.5 698 c 128,-1,4
 514 727 514 727 594 727 c 256,5,6
 674 727 674 727 738 698 c 128,-1,7
 802 669 802 669 843.5 619.5 c 128,-1,8
 885 570 885 570 900.5 503 c 128,-1,9
 916 436 916 436 900 359 c 256,10,11
 883 282 883 282 838.5 215 c 128,-1,12
 794 148 794 148 731.5 98 c 128,-1,13
 669 48 669 48 593 19.5 c 128,-1,14
 517 -9 517 -9 437 -9 c 256,15,16
 357 -9 357 -9 294 19.5 c 128,-1,17
 231 48 231 48 190 98 c 128,-1,18
 149 148 149 148 133.5 215 c 128,-1,19
 118 282 118 282 134 359 c 256,0,1
229 359 m 0,20,21
 216 294 216 294 226.5 238 c 128,-1,22
 237 182 237 182 267 140.5 c 128,-1,23
 297 99 297 99 344.5 75 c 128,-1,24
 392 51 392 51 451 51 c 0,25,26
 511 51 511 51 568.5 75 c 128,-1,27
 626 99 626 99 673 140.5 c 128,-1,28
 720 182 720 182 755 238 c 128,-1,29
 790 294 790 294 803 359 c 0,30,31
 817 422 817 422 806.5 478.5 c 128,-1,32
 796 535 796 535 766 576.5 c 128,-1,33
 736 618 736 618 688.5 642 c 128,-1,34
 641 666 641 666 580 666 c 0,35,36
 522 666 522 666 464.5 642 c 128,-1,37
 407 618 407 618 359.5 576.5 c 128,-1,38
 312 535 312 535 277.5 478.5 c 128,-1,39
 243 422 243 422 229 359 c 0,20,21
EndSplineSet
EndChar
StartChar: P
Encoding: 80 80 49
Width: 744
VWidth: 1507
Flags: W
HStem: -9 21G<88.2713 132.5> 330 60<267 591.656> 659 58<323 647.042>
Fore
232 684 m 2,0,1
 235 699 235 699 251 708 c 128,-1,2
 267 717 267 717 288 717 c 2,3,-1
 639 717 l 2,4,5
 680 717 680 717 713 701.5 c 128,-1,6
 746 686 746 686 766.5 659 c 128,-1,7
 787 632 787 632 795 597 c 128,-1,8
 803 562 803 562 794 525 c 0,9,10
 787 487 787 487 764.5 451.5 c 128,-1,11
 742 416 742 416 709.5 389 c 128,-1,12
 677 362 677 362 637 346 c 128,-1,13
 597 330 597 330 556 330 c 2,14,-1
 253 330 l 1,15,-1
 194 54 l 2,16,17
 181 -9 181 -9 84 -9 c 1,18,-1
 232 684 l 2,0,1
570 390 m 2,19,20
 591 390 591 390 612 402.5 c 128,-1,21
 633 415 633 415 651 433.5 c 128,-1,22
 669 452 669 452 682 476 c 128,-1,23
 695 500 695 500 699 525 c 256,24,25
 704 549 704 549 701.5 572 c 128,-1,26
 699 595 699 595 689.5 615 c 128,-1,27
 680 635 680 635 663.5 647 c 128,-1,28
 647 659 647 659 626 659 c 2,29,-1
 323 659 l 1,30,-1
 267 390 l 1,31,-1
 570 390 l 2,19,20
EndSplineSet
EndChar
StartChar: Q
Encoding: 81 81 50
Width: 884
VWidth: 1507
Flags: W
HStem: -9 60<347.809 555.826> 243 60<230.319 434.1> 666 61<470.819 683.688>
Fore
832 41 m 1,0,1
 815 -33 815 -33 733 -5 c 0,2,3
 707 3 707 3 688 16 c 128,-1,4
 669 29 669 29 653 45 c 1,5,6
 603 20 603 20 548 5.5 c 128,-1,7
 493 -9 493 -9 437 -9 c 0,8,9
 357 -9 357 -9 294 19.5 c 128,-1,10
 231 48 231 48 190 98 c 128,-1,11
 149 148 149 148 133.5 215 c 128,-1,12
 118 282 118 282 134 359 c 256,13,14
 151 436 151 436 194.5 503 c 128,-1,15
 238 570 238 570 300.5 619.5 c 128,-1,16
 363 669 363 669 438.5 698 c 128,-1,17
 514 727 514 727 594 727 c 256,18,19
 674 727 674 727 738 698 c 128,-1,20
 802 669 802 669 843.5 619.5 c 128,-1,21
 885 570 885 570 900.5 503 c 128,-1,22
 916 436 916 436 900 359 c 0,23,24
 883 279 883 279 837 210.5 c 128,-1,25
 791 142 791 142 724 92 c 1,26,27
 748 71 748 71 769.5 57.5 c 128,-1,28
 791 44 791 44 815 44 c 1,29,-1
 832 41 l 1,0,1
229 359 m 0,30,31
 220 318 220 318 222 286 c 1,32,33
 285 303 285 303 344 303 c 0,34,35
 407 303 407 303 466.5 284 c 128,-1,36
 526 265 526 265 573 234 c 0,37,38
 604 211 604 211 624 193.5 c 128,-1,39
 644 176 644 176 657 160 c 2,40,-1
 668 148 l 1,41,-1
 674 142 l 1,42,43
 722 182 722 182 756 238 c 128,-1,44
 790 294 790 294 803 359 c 0,45,46
 817 422 817 422 806.5 478.5 c 128,-1,47
 796 535 796 535 766 576.5 c 128,-1,48
 736 618 736 618 688.5 642 c 128,-1,49
 641 666 641 666 580 666 c 0,50,51
 522 666 522 666 464.5 642 c 128,-1,52
 407 618 407 618 359.5 576.5 c 128,-1,53
 312 535 312 535 277.5 478.5 c 128,-1,54
 243 422 243 422 229 359 c 0,30,31
451 51 m 0,55,56
 532 51 532 51 609 93 c 1,57,-1
 601 102 l 1,58,-1
 601 101 l 1,59,60
 580 124 580 124 556 145.5 c 128,-1,61
 532 167 532 167 512 182 c 1,62,-1
 514 182 l 1,63,64
 475 211 475 211 427.5 227 c 128,-1,65
 380 243 380 243 332 243 c 0,66,67
 286 243 286 243 229 222 c 1,68,69
 247 145 247 145 306 98 c 128,-1,70
 365 51 365 51 451 51 c 0,55,56
EndSplineSet
EndChar
StartChar: R
Encoding: 82 82 51
Width: 761
VWidth: 1507
Flags: W
HStem: -9 21G<88.2713 132.5 592.293 635.5> 330 60<267 591.656> 659 58<323 647.042>
Fore
570 390 m 2,0,1
 591 390 591 390 612 402.5 c 128,-1,2
 633 415 633 415 651 433.5 c 128,-1,3
 669 452 669 452 682 476 c 128,-1,4
 695 500 695 500 699 525 c 256,5,6
 704 549 704 549 701.5 572 c 128,-1,7
 699 595 699 595 689.5 615 c 128,-1,8
 680 635 680 635 663.5 647 c 128,-1,9
 647 659 647 659 626 659 c 2,10,-1
 323 659 l 1,11,-1
 267 390 l 1,12,-1
 570 390 l 2,0,1
194 54 m 2,13,14
 181 -9 181 -9 84 -9 c 1,15,-1
 232 684 l 2,16,17
 235 699 235 699 251 708 c 128,-1,18
 267 717 267 717 288 717 c 2,19,-1
 639 717 l 2,20,21
 680 717 680 717 713 701.5 c 128,-1,22
 746 686 746 686 766.5 659 c 128,-1,23
 787 632 787 632 795 597 c 128,-1,24
 803 562 803 562 794 525 c 0,25,26
 790 502 790 502 777 478 c 128,-1,27
 764 454 764 454 745.5 431 c 128,-1,28
 727 408 727 408 705 389.5 c 128,-1,29
 683 371 683 371 660 357 c 1,30,31
 699 333 699 333 718 288.5 c 128,-1,32
 737 244 737 244 727 196 c 2,33,-1
 696 54 l 2,34,35
 683 -9 683 -9 588 -9 c 1,36,-1
 632 196 l 2,37,38
 645 259 645 259 622.5 294.5 c 128,-1,39
 600 330 600 330 556 330 c 2,40,-1
 253 330 l 1,41,-1
 194 54 l 2,13,14
EndSplineSet
EndChar
StartChar: S
Encoding: 83 83 52
Width: 714
VWidth: 1507
Flags: W
HStem: -9 60<282.104 457.06> 666 61<408.501 569.313>
VStem: 604 97<167.649 225 225 258.519>
Fore
199 228 m 0,0,1
 191 191 191 191 200.5 159.5 c 128,-1,2
 210 128 210 128 232.5 104 c 128,-1,3
 255 80 255 80 289 65.5 c 128,-1,4
 323 51 323 51 365 51 c 256,5,6
 407 51 407 51 448.5 65.5 c 128,-1,7
 490 80 490 80 523 104 c 128,-1,8
 556 128 556 128 578 159.5 c 128,-1,9
 600 191 600 191 604 225 c 0,10,11
 607 252 607 252 594.5 270 c 128,-1,12
 582 288 582 288 556.5 301 c 128,-1,13
 531 314 531 314 494.5 323 c 128,-1,14
 458 332 458 332 418 341 c 0,15,16
 359 353 359 353 315 365.5 c 128,-1,17
 271 378 271 378 242.5 397 c 128,-1,18
 214 416 214 416 202.5 443 c 128,-1,19
 191 470 191 470 196 511 c 0,20,21
 200 553 200 553 226 591.5 c 128,-1,22
 252 630 252 630 293.5 660 c 128,-1,23
 335 690 335 690 390 708.5 c 128,-1,24
 445 727 445 727 508 727 c 0,25,26
 621 727 621 727 677 671 c 128,-1,27
 733 615 733 615 730 532 c 1,28,29
 720 499 720 499 685.5 478.5 c 128,-1,30
 651 458 651 458 620 458 c 1,31,32
 623 466 623 466 624.5 475 c 128,-1,33
 626 484 626 484 629 491 c 1,34,35
 636 528 636 528 631 559.5 c 128,-1,36
 626 591 626 591 609 614.5 c 128,-1,37
 592 638 592 638 563.5 652 c 128,-1,38
 535 666 535 666 494 666 c 256,39,40
 454 666 454 666 419 653.5 c 128,-1,41
 384 641 384 641 357 619.5 c 128,-1,42
 330 598 330 598 312.5 572 c 128,-1,43
 295 546 295 546 292 517 c 0,44,45
 286 464 286 464 326 441 c 128,-1,46
 366 418 366 418 448 399 c 0,47,48
 505 389 505 389 554 377 c 128,-1,49
 603 365 603 365 637.5 347 c 128,-1,50
 672 329 672 329 689.5 301 c 128,-1,51
 707 273 707 273 701 229 c 0,52,53
 693 182 693 182 661.5 139 c 128,-1,54
 630 96 630 96 581 63 c 128,-1,55
 532 30 532 30 472.5 10.5 c 128,-1,56
 413 -9 413 -9 351 -9 c 0,57,58
 295 -9 295 -9 249 6 c 128,-1,59
 203 21 203 21 169.5 46.5 c 128,-1,60
 136 72 136 72 117 108.5 c 128,-1,61
 98 145 98 145 98 185 c 0,62,63
 98 205 98 205 108.5 219.5 c 128,-1,64
 119 234 119 234 135 243 c 128,-1,65
 151 252 151 252 169.5 256.5 c 128,-1,66
 188 261 188 261 206 261 c 1,67,68
 203 253 203 253 201.5 245 c 128,-1,69
 200 237 200 237 199 228 c 0,0,1
EndSplineSet
EndChar
StartChar: T
Encoding: 84 84 53
Width: 592
VWidth: 1507
Flags: W
HStem: -9 21G<250.222 293.5> 659 58<156.635 387 482 725.365>
Fore
745 717 m 1,0,1
 731 659 731 659 660 659 c 2,2,-1
 482 659 l 1,3,-1
 354 54 l 2,4,5
 341 -9 341 -9 246 -9 c 1,6,-1
 387 659 l 1,7,-1
 137 659 l 1,8,9
 151 717 151 717 222 717 c 2,10,-1
 745 717 l 1,0,1
EndSplineSet
EndChar
StartChar: U
Encoding: 85 85 54
Width: 774
VWidth: 1507
Flags: W
HStem: -9 60<313.407 484.242> 707 20G<289.5 333.751 790.5 833.792>
Fore
232 228 m 2,0,1
 225 191 225 191 234 159 c 128,-1,2
 243 127 243 127 264.5 103.5 c 128,-1,3
 286 80 286 80 320 65.5 c 128,-1,4
 354 51 354 51 396 51 c 256,5,6
 439 51 439 51 479 65.5 c 128,-1,7
 519 80 519 80 552 103.5 c 128,-1,8
 585 127 585 127 607.5 159 c 128,-1,9
 630 191 630 191 638 228 c 2,10,-1
 730 663 l 2,11,12
 743 727 743 727 838 727 c 1,13,-1
 733 228 l 2,14,15
 720 172 720 172 684 128 c 128,-1,16
 648 84 648 84 598.5 53.5 c 128,-1,17
 549 23 549 23 492.5 7 c 128,-1,18
 436 -9 436 -9 383 -9 c 256,19,20
 330 -9 330 -9 281 7 c 128,-1,21
 232 23 232 23 196 53.5 c 128,-1,22
 160 84 160 84 142 128 c 128,-1,23
 124 172 124 172 136 228 c 2,24,-1
 228 663 l 2,25,26
 241 727 241 727 338 727 c 1,27,-1
 232 228 l 2,0,1
EndSplineSet
EndChar
StartChar: V
Encoding: 86 86 55
Width: 681
VWidth: 1507
Flags: W
HStem: -9 21G<318.5 353.5>
Fore
365 131 m 1,0,1
 449 273 449 273 532.5 410 c 128,-1,2
 616 547 616 547 699 687 c 0,3,4
 716 713 716 713 750.5 723.5 c 128,-1,5
 785 734 785 734 817 719 c 1,6,-1
 386 11 l 2,7,8
 371 -9 371 -9 336 -9 c 256,9,10
 301 -9 301 -9 297 11 c 2,11,-1
 167 719 l 1,12,13
 205 734 205 734 234.5 723.5 c 128,-1,14
 264 713 264 713 270 687 c 2,15,-1
 365 131 l 1,0,1
EndSplineSet
EndChar
StartChar: W
Encoding: 87 87 56
Width: 991
VWidth: 1507
Flags: W
HStem: -9 21G<309 340.68 647.88 671>
Fore
597 491 m 1,0,-1
 330 -9 l 1,1,2
 288 -9 288 -9 269 4 c 128,-1,3
 250 17 250 17 247 42 c 2,4,-1
 167 722 l 1,5,6
 206 734 206 734 235.5 722.5 c 128,-1,7
 265 711 265 711 268 684 c 2,8,-1
 329 157 l 1,9,-1
 582 638 l 2,10,11
 594 659 594 659 632 659 c 256,12,13
 669 659 669 659 672 638 c 2,14,-1
 724 157 l 1,15,16
 793 289 793 289 864 420.5 c 128,-1,17
 935 552 935 552 1007 684 c 0,18,19
 1022 711 1022 711 1055 722.5 c 128,-1,20
 1088 734 1088 734 1123 722 c 1,21,-1
 754 42 l 2,22,23
 742 17 742 17 717 4 c 128,-1,24
 692 -9 692 -9 650 -9 c 1,25,-1
 597 491 l 1,0,-1
EndSplineSet
EndChar
StartChar: X
Encoding: 88 88 57
Width: 663
VWidth: 1507
Flags: W
Fore
182 714 m 1,0,1
 217 736 217 736 245.5 730.5 c 128,-1,2
 274 725 274 725 286 701 c 2,3,-1
 422 436 l 1,4,-1
 671 701 l 2,5,6
 695 725 695 725 725 730.5 c 128,-1,7
 755 736 755 736 781 714 c 1,8,-1
 457 369 l 1,9,-1
 645 5 l 1,10,11
 610 -18 610 -18 582.5 -12 c 128,-1,12
 555 -6 555 -6 541 20 c 2,13,-1
 393 303 l 1,14,-1
 127 20 l 2,15,16
 104 -6 104 -6 73 -11.5 c 128,-1,17
 42 -17 42 -17 17 5 c 1,18,-1
 360 369 l 1,19,-1
 182 714 l 1,0,1
EndSplineSet
EndChar
StartChar: Y
Encoding: 89 89 58
Width: 633
VWidth: 1507
Flags: W
HStem: -9 21G<269.339 312.5>
Fore
374 54 m 2,0,1
 360 -9 360 -9 265 -9 c 1,2,-1
 347 369 l 1,3,-1
 167 714 l 1,4,5
 202 736 202 736 230.5 730.5 c 128,-1,6
 259 725 259 725 271 701 c 2,7,-1
 407 436 l 1,8,-1
 656 701 l 2,9,10
 680 725 680 725 710 730.5 c 128,-1,11
 740 736 740 736 766 714 c 1,12,-1
 442 369 l 1,13,-1
 374 54 l 2,0,1
EndSplineSet
EndChar
StartChar: Z
Encoding: 90 90 59
Width: 663
VWidth: 1507
Flags: W
HStem: 0 60<155 628.569> 659 58<183.032 656>
Fore
75 0 m 1,0,1
 51 0 51 0 42 18 c 128,-1,2
 33 36 33 36 48 51 c 2,3,-1
 656 659 l 1,4,-1
 238 659 l 2,5,6
 167 659 167 659 181 717 c 1,7,-1
 737 717 l 2,8,9
 761 717 761 717 769.5 699 c 128,-1,10
 778 681 778 681 763 666 c 2,11,-1
 155 60 l 1,12,-1
 574 60 l 2,13,14
 644 60 644 60 633 0 c 1,15,-1
 75 0 l 1,0,1
EndSplineSet
EndChar
StartChar: bracketleft
Encoding: 91 91 60
Width: 318
VWidth: 1507
Flags: W
HStem: -128 59<166 295.815> 683 60<326 463.218>
VStem: 59 425<-128 743 -131.5 -128>
Fore
59 -128 m 1,0,-1
 244 743 l 1,1,-1
 484 743 l 1,2,3
 470 683 470 683 399 683 c 2,4,-1
 326 683 l 1,5,-1
 166 -69 l 1,6,-1
 240 -69 l 2,7,8
 312 -69 312 -69 298 -128 c 1,9,-1
 59 -128 l 1,0,-1
EndSplineSet
EndChar
StartChar: backslash
Encoding: 92 92 61
Width: 450
VWidth: 1507
Flags: W
VStem: 142 316<-26 742 742 742>
Fore
458 -26 m 1,0,1
 419 -44 419 -44 393.5 -37 c 128,-1,2
 368 -30 368 -30 359 -5 c 2,3,-1
 142 742 l 1,4,5
 225 779 225 779 241 720 c 2,6,-1
 458 -26 l 1,0,1
EndSplineSet
EndChar
StartChar: asciicircum
Encoding: 94 94 63
Width: 672
VWidth: 1507
Flags: W
HStem: 700 20G<471 504>
Fore
440 702 m 2,0,1
 454 720 454 720 488 720 c 0,2,3
 520 719 520 719 528 702 c 1,4,5
 570.5 519 l 0,6,7
 613 336 613 336 644 214 c 1,8,9
 612 199 612 199 581 205 c 128,-1,10
 550 211 550 211 544 232 c 0,11,12
 523 324 523 324 502.5 413 c 128,-1,13
 482 502 482 502 461 597 c 1,14,15
 399 505 399 505 339.5 414 c 128,-1,16
 280 323 280 323 222 232 c 0,17,18
 205 211 205 211 173.5 205 c 128,-1,19
 142 199 142 199 118 214 c 1,20,-1
 440 702 l 2,0,1
EndSplineSet
EndChar
StartChar: underscore
Encoding: 95 95 64
Width: 575
VWidth: 1507
Flags: W
HStem: -280 54<-47 514>
Fore
-59 -280 m 1,0,-1
 -47 -226 l 1,1,-1
 526 -226 l 1,2,-1
 514 -280 l 1,3,-1
 -59 -280 l 1,0,-1
EndSplineSet
EndChar
StartChar: grave
Encoding: 96 96 65
Width: 355
VWidth: 1507
Flags: W
HStem: 558 161<214 404 345 404>
Fore
404 558 m 1,0,1
 365 558 365 558 344 563 c 128,-1,2
 323 568 323 568 311 583 c 2,3,-1
 214 719 l 1,4,-1
 267 719 l 2,5,6
 335 719 335 719 345 690 c 2,7,-1
 404 558 l 1,0,1
EndSplineSet
EndChar
StartChar: a
Encoding: 97 97 66
Width: 587
VWidth: 1507
Flags: W
HStem: -9 56<214.482 345.763> 282 54<283.146 408.217> 467 55<305.895 446.396>
VStem: 90 481<163 350 -51.981 82.914>
Fore
348 336 m 0,0,1
 422 336 422 336 472 303 c 1,2,-1
 482 350 l 2,3,4
 493 396 493 396 461.5 431.5 c 128,-1,5
 430 467 430 467 375 467 c 0,6,7
 335 467 335 467 289 434.5 c 128,-1,8
 243 402 243 402 208 354 c 1,9,10
 185 375 185 375 180.5 403 c 128,-1,11
 176 431 176 431 194 449 c 0,12,13
 231 482 231 482 283 502 c 128,-1,14
 335 522 335 522 387 522 c 0,15,16
 427 522 427 522 463.5 510.5 c 128,-1,17
 500 499 500 499 527.5 476.5 c 128,-1,18
 555 454 555 454 567.5 422 c 128,-1,19
 580 390 580 390 571 350 c 2,20,-1
 506 48 l 2,21,22
 494 -9 494 -9 405 -9 c 1,23,-1
 413 23 l 1,24,25
 383 8 383 8 347.5 -0.5 c 128,-1,26
 312 -9 312 -9 274 -9 c 0,27,28
 229 -9 229 -9 191.5 4.5 c 128,-1,29
 154 18 154 18 129 41.5 c 128,-1,30
 104 65 104 65 93.5 96 c 128,-1,31
 83 127 83 127 90 163 c 256,32,33
 98 199 98 199 122 230.5 c 128,-1,34
 146 262 146 262 181.5 285.5 c 128,-1,35
 217 309 217 309 260 322.5 c 128,-1,36
 303 336 303 336 348 336 c 0,0,1
286 47 m 0,37,38
 344 47 344 47 388.5 81.5 c 128,-1,39
 433 116 433 116 442 163 c 0,40,41
 452 211 452 211 422.5 246.5 c 128,-1,42
 393 282 393 282 336 282 c 0,43,44
 309 282 309 282 282.5 272 c 128,-1,45
 256 262 256 262 236 245.5 c 128,-1,46
 216 229 216 229 200.5 208 c 128,-1,47
 185 187 185 187 181 163 c 0,48,49
 172 116 172 116 201.5 81.5 c 128,-1,50
 231 47 231 47 286 47 c 0,37,38
EndSplineSet
Substitution2: "Single Substitution lookup 22 subtable" uni0E38
Substitution2: "Single Substitution lookup 22 subtable" uni0E38
EndChar
StartChar: b
Encoding: 98 98 67
Width: 602
VWidth: 1507
Flags: W
HStem: -9 56<244.629 396.281> 467 55<326.534 478.387> 705 20G<286.5 327.612>
Fore
213 164 m 2,0,1
 202 116 202 116 231.5 81.5 c 128,-1,2
 261 47 261 47 317 47 c 0,3,4
 374 47 374 47 418.5 81.5 c 128,-1,5
 463 116 463 116 473 164 c 2,6,-1
 512 350 l 2,7,8
 523 396 523 396 493 431.5 c 128,-1,9
 463 467 463 467 405 467 c 0,10,11
 350 467 350 467 306 431.5 c 128,-1,12
 262 396 262 396 252 350 c 2,13,-1
 213 164 l 2,0,1
280 488 m 1,14,15
 344 522 344 522 418 522 c 0,16,17
 464 522 464 522 501 508 c 128,-1,18
 538 494 538 494 563 471.5 c 128,-1,19
 588 449 588 449 598.5 417.5 c 128,-1,20
 609 386 609 386 601 350 c 2,21,-1
 562 164 l 2,22,23
 555 128 555 128 530.5 97 c 128,-1,24
 506 66 506 66 471.5 42 c 128,-1,25
 437 18 437 18 394 4.5 c 128,-1,26
 351 -9 351 -9 304 -9 c 0,27,28
 228 -9 228 -9 179 26 c 1,29,30
 170 9 170 9 148.5 0 c 128,-1,31
 127 -9 127 -9 84 -9 c 1,32,-1
 229 668 l 2,33,34
 241 725 241 725 332 725 c 1,35,-1
 280 488 l 1,14,15
EndSplineSet
Substitution2: "Single Substitution lookup 22 subtable" uni0E39
Substitution2: "Single Substitution lookup 22 subtable" uni0E39
EndChar
StartChar: c
Encoding: 99 99 68
Width: 548
VWidth: 1507
Flags: W
HStem: -9 56<229.482 357.714> 467 55<313.06 459.827>
VStem: 106 477<163 415 163 163>
Fore
402 522 m 0,0,1
 475 522 475 522 523 492.5 c 128,-1,2
 571 463 571 463 583 415 c 0,3,4
 586 399 586 399 578 386.5 c 128,-1,5
 570 374 570 374 555.5 365 c 128,-1,6
 541 356 541 356 524.5 350.5 c 128,-1,7
 508 345 508 345 496 345 c 1,8,9
 506 393 506 393 476 430 c 128,-1,10
 446 467 446 467 390 467 c 256,11,12
 335 467 335 467 291 431.5 c 128,-1,13
 247 396 247 396 237 348 c 2,14,-1
 196 163 l 2,15,16
 187 116 187 116 216.5 81.5 c 128,-1,17
 246 47 246 47 301 47 c 0,18,19
 330 47 330 47 355.5 56.5 c 128,-1,20
 381 66 381 66 402.5 82.5 c 128,-1,21
 424 99 424 99 439 121 c 128,-1,22
 454 143 454 143 458 167 c 1,23,24
 470 167 470 167 484.5 162 c 128,-1,25
 499 157 499 157 509.5 148 c 128,-1,26
 520 139 520 139 523 126 c 128,-1,27
 526 113 526 113 515 98 c 0,28,29
 482 50 482 50 422 20.5 c 128,-1,30
 362 -9 362 -9 289 -9 c 0,31,32
 244 -9 244 -9 206.5 4.5 c 128,-1,33
 169 18 169 18 144 41.5 c 128,-1,34
 119 65 119 65 108.5 96 c 128,-1,35
 98 127 98 127 106 163 c 2,36,-1
 146 348 l 2,37,38
 154 384 154 384 177 416 c 128,-1,39
 200 448 200 448 235.5 471 c 128,-1,40
 271 494 271 494 314 508 c 128,-1,41
 357 522 357 522 402 522 c 0,0,1
EndSplineSet
Substitution2: "Single Substitution lookup 22 subtable" uni0E3A
Substitution2: "Single Substitution lookup 22 subtable" uni0E3A
EndChar
StartChar: d
Encoding: 100 100 69
Width: 602
VWidth: 1507
Flags: W
HStem: -9 56<229.482 360.763> 467 55<313.06 462.846> 705 20G<621.5 661.746>
Fore
497 348 m 2,0,1
 508 396 508 396 478 431.5 c 128,-1,2
 448 467 448 467 390 467 c 0,3,4
 335 467 335 467 291 431.5 c 128,-1,5
 247 396 247 396 237 348 c 2,6,-1
 196 163 l 2,7,8
 187 116 187 116 216.5 81.5 c 128,-1,9
 246 47 246 47 301 47 c 0,10,11
 359 47 359 47 403.5 81.5 c 128,-1,12
 448 116 448 116 457 163 c 2,13,-1
 497 348 l 2,0,1
402 522 m 0,14,15
 476 522 476 522 526 488 c 1,16,-1
 565 668 l 2,17,18
 577 725 577 725 666 725 c 1,19,-1
 522 48 l 2,20,21
 509 -9 509 -9 421 -9 c 1,22,-1
 428 23 l 1,23,24
 398 8 398 8 362.5 -0.5 c 128,-1,25
 327 -9 327 -9 289 -9 c 0,26,27
 244 -9 244 -9 206.5 4.5 c 128,-1,28
 169 18 169 18 144 41.5 c 128,-1,29
 119 65 119 65 108.5 96 c 128,-1,30
 98 127 98 127 106 163 c 2,31,-1
 146 348 l 2,32,33
 154 384 154 384 177 416 c 128,-1,34
 200 448 200 448 235.5 471 c 128,-1,35
 271 494 271 494 314 508 c 128,-1,36
 357 522 357 522 402 522 c 0,14,15
EndSplineSet
EndChar
StartChar: e
Encoding: 101 101 70
Width: 587
VWidth: 1507
Flags: W
HStem: -9 56<229.482 357.714> 265 55<231 491> 467 55<313.06 463.343>
VStem: 106 480<163 348 343.651 424.287>
Fore
196 163 m 2,0,1
 187 116 187 116 216.5 81.5 c 128,-1,2
 246 47 246 47 301 47 c 0,3,4
 330 47 330 47 355.5 56.5 c 128,-1,5
 381 66 381 66 402.5 82.5 c 128,-1,6
 424 99 424 99 439 121 c 128,-1,7
 454 143 454 143 458 167 c 1,8,9
 470 167 470 167 484.5 162 c 128,-1,10
 499 157 499 157 509.5 148 c 128,-1,11
 520 139 520 139 523 126 c 128,-1,12
 526 113 526 113 515 98 c 0,13,14
 482 50 482 50 422 20.5 c 128,-1,15
 362 -9 362 -9 289 -9 c 0,16,17
 244 -9 244 -9 206.5 4.5 c 128,-1,18
 169 18 169 18 144 41.5 c 128,-1,19
 119 65 119 65 108.5 96 c 128,-1,20
 98 127 98 127 106 163 c 2,21,-1
 146 348 l 2,22,23
 154 384 154 384 177 416 c 128,-1,24
 200 448 200 448 235.5 471 c 128,-1,25
 271 494 271 494 314 508 c 128,-1,26
 357 522 357 522 402 522 c 0,27,28
 449 522 449 522 486 508 c 128,-1,29
 523 494 523 494 548 471 c 128,-1,30
 573 448 573 448 583.5 416 c 128,-1,31
 594 384 594 384 586 348 c 2,32,-1
 574 294 l 2,33,34
 571 282 571 282 555.5 273.5 c 128,-1,35
 540 265 540 265 523 265 c 2,36,-1
 219 265 l 1,37,-1
 196 163 l 2,0,1
231 320 m 1,38,-1
 491 320 l 1,39,-1
 497 348 l 2,40,41
 508 396 508 396 478 431.5 c 128,-1,42
 448 467 448 467 390 467 c 0,43,44
 335 467 335 467 291 431.5 c 128,-1,45
 247 396 247 396 237 348 c 2,46,-1
 231 320 l 1,38,-1
EndSplineSet
EndChar
StartChar: f
Encoding: 102 102 71
Width: 331
VWidth: 1507
Flags: W
HStem: -9 21G<100.283 140.5> 458 54<125.734 196 297 375.125> 669 56<347.351 445.07>
VStem: 96 370<-9 701.5 8.68096 178.125>
Fore
196 458 m 1,0,-1
 109 458 l 1,1,2
 121 512 121 512 188 512 c 2,3,-1
 208 512 l 1,4,-1
 223 586 l 2,5,6
 235 644 235 644 288.5 684.5 c 128,-1,7
 342 725 342 725 419 725 c 0,8,9
 457 725 457 725 466 701.5 c 128,-1,10
 475 678 475 678 457 653 c 1,11,12
 440 660 440 660 428 664.5 c 128,-1,13
 416 669 416 669 407 669 c 0,14,15
 369 669 369 669 344.5 645 c 128,-1,16
 320 621 320 621 312 586 c 2,17,-1
 297 512 l 1,18,-1
 392 512 l 1,19,20
 380 458 380 458 312 458 c 2,21,-1
 285 458 l 1,22,-1
 197 48 l 2,23,24
 185 -9 185 -9 96 -9 c 1,25,-1
 196 458 l 1,0,-1
EndSplineSet
EndChar
StartChar: g
Encoding: 103 103 72
Width: 602
VWidth: 1507
Flags: W
HStem: -213 56<188.141 337.544> -9 56<229.482 360.763> 467 55<313.06 463.529>
Fore
497 348 m 2,0,1
 508 396 508 396 478 431.5 c 128,-1,2
 448 467 448 467 390 467 c 0,3,4
 335 467 335 467 291 431.5 c 128,-1,5
 247 396 247 396 237 348 c 2,6,-1
 196 163 l 2,7,8
 187 116 187 116 216.5 81.5 c 128,-1,9
 246 47 246 47 301 47 c 0,10,11
 359 47 359 47 403.5 81.5 c 128,-1,12
 448 116 448 116 457 163 c 2,13,-1
 497 348 l 2,0,1
428 23 m 1,14,15
 398 8 398 8 362.5 -0.5 c 128,-1,16
 327 -9 327 -9 289 -9 c 0,17,18
 244 -9 244 -9 206.5 4.5 c 128,-1,19
 169 18 169 18 144 41.5 c 128,-1,20
 119 65 119 65 108.5 96 c 128,-1,21
 98 127 98 127 106 163 c 2,22,-1
 146 348 l 2,23,24
 154 384 154 384 177 416 c 128,-1,25
 200 448 200 448 235.5 471 c 128,-1,26
 271 494 271 494 314 508 c 128,-1,27
 357 522 357 522 402 522 c 0,28,29
 440 522 440 522 471.5 512.5 c 128,-1,30
 503 503 503 503 528 487 c 1,31,32
 537 503 537 503 558.5 512.5 c 128,-1,33
 580 522 580 522 623 522 c 1,34,-1
 503 -41 l 2,35,36
 496 -77 496 -77 472 -108 c 128,-1,37
 448 -139 448 -139 414 -162 c 128,-1,38
 380 -185 380 -185 337 -199 c 128,-1,39
 294 -213 294 -213 247 -213 c 0,40,41
 175 -213 175 -213 126.5 -182.5 c 128,-1,42
 78 -152 78 -152 66 -104 c 0,43,44
 62 -90 62 -90 70 -77.5 c 128,-1,45
 78 -65 78 -65 92.5 -56 c 128,-1,46
 107 -47 107 -47 123.5 -41.5 c 128,-1,47
 140 -36 140 -36 154 -36 c 1,48,49
 143 -84 143 -84 172.5 -120.5 c 128,-1,50
 202 -157 202 -157 258 -157 c 0,51,52
 315 -157 315 -157 359.5 -121.5 c 128,-1,53
 404 -86 404 -86 415 -41 c 2,54,-1
 428 23 l 1,14,15
EndSplineSet
EndChar
StartChar: h
Encoding: 104 104 73
Width: 617
VWidth: 1507
Flags: W
HStem: -9 21G<88.2836 129.5 440.258 480.5> 467 55<326.534 478.387> 705 20G<286.5 327.612>
Fore
229 668 m 2,0,1
 241 725 241 725 332 725 c 1,2,-1
 280 488 l 1,3,4
 344 522 344 522 418 522 c 0,5,6
 464 522 464 522 501 508 c 128,-1,7
 538 494 538 494 563 471 c 128,-1,8
 588 448 588 448 598.5 416 c 128,-1,9
 609 384 609 384 601 348 c 2,10,-1
 537 48 l 2,11,12
 525 -9 525 -9 436 -9 c 1,13,-1
 512 348 l 2,14,15
 523 396 523 396 493 431.5 c 128,-1,16
 463 467 463 467 405 467 c 0,17,18
 350 467 350 467 306 431.5 c 128,-1,19
 262 396 262 396 252 348 c 2,20,-1
 187 48 l 2,21,22
 175 -9 175 -9 84 -9 c 1,23,-1
 229 668 l 2,0,1
EndSplineSet
EndChar
StartChar: i
Encoding: 105 105 74
Width: 265
VWidth: 1507
Flags: W
HStem: -9 21G<88.2526 128.5> 502 20G<241.5 281.738> 597 107<229.236 310.311>
VStem: 84 254<-9 651 -110 -9> 200 138<639.185 692.746>
Fore
185 466 m 2,0,1
 197 522 197 522 286 522 c 1,2,-1
 185 48 l 2,3,4
 173 -9 173 -9 84 -9 c 1,5,-1
 185 466 l 2,0,1
200 651 m 0,6,7
 205 672 205 672 228.5 688 c 128,-1,8
 252 704 252 704 282 704 c 256,9,10
 312 704 312 704 327 688 c 128,-1,11
 342 672 342 672 338 651 c 0,12,13
 333 629 333 629 311 613 c 128,-1,14
 289 597 289 597 259 597 c 256,15,16
 229 597 229 597 212.5 613 c 128,-1,17
 196 629 196 629 200 651 c 0,6,7
EndSplineSet
EndChar
StartChar: j
Encoding: 106 106 75
Width: 265
VWidth: 1507
Flags: W
HStem: -213 56<-59.4121 35.952> 502 20G<241.5 281.772> 597 107<229.236 310.311>
VStem: 200 138<639.185 692.746>
Fore
160 -74 m 2,0,1
 148 -131 148 -131 96 -172 c 128,-1,2
 44 -213 44 -213 -33 -213 c 0,3,4
 -71 -213 -71 -213 -80 -188.5 c 128,-1,5
 -89 -164 -89 -164 -71 -139 c 1,6,7
 -39 -157 -39 -157 -23 -157 c 0,8,9
 14 -157 14 -157 38.5 -133 c 128,-1,10
 63 -109 63 -109 71 -74 c 2,11,-1
 185 466 l 2,12,13
 197 522 197 522 286 522 c 1,14,-1
 160 -74 l 2,0,1
200 651 m 0,15,16
 205 672 205 672 228.5 688 c 128,-1,17
 252 704 252 704 282 704 c 256,18,19
 312 704 312 704 327 688 c 128,-1,20
 342 672 342 672 338 651 c 0,21,22
 333 629 333 629 311 613 c 128,-1,23
 289 597 289 597 259 597 c 256,24,25
 229 597 229 597 212.5 613 c 128,-1,26
 196 629 196 629 200 651 c 0,15,16
EndSplineSet
EndChar
StartChar: k
Encoding: 107 107 76
Width: 602
VWidth: 1507
Flags: W
HStem: -9 21G<88.2836 129.5 440.257 480.5> 705 20G<286.5 327.733>
Fore
229 668 m 2,0,1
 241 725 241 725 332 725 c 1,2,-1
 249 336 l 1,3,-1
 595 531 l 1,4,5
 618 470 618 470 561 440 c 2,6,-1
 427 365 l 1,7,-1
 411 365 l 1,8,9
 493 357 493 357 537.5 309 c 128,-1,10
 582 261 582 261 568 193 c 2,11,-1
 537 48 l 2,12,13
 525 -9 525 -9 436 -9 c 1,14,-1
 479 193 l 2,15,16
 490 241 490 241 460 276 c 128,-1,17
 430 311 430 311 372 311 c 0,18,19
 317 311 317 311 273 276 c 128,-1,20
 229 241 229 241 219 193 c 2,21,-1
 187 48 l 2,22,23
 175 -9 175 -9 84 -9 c 1,24,-1
 229 668 l 2,0,1
EndSplineSet
EndChar
StartChar: l
Encoding: 108 108 77
Width: 319
VWidth: 1507
Flags: W
HStem: -9 56<213.228 293.55> 705 20G<286.5 327.731>
VStem: 115 217<130 725 404.954 453.87>
Fore
250 -9 m 0,0,1
 173 -9 173 -9 137.5 31.5 c 128,-1,2
 102 72 102 72 115 130 c 2,3,-1
 229 668 l 2,4,5
 241 725 241 725 332 725 c 1,6,-1
 205 130 l 2,7,8
 197 95 197 95 211 71 c 128,-1,9
 225 47 225 47 262 47 c 0,10,11
 279 47 279 47 320 65 c 1,12,13
 327 39 327 39 307.5 15 c 128,-1,14
 288 -9 288 -9 250 -9 c 0,0,1
EndSplineSet
EndChar
StartChar: m
Encoding: 109 109 78
Width: 816
VWidth: 1507
Flags: W
HStem: -9 21G<90.2526 130.5 363.235 404 637.235 677.5> 467 55<300.975 423.93 592.724 698.519>
Fore
442 383 m 2,0,1
 449 418 449 418 427 442.5 c 128,-1,2
 405 467 405 467 368 467 c 0,3,4
 329 467 329 467 297 442.5 c 128,-1,5
 265 418 265 418 258 383 c 2,6,-1
 187 48 l 2,7,8
 175 -9 175 -9 86 -9 c 1,9,-1
 187 466 l 2,10,11
 199 522 199 522 288 522 c 1,12,-1
 283 503 l 1,13,14
 326 522 326 522 380 522 c 0,15,16
 419 522 419 522 450.5 509 c 128,-1,17
 482 496 482 496 503 473 c 1,18,19
 534 496 534 496 572 509 c 128,-1,20
 610 522 610 522 653 522 c 0,21,22
 730 522 730 522 773.5 481 c 128,-1,23
 817 440 817 440 805 383 c 2,24,-1
 734 48 l 2,25,26
 722 -9 722 -9 633 -9 c 1,27,-1
 716 383 l 2,28,29
 724 418 724 418 702 442.5 c 128,-1,30
 680 467 680 467 641 467 c 0,31,32
 603 467 603 467 571.5 442.5 c 128,-1,33
 540 418 540 418 532 383 c 2,34,-1
 461 48 l 2,35,36
 449 -9 449 -9 359 -9 c 1,37,-1
 442 383 l 2,0,1
EndSplineSet
EndChar
StartChar: n
Encoding: 110 110 79
Width: 617
VWidth: 1507
Flags: W
HStem: -9 21G<88.2526 129.5 440.258 480.5> 467 55<326.534 478.387>
Fore
185 466 m 2,0,1
 197 522 197 522 288 522 c 1,2,-1
 280 488 l 1,3,4
 344 522 344 522 418 522 c 0,5,6
 464 522 464 522 501 508 c 128,-1,7
 538 494 538 494 563 471 c 128,-1,8
 588 448 588 448 598.5 416 c 128,-1,9
 609 384 609 384 601 348 c 2,10,-1
 537 48 l 2,11,12
 525 -9 525 -9 436 -9 c 1,13,-1
 512 348 l 2,14,15
 523 396 523 396 493 431.5 c 128,-1,16
 463 467 463 467 405 467 c 0,17,18
 350 467 350 467 306 431.5 c 128,-1,19
 262 396 262 396 252 348 c 2,20,-1
 187 48 l 2,21,22
 175 -9 175 -9 84 -9 c 1,23,-1
 185 466 l 2,0,1
EndSplineSet
EndChar
StartChar: o
Encoding: 111 111 80
Width: 679
VWidth: 1507
Flags: W
HStem: -9 56<271.892 430.89> 467 55<353.742 510.058>
Fore
113 256 m 0,0,1
 124 311 124 311 156 359 c 128,-1,2
 188 407 188 407 233.5 443 c 128,-1,3
 279 479 279 479 334 500.5 c 128,-1,4
 389 522 389 522 448 522 c 256,5,6
 506 522 506 522 553 500.5 c 128,-1,7
 600 479 600 479 630 443 c 128,-1,8
 660 407 660 407 672 359 c 128,-1,9
 684 311 684 311 674 256 c 0,10,11
 662 200 662 200 629.5 152 c 128,-1,12
 597 104 597 104 551 68 c 128,-1,13
 505 32 505 32 449 11.5 c 128,-1,14
 393 -9 393 -9 335 -9 c 256,15,16
 276 -9 276 -9 230 11.5 c 128,-1,17
 184 32 184 32 154 68 c 128,-1,18
 124 104 124 104 112.5 152 c 128,-1,19
 101 200 101 200 113 256 c 0,0,1
202 256 m 256,20,21
 193 213 193 213 199.5 174.5 c 128,-1,22
 206 136 206 136 226 107 c 128,-1,23
 246 78 246 78 276.5 62.5 c 128,-1,24
 307 47 307 47 347 47 c 256,25,26
 386 47 386 47 424.5 62.5 c 128,-1,27
 463 78 463 78 495.5 107 c 128,-1,28
 528 136 528 136 551 174.5 c 128,-1,29
 574 213 574 213 583 256 c 256,30,31
 592 300 592 300 585.5 338.5 c 128,-1,32
 579 377 579 377 558.5 405.5 c 128,-1,33
 538 434 538 434 506.5 450.5 c 128,-1,34
 475 467 475 467 436 467 c 256,35,36
 396 467 396 467 358.5 450.5 c 128,-1,37
 321 434 321 434 289.5 405.5 c 128,-1,38
 258 377 258 377 234.5 338.5 c 128,-1,39
 211 300 211 300 202 256 c 256,20,21
EndSplineSet
EndChar
StartChar: p
Encoding: 112 112 81
Width: 602
VWidth: 1507
Flags: W
HStem: -213 21G<46.2121 86.5> -9 56<244.892 396.281> 467 55<326.534 478.387>
Fore
211 163 m 2,0,1
 202 116 202 116 231.5 81.5 c 128,-1,2
 261 47 261 47 317 47 c 0,3,4
 374 47 374 47 418.5 81.5 c 128,-1,5
 463 116 463 116 472 163 c 2,6,-1
 512 348 l 2,7,8
 523 396 523 396 493 431.5 c 128,-1,9
 463 467 463 467 405 467 c 0,10,11
 350 467 350 467 306 431.5 c 128,-1,12
 262 396 262 396 252 348 c 2,13,-1
 211 163 l 2,0,1
185 466 m 2,14,15
 197 522 197 522 288 522 c 1,16,-1
 280 488 l 1,17,18
 344 522 344 522 418 522 c 0,19,20
 464 522 464 522 501 508 c 128,-1,21
 538 494 538 494 563 471 c 128,-1,22
 588 448 588 448 598.5 416 c 128,-1,23
 609 384 609 384 601 348 c 2,24,-1
 561 163 l 2,25,26
 553 127 553 127 529.5 96 c 128,-1,27
 506 65 506 65 471.5 41.5 c 128,-1,28
 437 18 437 18 394 4.5 c 128,-1,29
 351 -9 351 -9 304 -9 c 0,30,31
 267 -9 267 -9 236.5 -0.5 c 128,-1,32
 206 8 206 8 182 23 c 1,33,-1
 145 -155 l 2,34,35
 131 -213 131 -213 42 -213 c 1,36,-1
 185 466 l 2,14,15
EndSplineSet
EndChar
StartChar: q
Encoding: 113 113 82
Width: 602
VWidth: 1507
Flags: W
HStem: -213 21G<382.237 422> -9 56<229.482 360.763> 467 55<313.06 463.529>
Fore
497 348 m 2,0,1
 508 396 508 396 478 431.5 c 128,-1,2
 448 467 448 467 390 467 c 0,3,4
 335 467 335 467 291 431.5 c 128,-1,5
 247 396 247 396 237 348 c 2,6,-1
 196 163 l 2,7,8
 187 116 187 116 216.5 81.5 c 128,-1,9
 246 47 246 47 301 47 c 0,10,11
 359 47 359 47 403.5 81.5 c 128,-1,12
 448 116 448 116 457 163 c 2,13,-1
 497 348 l 2,0,1
428 23 m 1,14,15
 398 8 398 8 362.5 -0.5 c 128,-1,16
 327 -9 327 -9 289 -9 c 0,17,18
 244 -9 244 -9 206.5 4.5 c 128,-1,19
 169 18 169 18 144 41.5 c 128,-1,20
 119 65 119 65 108.5 96 c 128,-1,21
 98 127 98 127 106 163 c 2,22,-1
 146 348 l 2,23,24
 154 384 154 384 177 416 c 128,-1,25
 200 448 200 448 235.5 471 c 128,-1,26
 271 494 271 494 314 508 c 128,-1,27
 357 522 357 522 402 522 c 0,28,29
 440 522 440 522 471.5 512.5 c 128,-1,30
 503 503 503 503 528 487 c 1,31,32
 537 503 537 503 558.5 512.5 c 128,-1,33
 580 522 580 522 623 522 c 1,34,-1
 479 -155 l 2,35,36
 466 -213 466 -213 378 -213 c 1,37,-1
 428 23 l 1,14,15
EndSplineSet
EndChar
StartChar: r
Encoding: 114 114 83
Width: 408
VWidth: 1507
Flags: W
HStem: -9 21G<88.2526 129.5> 467 55<330.574 439.77>
VStem: 84 404<-9 512 -17 -9>
Fore
488 512 m 1,0,1
 481 487 481 487 457.5 476.5 c 128,-1,2
 434 466 434 466 404 467 c 0,3,4
 350 464 350 464 305.5 429.5 c 128,-1,5
 261 395 261 395 252 348 c 2,6,-1
 187 48 l 2,7,8
 175 -9 175 -9 84 -9 c 1,9,-1
 185 466 l 2,10,11
 197 522 197 522 288 522 c 1,12,-1
 280 487 l 1,13,14
 342 522 342 522 418 522 c 0,15,16
 434 522 434 522 448.5 520.5 c 128,-1,17
 463 519 463 519 475 515 c 2,18,-1
 488 512 l 1,0,1
EndSplineSet
EndChar
StartChar: s
Encoding: 115 115 84
Width: 526
VWidth: 1507
Flags: W
HStem: -9 56<220.91 324.086> 467 55<284.935 410.594>
VStem: 72 90<88.1111 173.211> 425 89<119.141 160 160 182.96> 448 89<338.078 401.69>
Fore
537 377 m 0,0,1
 534 347 534 347 504.5 331 c 128,-1,2
 475 315 475 315 436 321 c 1,3,4
 448 348 448 348 448 374.5 c 128,-1,5
 448 401 448 401 436.5 421.5 c 128,-1,6
 425 442 425 442 405.5 454.5 c 128,-1,7
 386 467 386 467 359 467 c 0,8,9
 309 467 309 467 272 435.5 c 128,-1,10
 235 404 235 404 231 368 c 0,11,12
 228 332 228 332 251 317.5 c 128,-1,13
 274 303 274 303 330 291 c 0,14,15
 374 282 374 282 410 273.5 c 128,-1,16
 446 265 446 265 471 251.5 c 128,-1,17
 496 238 496 238 507.5 217 c 128,-1,18
 519 196 519 196 514 163 c 256,19,20
 509 130 509 130 486 99 c 128,-1,21
 463 68 463 68 427.5 44 c 128,-1,22
 392 20 392 20 347.5 5.5 c 128,-1,23
 303 -9 303 -9 258 -9 c 0,24,25
 217 -9 217 -9 183 1.5 c 128,-1,26
 149 12 149 12 124 31.5 c 128,-1,27
 99 51 99 51 85 77.5 c 128,-1,28
 71 104 71 104 72 134 c 0,29,30
 75 161 75 161 99.5 177.5 c 128,-1,31
 124 194 124 194 172 190 c 1,32,33
 158 160 158 160 162 133.5 c 128,-1,34
 166 107 166 107 181 87.5 c 128,-1,35
 196 68 196 68 220 57.5 c 128,-1,36
 244 47 244 47 270 47 c 0,37,38
 297 47 297 47 324 56.5 c 128,-1,39
 351 66 351 66 372 82 c 128,-1,40
 393 98 393 98 407.5 118.5 c 128,-1,41
 422 139 422 139 425 160 c 0,42,43
 427 176 427 176 418.5 188 c 128,-1,44
 410 200 410 200 392.5 209.5 c 128,-1,45
 375 219 375 219 352.5 225 c 128,-1,46
 330 231 330 231 303 237 c 0,47,48
 259 246 259 246 226.5 255 c 128,-1,49
 194 264 194 264 174 277.5 c 128,-1,50
 154 291 154 291 145 311.5 c 128,-1,51
 136 332 136 332 140 362 c 0,52,53
 143 392 143 392 162.5 420.5 c 128,-1,54
 182 449 182 449 212.5 471.5 c 128,-1,55
 243 494 243 494 283.5 508 c 128,-1,56
 324 522 324 522 371 522 c 0,57,58
 458 522 458 522 499 481 c 128,-1,59
 540 440 540 440 537 377 c 0,0,1
EndSplineSet
EndChar
StartChar: t
Encoding: 116 116 85
Width: 331
VWidth: 1507
Flags: W
HStem: -6 56<225.676 306.14> 458 54<125.734 196 298 375.125 109 392 188 188> 708 20G<298.5 339.741>
Fore
264 -6 m 0,0,1
 187 -6 187 -6 151 34.5 c 128,-1,2
 115 75 115 75 127 133 c 2,3,-1
 196 458 l 1,4,-1
 109 458 l 1,5,6
 121 512 121 512 188 512 c 2,7,-1
 208 512 l 1,8,-1
 241 671 l 2,9,10
 253 728 253 728 344 728 c 1,11,-1
 298 512 l 1,12,-1
 392 512 l 1,13,14
 380 458 380 458 312 458 c 2,15,-1
 286 458 l 1,16,-1
 217 133 l 2,17,18
 210 98 210 98 224 74 c 128,-1,19
 238 50 238 50 276 50 c 0,20,21
 291 50 291 50 332 68 c 1,22,23
 339 42 339 42 320 18 c 128,-1,24
 301 -6 301 -6 264 -6 c 0,0,1
EndSplineSet
EndChar
StartChar: u
Encoding: 117 117 86
Width: 617
VWidth: 1507
Flags: W
HStem: -9 56<245.124 375.784> 502 20G<242.5 283.81 593.5 633.738>
Fore
537 48 m 2,0,1
 525 -9 525 -9 436 -9 c 1,2,-1
 443 23 l 1,3,4
 413 8 413 8 377.5 -0.5 c 128,-1,5
 342 -9 342 -9 304 -9 c 0,6,7
 259 -9 259 -9 221.5 4.5 c 128,-1,8
 184 18 184 18 159 42 c 128,-1,9
 134 66 134 66 124.5 97 c 128,-1,10
 115 128 115 128 122 164 c 2,11,-1
 185 466 l 2,12,13
 197 522 197 522 288 522 c 1,14,-1
 213 164 l 2,15,16
 202 116 202 116 231.5 81.5 c 128,-1,17
 261 47 261 47 317 47 c 0,18,19
 374 47 374 47 418.5 81.5 c 128,-1,20
 463 116 463 116 473 164 c 2,21,-1
 537 466 l 2,22,23
 549 522 549 522 638 522 c 1,24,-1
 537 48 l 2,0,1
EndSplineSet
EndChar
StartChar: v
Encoding: 118 118 87
Width: 536
VWidth: 1507
Flags: W
HStem: -9 21G<257 270.5>
VStem: 131 490<512 512 145.783 285.096>
Fore
264 -9 m 256,0,1
 250 -9 250 -9 241 -3 c 128,-1,2
 232 3 232 3 229 9 c 1,3,4
 205 134 205 134 178.5 260.5 c 128,-1,5
 152 387 152 387 131 512 c 1,6,7
 170 528 170 528 194.5 519.5 c 128,-1,8
 219 511 219 511 222 488 c 2,9,-1
 291 118 l 1,10,-1
 519 488 l 2,11,12
 532 511 532 511 560 519.5 c 128,-1,13
 588 528 588 528 621 512 c 1,14,-1
 309 9 l 2,15,16
 304 2 304 2 290.5 -3.5 c 128,-1,17
 277 -9 277 -9 264 -9 c 256,0,1
EndSplineSet
EndChar
StartChar: w
Encoding: 119 119 88
Width: 759
VWidth: 1507
Flags: W
HStem: -9 21G<248.5 278.788 479.818 502>
Fore
446 321 m 1,0,-1
 268 -9 l 1,1,2
 229 -9 229 -9 212.5 1.5 c 128,-1,3
 196 12 196 12 193 33 c 2,4,-1
 131 514 l 1,5,6
 175 528 175 528 196 518.5 c 128,-1,7
 217 509 217 509 220 484 c 0,8,9
 229 401 229 401 242 312 c 128,-1,10
 255 223 255 223 267 137 c 1,11,-1
 431 448 l 2,12,13
 437 458 437 458 450 463.5 c 128,-1,14
 463 469 463 469 478 469 c 256,15,16
 493 469 493 469 503.5 463.5 c 128,-1,17
 514 458 514 458 515 448 c 2,18,-1
 547 136 l 1,19,-1
 742 484 l 2,20,21
 775 538 775 538 843 514 c 1,22,-1
 576 33 l 2,23,24
 564 12 564 12 543 1.5 c 128,-1,25
 522 -9 522 -9 482 -9 c 1,26,-1
 446 321 l 1,0,-1
EndSplineSet
EndChar
StartChar: x
Encoding: 120 120 89
Width: 539
VWidth: 1507
Flags: W
Fore
515 9 m 1,0,1
 446 -38 446 -38 419 15 c 2,2,-1
 312 211 l 1,3,-1
 125 15 l 2,4,5
 71 -39 71 -39 26 9 c 1,6,-1
 279 273 l 1,7,-1
 155 506 l 1,8,9
 222 550 222 550 252 497 c 2,10,-1
 339 335 l 1,11,-1
 496 497 l 2,12,13
 523 525 523 525 547 527 c 128,-1,14
 571 529 571 529 597 506 c 1,15,-1
 372 273 l 1,16,-1
 515 9 l 1,0,1
EndSplineSet
EndChar
StartChar: y
Encoding: 121 121 90
Width: 536
VWidth: 1507
Flags: W
Fore
60 -210 m 0,0,1
 -20 -228 -20 -228 -12 -163 c 1,2,3
 5 -163 5 -163 16 -162 c 128,-1,4
 27 -161 27 -161 38 -158 c 0,5,6
 125 -136 125 -136 194 -35 c 2,7,-1
 228 18 l 1,8,-1
 131 512 l 1,9,10
 170 528 170 528 194.5 519.5 c 128,-1,11
 219 511 219 511 222 488 c 2,12,-1
 291 118 l 1,13,-1
 519 488 l 2,14,15
 532 511 532 511 560 519.5 c 128,-1,16
 588 528 588 528 621 512 c 1,17,-1
 270 -53 l 2,18,19
 229 -118 229 -118 181 -155.5 c 128,-1,20
 133 -193 133 -193 60 -210 c 0,0,1
EndSplineSet
EndChar
StartChar: z
Encoding: 122 122 91
Width: 485
VWidth: 1507
Flags: W
HStem: 0 56<137 453.527> 458 54<131.969 452>
Fore
65 0 m 1,0,1
 44 0 44 0 35.5 17.5 c 128,-1,2
 27 35 27 35 42 50 c 2,3,-1
 452 458 l 1,4,-1
 184 458 l 2,5,6
 118 458 118 458 130 512 c 1,7,-1
 526 512 l 2,8,9
 547 512 547 512 556 495 c 128,-1,10
 565 478 565 478 550 464 c 2,11,-1
 137 56 l 1,12,-1
 407 56 l 2,13,14
 439 56 439 56 454 41.5 c 128,-1,15
 469 27 469 27 463 0 c 1,16,-1
 65 0 l 1,0,1
EndSplineSet
EndChar
StartChar: braceleft
Encoding: 123 123 92
Width: 318
VWidth: 1507
Flags: W
HStem: -127 53<212.736 297.833> 285 45<117.156 164.661> 689 54<382.93 468.016>
VStem: 98 386<307 743 264.941 368.428>
Fore
98 307 m 256,0,1
 101 318 101 318 111.5 324 c 128,-1,2
 122 330 122 330 139 330 c 0,3,4
 169 330 169 330 184.5 353.5 c 128,-1,5
 200 377 200 377 210 421 c 2,6,-1
 250 610 l 2,7,8
 262 674 262 674 300 708.5 c 128,-1,9
 338 743 338 743 395 743 c 2,10,-1
 484 743 l 1,11,12
 473 689 473 689 407 689 c 2,13,-1
 398 689 l 2,14,15
 383 689 383 689 369.5 676 c 128,-1,16
 356 663 356 663 347 624 c 2,17,-1
 306 431 l 2,18,19
 294 378 294 378 270 349.5 c 128,-1,20
 246 321 246 321 203 307 c 1,21,22
 244 295 244 295 255.5 269 c 128,-1,23
 267 243 267 243 255 185 c 2,24,-1
 213 -8 l 2,25,26
 205 -47 205 -47 212.5 -60.5 c 128,-1,27
 220 -74 220 -74 235 -74 c 2,28,-1
 244 -74 l 2,29,30
 311 -74 311 -74 300 -127 c 1,31,-1
 211 -127 l 2,32,33
 154 -127 154 -127 130.5 -93 c 128,-1,34
 107 -59 107 -59 121 6 c 2,35,-1
 161 196 l 2,36,37
 170 240 170 240 165 262.5 c 128,-1,38
 160 285 160 285 130 285 c 0,39,40
 113 285 113 285 104 291 c 128,-1,41
 95 297 95 297 98 307 c 256,0,1
EndSplineSet
EndChar
StartChar: bar
Encoding: 124 124 93
Width: 262
VWidth: 1507
Flags: W
HStem: -155 949
Fore
244 740 m 2,0,1
 256 794 256 794 342 794 c 1,2,-1
 151 -101 l 2,3,4
 139 -155 139 -155 54 -155 c 1,5,-1
 244 740 l 2,0,1
EndSplineSet
EndChar
StartChar: asciitilde
Encoding: 126 126 95
Width: 682
VWidth: 1507
Flags: W
HStem: 234 57<447.833 583.748> 304 61<199.424 346.411>
Fore
128 253 m 1,0,1
 112 288 112 288 119.5 309 c 128,-1,2
 127 330 127 330 157 345 c 0,3,4
 202 365 202 365 270 365 c 0,5,6
 341 365 341 365 416 327 c 0,7,8
 490 291 490 291 531 291 c 0,9,10
 594 291 594 291 674 366 c 1,11,12
 698 345 698 345 697 320 c 128,-1,13
 696 295 696 295 671 279 c 1,14,-1
 672 279 l 1,15,16
 638 255 638 255 599.5 244.5 c 128,-1,17
 561 234 561 234 517 234 c 0,18,19
 452 234 452 234 365 274 c 0,20,21
 304 304 304 304 256 304 c 0,22,23
 225 304 225 304 194.5 291.5 c 128,-1,24
 164 279 164 279 128 253 c 1,0,1
EndSplineSet
EndChar
StartChar: quotedbl
Encoding: 34 34 97
Width: 409
VWidth: 1507
Flags: W
HStem: 503 222<187 335 396.199 426.575>
VStem: 187 104<541.362 610.197> 210 125<651 712.325 712.325 743.318> 347 104<540.888 609.355> 369 125<651 712.199 712.199 742.575>
Fore
210 651 m 2,0,1
 216 689 216 689 249 707 c 128,-1,2
 282 725 282 725 335 725 c 1,3,-1
 291 564 l 2,4,5
 283 543 283 543 254.5 523 c 128,-1,6
 226 503 226 503 187 503 c 1,7,-1
 210 651 l 2,0,1
369 651 m 2,8,9
 375 689 375 689 408.5 707 c 128,-1,10
 442 725 442 725 494 725 c 1,11,-1
 451 564 l 2,12,13
 443 543 443 543 414.5 523 c 128,-1,14
 386 503 386 503 347 503 c 1,15,-1
 369 651 l 2,8,9
EndSplineSet
EndChar
StartChar: exclam
Encoding: 33 33 98
Width: 251
VWidth: 1507
Flags: W
HStem: -9 118<91.783 176.702> 705 20G<312.5 337.057>
VStem: 62 280<50 725 50 50> 62 148<29.8545 95.4051> 112 101<172.359 275.068>
Fore
202 641 m 2,0,1
 210 680 210 680 246.5 702.5 c 128,-1,2
 283 725 283 725 342 725 c 1,3,-1
 213 203 l 2,4,5
 205 175 205 175 181.5 159 c 128,-1,6
 158 143 158 143 112 143 c 1,7,-1
 202 641 l 2,0,1
62 50 m 0,8,9
 66 75 66 75 91 92 c 128,-1,10
 116 109 116 109 148 109 c 0,11,12
 178 109 178 109 196 92 c 128,-1,13
 214 75 214 75 210 50 c 0,14,15
 203 24 203 24 177.5 7.5 c 128,-1,16
 152 -9 152 -9 122 -9 c 0,17,18
 90 -9 90 -9 73 7.5 c 128,-1,19
 56 24 56 24 62 50 c 0,8,9
EndSplineSet
EndChar
StartChar: exclamdown
Encoding: 161 161 100
Width: 251
VWidth: 1507
Flags: W
HStem: -213 21G<22.9042 48> 404 118<181.298 266.733>
VStem: 18 280<-213 464 -213 -213> 146 103<249.763 356.792> 151 147<442.566 508.636>
Fore
158 -127 m 2,0,1
 151 -167 151 -167 114.5 -190 c 128,-1,2
 78 -213 78 -213 18 -213 c 1,3,-1
 146 309 l 2,4,5
 161 369 161 369 249 369 c 1,6,-1
 158 -127 l 2,0,1
298 464 m 0,7,8
 292 439 292 439 267.5 421.5 c 128,-1,9
 243 404 243 404 213 404 c 0,10,11
 181 404 181 404 163 421.5 c 128,-1,12
 145 439 145 439 151 464 c 0,13,14
 155 488 155 488 180.5 505 c 128,-1,15
 206 522 206 522 238 522 c 0,16,17
 268 522 268 522 285.5 505 c 128,-1,18
 303 488 303 488 298 464 c 0,7,8
EndSplineSet
EndChar
StartChar: cent
Encoding: 162 162 101
Width: 548
VWidth: 1507
Flags: W
VStem: 109 476<166 418 184.395 582.404>
Fore
363 543 m 2,0,1
 374 597 374 597 463 597 c 1,2,-1
 446 522 l 1,3,4
 502 514 502 514 538 485.5 c 128,-1,5
 574 457 574 457 585 418 c 0,6,7
 589 402 589 402 581 389.5 c 128,-1,8
 573 377 573 377 558.5 368 c 128,-1,9
 544 359 544 359 527.5 353.5 c 128,-1,10
 511 348 511 348 499 348 c 1,11,12
 506 387 506 387 488 419 c 128,-1,13
 470 451 470 451 434 463 c 1,14,-1
 347 56 l 1,15,16
 390 68 390 68 421 99.5 c 128,-1,17
 452 131 452 131 461 170 c 1,18,19
 473 170 473 170 487.5 165 c 128,-1,20
 502 160 502 160 512 151 c 128,-1,21
 522 142 522 142 525 129 c 128,-1,22
 528 116 528 116 519 101 c 0,23,24
 490 60 490 60 441.5 32.5 c 128,-1,25
 393 5 393 5 335 -3 c 1,26,-1
 329 -30 l 2,27,28
 323 -59 323 -59 300 -71.5 c 128,-1,29
 277 -84 277 -84 231 -84 c 1,30,-1
 247 -2 l 1,31,32
 173 11 173 11 134 56.5 c 128,-1,33
 95 102 95 102 109 166 c 2,34,-1
 148 351 l 2,35,36
 154 383 154 383 173.5 411 c 128,-1,37
 193 439 193 439 221 461.5 c 128,-1,38
 249 484 249 484 284.5 499 c 128,-1,39
 320 514 320 514 359 520 c 1,40,-1
 363 543 l 2,0,1
238 351 m 2,41,-1
 199 166 l 2,42,43
 191 130 191 130 208 99 c 128,-1,44
 225 68 225 68 259 56 c 1,45,-1
 347 463 l 1,46,47
 304 449 304 449 275 419 c 128,-1,48
 246 389 246 389 238 351 c 2,41,-1
EndSplineSet
EndChar
StartChar: sterling
Encoding: 163 163 102
Width: 605
VWidth: 1507
Flags: W
HStem: 0 60<220 554.404> 329 60<149.97 262 357 513.478> 666 59<452.352 607.962>
Fore
130 329 m 1,0,1
 143 389 143 389 213 389 c 2,2,-1
 267 389 l 1,3,4
 270 422 270 422 273.5 453 c 128,-1,5
 277 484 277 484 285 519 c 0,6,7
 294 564 294 564 318 602.5 c 128,-1,8
 342 641 342 641 376.5 668 c 128,-1,9
 411 695 411 695 453.5 710 c 128,-1,10
 496 725 496 725 544 725 c 0,11,12
 588 725 588 725 618 716 c 128,-1,13
 648 707 648 707 662 692 c 0,14,15
 675 678 675 678 666 657 c 128,-1,16
 657 636 657 636 636 621 c 1,17,18
 595 666 595 666 526 666 c 0,19,20
 467 666 467 666 430 627.5 c 128,-1,21
 393 589 393 589 377 517 c 0,22,23
 372 494 372 494 367 459.5 c 128,-1,24
 362 425 362 425 357 389 c 1,25,-1
 532 389 l 1,26,27
 522 329 522 329 449 329 c 2,28,-1
 351 329 l 1,29,30
 348 295 348 295 345 269.5 c 128,-1,31
 342 244 342 244 339 232 c 0,32,33
 327 169 327 169 299 130.5 c 128,-1,34
 271 92 271 92 220 60 c 1,35,-1
 499 60 l 2,36,37
 570 60 570 60 559 0 c 1,38,-1
 74 0 l 1,39,40
 81 39 81 39 119 62 c 0,41,42
 136 71 136 71 155.5 86 c 128,-1,43
 175 101 175 101 193 121.5 c 128,-1,44
 211 142 211 142 225.5 166.5 c 128,-1,45
 240 191 240 191 247 222 c 0,46,47
 253 249 253 249 256 276 c 128,-1,48
 259 303 259 303 262 329 c 1,49,-1
 130 329 l 1,0,1
EndSplineSet
EndChar
StartChar: currency
Encoding: 164 164 103
Width: 773
VWidth: 1507
Flags: W
HStem: 78 58<335.153 472.547> 582 60<447.604 584.836>
Fore
190 188 m 1,0,1
 146 265 146 265 164 359 c 0,2,3
 173 402 173 402 199 447.5 c 128,-1,4
 225 493 225 493 265 532 c 1,5,-1
 219 594 l 1,6,-1
 289 654 l 1,7,-1
 339 592 l 1,8,9
 381 620 381 620 427 631 c 128,-1,10
 473 642 473 642 520 642 c 0,11,12
 571 642 571 642 610.5 628.5 c 128,-1,13
 650 615 650 615 683 589 c 1,14,-1
 764 656 l 1,15,-1
 805 594 l 1,16,-1
 733 532 l 1,17,18
 757 494 757 494 762 449.5 c 128,-1,19
 767 405 767 405 757 359 c 0,20,21
 748 315 748 315 723.5 271.5 c 128,-1,22
 699 228 699 228 660 188 c 1,23,-1
 705 125 l 1,24,-1
 636 68 l 1,25,-1
 586 131 l 1,26,27
 544 102 544 102 496.5 90 c 128,-1,28
 449 78 449 78 401 78 c 256,29,30
 353 78 353 78 312 88.5 c 128,-1,31
 271 99 271 99 241 130 c 1,32,-1
 166 66 l 1,33,-1
 119 125 l 1,34,-1
 190 188 l 1,0,1
259 359 m 256,35,36
 250 314 250 314 257 273 c 128,-1,37
 264 232 264 232 285 201 c 128,-1,38
 306 170 306 170 339 153 c 128,-1,39
 372 136 372 136 413 136 c 256,40,41
 454 136 454 136 494.5 153 c 128,-1,42
 535 170 535 170 568 201 c 128,-1,43
 601 232 601 232 626 273 c 128,-1,44
 651 314 651 314 660 359 c 256,45,46
 669 404 669 404 662.5 444.5 c 128,-1,47
 656 485 656 485 635.5 516 c 128,-1,48
 615 547 615 547 582 564.5 c 128,-1,49
 549 582 549 582 508 582 c 256,50,51
 467 582 467 582 426.5 564.5 c 128,-1,52
 386 547 386 547 352 516 c 128,-1,53
 318 485 318 485 293 444.5 c 128,-1,54
 268 404 268 404 259 359 c 256,35,36
EndSplineSet
EndChar
StartChar: yen
Encoding: 165 165 104
Width: 633
VWidth: 1507
Flags: W
HStem: -6 21G<272.179 315.5> 262 59<155.312 324 433 596.841> 396 61<184.947 304 522 624.535>
Fore
164 396 m 1,0,1
 178 457 178 457 250 457 c 2,2,-1
 304 457 l 1,3,-1
 170 717 l 1,4,5
 205 739 205 739 233.5 733.5 c 128,-1,6
 262 728 262 728 274 704 c 2,7,-1
 408 439 l 1,8,-1
 659 704 l 2,9,10
 681 728 681 728 712 733.5 c 128,-1,11
 743 739 743 739 769 717 c 1,12,-1
 522 457 l 1,13,-1
 645 457 l 1,14,15
 632 396 632 396 559 396 c 2,16,-1
 464 396 l 1,17,-1
 443 372 l 1,18,-1
 433 321 l 1,19,-1
 616 321 l 1,20,21
 603 262 603 262 531 262 c 2,22,-1
 419 262 l 1,23,-1
 377 57 l 2,24,25
 363 -6 363 -6 268 -6 c 1,26,-1
 324 262 l 1,27,-1
 136 262 l 1,28,29
 149 321 149 321 222 321 c 2,30,-1
 338 321 l 1,31,-1
 348 372 l 1,32,-1
 335 396 l 1,33,-1
 164 396 l 1,0,1
EndSplineSet
EndChar
StartChar: brokenbar
Encoding: 166 166 105
Width: 262
VWidth: 1507
Flags: W
VStem: 54 288<-155 794 -235 -155>
Fore
244 740 m 2,0,1
 256 794 256 794 342 794 c 1,2,-1
 262 424 l 2,3,4
 250 369 250 369 166 369 c 1,5,-1
 244 740 l 2,0,1
133 216 m 2,6,7
 145 270 145 270 231 270 c 1,8,-1
 151 -101 l 2,9,10
 139 -155 139 -155 54 -155 c 1,11,-1
 133 216 l 2,6,7
EndSplineSet
EndChar
StartChar: section
Encoding: 167 167 106
Width: 622
VWidth: 1507
Flags: W
HStem: -9 57<225.293 394.654> 672 53<408.93 537.422>
VStem: 149 461<57.5 664 92.072 148.605>
Fore
604 345 m 0,0,1
 597 311 597 311 573.5 282 c 128,-1,2
 550 253 550 253 515 225 c 1,3,4
 525 210 525 210 532.5 188 c 128,-1,5
 540 166 540 166 534 140 c 0,6,7
 519 69 519 69 450 30 c 128,-1,8
 381 -9 381 -9 289 -9 c 0,9,10
 250 -9 250 -9 214.5 0 c 128,-1,11
 179 9 179 9 160 23 c 0,12,13
 146 35 146 35 149 57.5 c 128,-1,14
 152 80 152 80 175 107 c 1,15,16
 197 81 197 81 229.5 64.5 c 128,-1,17
 262 48 262 48 304 48 c 0,18,19
 357 48 357 48 395.5 70 c 128,-1,20
 434 92 434 92 442 134 c 0,21,22
 451 173 451 173 426.5 199 c 128,-1,23
 402 225 402 225 333 247 c 0,24,25
 246 274 246 274 203 309 c 128,-1,26
 160 344 160 344 172 401 c 0,27,28
 178 425 178 425 198.5 453 c 128,-1,29
 219 481 219 481 265 511 c 1,30,31
 238 543 238 543 249 585 c 0,32,33
 255 616 255 616 276 642 c 128,-1,34
 297 668 297 668 328 686.5 c 128,-1,35
 359 705 359 705 398 715 c 128,-1,36
 437 725 437 725 481 725 c 0,37,38
 520 725 520 725 554 717.5 c 128,-1,39
 588 710 588 710 604 695 c 0,40,41
 616 686 616 686 610 664 c 128,-1,42
 604 642 604 642 588 626 c 1,43,44
 565 642 565 642 530.5 657 c 128,-1,45
 496 672 496 672 461 672 c 0,46,47
 419 672 419 672 385 651 c 128,-1,48
 351 630 351 630 344 594 c 0,49,50
 335 552 335 552 368 531.5 c 128,-1,51
 401 511 401 511 460 494 c 0,52,53
 494 482 494 482 523.5 468.5 c 128,-1,54
 553 455 553 455 573.5 438 c 128,-1,55
 594 421 594 421 602 398 c 128,-1,56
 610 375 610 375 604 345 c 0,0,1
508 338 m 0,57,58
 515 369 515 369 497 393.5 c 128,-1,59
 479 418 479 418 427 437 c 0,60,61
 401 446 401 446 371 456.5 c 128,-1,62
 341 467 341 467 320 478 c 1,63,64
 298 461 298 461 284 441 c 128,-1,65
 270 421 270 421 265 404 c 0,66,67
 259 377 259 377 277 350.5 c 128,-1,68
 295 324 295 324 363 303 c 0,69,70
 407 286 407 286 429 280 c 128,-1,71
 451 274 451 274 467 264 c 1,72,73
 481 279 481 279 492 298 c 128,-1,74
 503 317 503 317 508 338 c 0,57,58
EndSplineSet
EndChar
StartChar: dieresis
Encoding: 168 168 107
Width: 354
VWidth: 1507
Flags: W
HStem: 601 107<175.205 257.764 371.205 453.764>
VStem: 148 138<637.129 695.903> 344 138<637.129 695.903>
Fore
148 656 m 0,0,1
 152 677 152 677 174.5 692.5 c 128,-1,2
 197 708 197 708 228 708 c 256,3,4
 258 708 258 708 274.5 692.5 c 128,-1,5
 291 677 291 677 286 656 c 0,6,7
 282 633 282 633 258.5 617 c 128,-1,8
 235 601 235 601 205 601 c 256,9,10
 175 601 175 601 159 617 c 128,-1,11
 143 633 143 633 148 656 c 0,0,1
344 656 m 0,12,13
 348 677 348 677 370.5 692.5 c 128,-1,14
 393 708 393 708 424 708 c 256,15,16
 454 708 454 708 470.5 692.5 c 128,-1,17
 487 677 487 677 482 656 c 0,18,19
 478 633 478 633 454.5 617 c 128,-1,20
 431 601 431 601 401 601 c 256,21,22
 371 601 371 601 355 617 c 128,-1,23
 339 633 339 633 344 656 c 0,12,13
EndSplineSet
EndChar
StartChar: copyright
Encoding: 169 169 108
Width: 854
VWidth: 1507
Flags: W
HStem: -9 54<330.442 546.759> 140 51<410.587 517.817> 526 50<513.346 596.798> 671 54<456.004 668.7>
Fore
119 357 m 256,0,1
 136 434 136 434 179.5 501 c 128,-1,2
 223 568 223 568 285.5 618 c 128,-1,3
 348 668 348 668 423.5 696.5 c 128,-1,4
 499 725 499 725 579 725 c 256,5,6
 659 725 659 725 722 696.5 c 128,-1,7
 785 668 785 668 826.5 618 c 128,-1,8
 868 568 868 568 884 501 c 128,-1,9
 900 434 900 434 883 357 c 256,10,11
 867 280 867 280 822.5 214 c 128,-1,12
 778 148 778 148 716 98 c 128,-1,13
 654 48 654 48 578 19.5 c 128,-1,14
 502 -9 502 -9 422 -9 c 256,15,16
 342 -9 342 -9 279 19.5 c 128,-1,17
 216 48 216 48 175 98 c 128,-1,18
 134 148 134 148 118 214 c 128,-1,19
 102 280 102 280 119 357 c 256,0,1
208 356 m 256,20,21
 194 291 194 291 205 234.5 c 128,-1,22
 216 178 216 178 246.5 135.5 c 128,-1,23
 277 93 277 93 325.5 69 c 128,-1,24
 374 45 374 45 434 45 c 256,25,26
 494 45 494 45 552 69 c 128,-1,27
 610 93 610 93 659 135.5 c 128,-1,28
 708 178 708 178 743.5 234.5 c 128,-1,29
 779 291 779 291 793 356 c 256,30,31
 806 421 806 421 795 479 c 128,-1,32
 784 537 784 537 754 579 c 128,-1,33
 724 621 724 621 675.5 646 c 128,-1,34
 627 671 627 671 567 671 c 256,35,36
 506 671 506 671 448 646 c 128,-1,37
 390 621 390 621 341 579 c 128,-1,38
 292 537 292 537 257 479 c 128,-1,39
 222 421 222 421 208 356 c 256,20,21
541 526 m 0,40,41
 520 526 520 526 501 518.5 c 128,-1,42
 482 511 482 511 466.5 498 c 128,-1,43
 451 485 451 485 439.5 469.5 c 128,-1,44
 428 454 428 454 424 436 c 2,45,-1
 390 282 l 2,46,47
 383 246 383 246 405.5 218.5 c 128,-1,48
 428 191 428 191 469 191 c 256,49,50
 509 191 509 191 545.5 220.5 c 128,-1,51
 582 250 582 250 589 289 c 1,52,53
 630 295 630 295 652.5 281.5 c 128,-1,54
 675 268 675 268 659 238 c 0,55,56
 645 214 645 214 622.5 196 c 128,-1,57
 600 178 600 178 573 165 c 128,-1,58
 546 152 546 152 515.5 146 c 128,-1,59
 485 140 485 140 458 140 c 0,60,61
 427 140 427 140 396 150 c 128,-1,62
 365 160 365 160 342.5 178 c 128,-1,63
 320 196 320 196 307.5 222.5 c 128,-1,64
 295 249 295 249 303 282 c 2,65,-1
 336 436 l 2,66,67
 342 467 342 467 364.5 493 c 128,-1,68
 387 519 387 519 417.5 537.5 c 128,-1,69
 448 556 448 556 483.5 566 c 128,-1,70
 519 576 519 576 552 576 c 0,71,72
 609 576 609 576 655.5 552 c 128,-1,73
 702 528 702 528 710 479 c 0,74,75
 713 449 713 449 686 435.5 c 128,-1,76
 659 422 659 422 620 428 c 1,77,78
 627 466 627 466 604.5 496 c 128,-1,79
 582 526 582 526 541 526 c 0,40,41
EndSplineSet
EndChar
StartChar: ordfeminine
Encoding: 170 170 109
Width: 440
VWidth: 1507
Flags: W
HStem: 307 52<208.747 329.807> 529 51<253.125 357.164> 669 51<273.394 386.791>
VStem: 106 384<443 586 381.911 497.805>
Fore
265 359 m 256,0,1
 304 359 304 359 334.5 384.5 c 128,-1,2
 365 410 365 410 372 443 c 0,3,4
 380 478 380 478 360.5 503.5 c 128,-1,5
 341 529 341 529 301 529 c 256,6,7
 262 529 262 529 231 503.5 c 128,-1,8
 200 478 200 478 193 443 c 0,9,10
 185 410 185 410 205.5 384.5 c 128,-1,11
 226 359 226 359 265 359 c 256,0,1
312 580 m 0,12,13
 359 580 359 580 398 561 c 1,14,-1
 402 586 l 2,15,16
 410 620 410 620 389.5 644.5 c 128,-1,17
 369 669 369 669 332 669 c 0,18,19
 303 669 303 669 267.5 643.5 c 128,-1,20
 232 618 232 618 206 582 c 1,21,22
 182 600 182 600 177.5 623.5 c 128,-1,23
 173 647 173 647 187 662 c 0,24,25
 216 690 216 690 257 705 c 128,-1,26
 298 720 298 720 342 720 c 0,27,28
 374 720 374 720 403.5 710.5 c 128,-1,29
 433 701 433 701 454 683.5 c 128,-1,30
 475 666 475 666 485.5 641 c 128,-1,31
 496 616 496 616 490 586 c 2,32,-1
 442 356 l 2,33,34
 430 307 430 307 344 307 c 1,35,-1
 347 326 l 1,36,37
 306 307 306 307 255 307 c 0,38,39
 179 307 179 307 136 346.5 c 128,-1,40
 93 386 93 386 106 443 c 0,41,42
 112 470 112 470 130.5 495 c 128,-1,43
 149 520 149 520 177 539 c 128,-1,44
 205 558 205 558 239.5 569 c 128,-1,45
 274 580 274 580 312 580 c 0,12,13
EndSplineSet
EndChar
StartChar: logicalnot
Encoding: 172 172 111
Width: 633
VWidth: 1507
Flags: W
HStem: 181 237<576 618.312> 360 58<137.872 576>
Fore
675 418 m 1,0,-1
 638 235 l 2,1,2
 626 181 626 181 538 181 c 1,3,-1
 576 360 l 1,4,-1
 119 360 l 1,5,6
 133 418 133 418 199 418 c 2,7,-1
 675 418 l 1,0,-1
EndSplineSet
EndChar
StartChar: registered
Encoding: 174 174 112
Width: 853
VWidth: 1507
Flags: W
HStem: -9 54<330.442 546.759> 332 51<415 585.201> 517 50<443 622.117> 671 54<456.004 668.7>
Fore
570 383 m 2,0,1
 586 383 586 383 603.5 405.5 c 128,-1,2
 621 428 621 428 626 451 c 256,3,4
 630 473 630 473 622.5 495 c 128,-1,5
 615 517 615 517 598 517 c 2,6,-1
 443 517 l 1,7,-1
 415 383 l 1,8,-1
 570 383 l 2,0,1
374 185 m 2,9,10
 369 164 369 164 343.5 153 c 128,-1,11
 318 142 318 142 277 142 c 1,12,-1
 363 541 l 2,13,14
 366 552 366 552 378 559.5 c 128,-1,15
 390 567 390 567 411 567 c 2,16,-1
 609 567 l 2,17,18
 663 567 663 567 692.5 532 c 128,-1,19
 722 497 722 497 711 451 c 0,20,21
 707 427 707 427 687.5 401 c 128,-1,22
 668 375 668 375 641 357 c 1,23,24
 662 341 662 341 671.5 316 c 128,-1,25
 681 291 681 291 675 265 c 2,26,-1
 659 185 l 2,27,28
 654 164 654 164 627.5 153 c 128,-1,29
 601 142 601 142 561 142 c 1,30,-1
 588 265 l 2,31,32
 595 297 595 297 585.5 314.5 c 128,-1,33
 576 332 576 332 559 332 c 2,34,-1
 404 332 l 1,35,-1
 374 185 l 2,9,10
119 357 m 256,36,37
 136 434 136 434 179.5 501 c 128,-1,38
 223 568 223 568 285.5 618 c 128,-1,39
 348 668 348 668 423.5 696.5 c 128,-1,40
 499 725 499 725 579 725 c 256,41,42
 659 725 659 725 722 696.5 c 128,-1,43
 785 668 785 668 826.5 618 c 128,-1,44
 868 568 868 568 884 501 c 128,-1,45
 900 434 900 434 883 357 c 256,46,47
 867 280 867 280 822.5 214 c 128,-1,48
 778 148 778 148 716 98 c 128,-1,49
 654 48 654 48 578 19.5 c 128,-1,50
 502 -9 502 -9 422 -9 c 256,51,52
 342 -9 342 -9 279 19.5 c 128,-1,53
 216 48 216 48 175 98 c 128,-1,54
 134 148 134 148 118 214 c 128,-1,55
 102 280 102 280 119 357 c 256,36,37
208 356 m 256,56,57
 194 291 194 291 205 234.5 c 128,-1,58
 216 178 216 178 246.5 135.5 c 128,-1,59
 277 93 277 93 325.5 69 c 128,-1,60
 374 45 374 45 434 45 c 256,61,62
 494 45 494 45 552 69 c 128,-1,63
 610 93 610 93 659 135.5 c 128,-1,64
 708 178 708 178 743.5 234.5 c 128,-1,65
 779 291 779 291 793 356 c 256,66,67
 806 421 806 421 795 479 c 128,-1,68
 784 537 784 537 754 579 c 128,-1,69
 724 621 724 621 675.5 646 c 128,-1,70
 627 671 627 671 567 671 c 256,71,72
 506 671 506 671 448 646 c 128,-1,73
 390 621 390 621 341 579 c 128,-1,74
 292 537 292 537 257 479 c 128,-1,75
 222 421 222 421 208 356 c 256,56,57
EndSplineSet
EndChar
StartChar: macron
Encoding: 175 175 113
Width: 355
VWidth: 1507
Flags: W
HStem: 632 52<184 448 173 458 184 184>
Fore
173 632 m 1,0,-1
 184 684 l 1,1,-1
 458 684 l 1,2,-1
 448 632 l 1,3,-1
 173 632 l 1,0,-1
EndSplineSet
EndChar
StartChar: degree
Encoding: 176 176 114
Width: 355
VWidth: 1507
Flags: W
HStem: 448 49<232.201 323.597> 675 50<276.613 368.441>
VStem: 143 312<558 586 586 615 586 586 586 586>
Fore
143 586 m 256,0,1
 149 615 149 615 167 640.5 c 128,-1,2
 185 666 185 666 210 685 c 128,-1,3
 235 704 235 704 266 714.5 c 128,-1,4
 297 725 297 725 330 725 c 0,5,6
 395 725 395 725 431 684.5 c 128,-1,7
 467 644 467 644 455 586 c 0,8,9
 449 558 449 558 432 532 c 128,-1,10
 415 506 415 506 390 487.5 c 128,-1,11
 365 469 365 469 334 458.5 c 128,-1,12
 303 448 303 448 271 448 c 0,13,14
 238 448 238 448 211.5 458.5 c 128,-1,15
 185 469 185 469 168 487.5 c 128,-1,16
 151 506 151 506 144 532 c 128,-1,17
 137 558 137 558 143 586 c 256,0,1
217 586 m 256,18,19
 210 549 210 549 228.5 523 c 128,-1,20
 247 497 247 497 282 497 c 256,21,22
 317 497 317 497 346 523 c 128,-1,23
 375 549 375 549 383 586 c 256,24,25
 390 624 390 624 372 649.5 c 128,-1,26
 354 675 354 675 320 675 c 256,27,28
 285 675 285 675 255 649.5 c 128,-1,29
 225 624 225 624 217 586 c 256,18,19
EndSplineSet
EndChar
StartChar: plusminus
Encoding: 177 177 115
Width: 633
VWidth: 1507
Flags: W
HStem: 2 58<74.2059 573.794> 271 56<117.875 327 430 639.516>
Fore
327 271 m 1,0,-1
 101 271 l 1,1,2
 113 327 113 327 181 327 c 2,3,-1
 339 327 l 1,4,-1
 366 457 l 2,5,6
 378 512 378 512 469 512 c 1,7,-1
 430 327 l 1,8,-1
 657 327 l 1,9,10
 644 271 644 271 576 271 c 2,11,-1
 418 271 l 1,12,-1
 389 142 l 2,13,14
 378 86 378 86 288 86 c 1,15,-1
 327 271 l 1,0,-1
47 2 m 1,16,17
 51 27 51 27 73.5 43.5 c 128,-1,18
 96 60 96 60 130 60 c 2,19,-1
 603 60 l 1,20,21
 597 33 597 33 574.5 17.5 c 128,-1,22
 552 2 552 2 519 2 c 2,23,-1
 47 2 l 1,16,17
EndSplineSet
EndChar
StartChar: twosuperior
Encoding: 178 178 116
Width: 449
VWidth: 1507
Flags: W
HStem: 311 51<223 448.106> 671 49<321.885 417.209>
VStem: 128 387<335 594 335 335>
Fore
410 362 m 2,0,1
 436 362 436 362 448.5 349 c 128,-1,2
 461 336 461 336 455 311 c 1,3,-1
 164 311 l 2,4,5
 148 311 148 311 136.5 317 c 128,-1,6
 125 323 125 323 128 335 c 0,7,8
 139 383 139 383 185 428 c 128,-1,9
 231 473 231 473 307 503 c 0,10,11
 351 522 351 522 387.5 540.5 c 128,-1,12
 424 559 424 559 431 594 c 0,13,14
 439 624 439 624 419 647.5 c 128,-1,15
 399 671 399 671 365 671 c 0,16,17
 332 671 332 671 303 647.5 c 128,-1,18
 274 624 274 624 267 594 c 0,19,20
 265 589 265 589 265 584 c 128,-1,21
 265 579 265 579 264 567 c 1,22,23
 232 567 232 567 207 581 c 128,-1,24
 182 595 182 595 188 610 c 0,25,26
 199 635 199 635 219.5 655 c 128,-1,27
 240 675 240 675 265.5 690 c 128,-1,28
 291 705 291 705 319.5 712.5 c 128,-1,29
 348 720 348 720 375 720 c 0,30,31
 404 720 404 720 432.5 712 c 128,-1,32
 461 704 461 704 481.5 687.5 c 128,-1,33
 502 671 502 671 512 647.5 c 128,-1,34
 522 624 522 624 515 594 c 0,35,36
 511 568 511 568 493.5 548 c 128,-1,37
 476 528 476 528 450.5 512 c 128,-1,38
 425 496 425 496 394 482.5 c 128,-1,39
 363 469 363 469 332 457 c 0,40,41
 249 424 249 424 223 362 c 1,42,-1
 410 362 l 2,0,1
EndSplineSet
EndChar
StartChar: threesuperior
Encoding: 179 179 117
Width: 449
VWidth: 1507
Flags: W
HStem: 306 50<245.353 343.22> 505 50<318.33 381.887> 671 49<317.092 405.004>
VStem: 146 86<391.963 415 415 431 431.25 444.395>
Fore
214 632 m 0,0,1
 226 663 226 663 270.5 691.5 c 128,-1,2
 315 720 315 720 375 720 c 0,3,4
 434 720 434 720 471 688.5 c 128,-1,5
 508 657 508 657 499 613 c 0,6,7
 494 592 494 592 475.5 570.5 c 128,-1,8
 457 549 457 549 433 532 c 1,9,10
 458 514 458 514 473 487 c 128,-1,11
 488 460 488 460 481 431 c 0,12,13
 476 405 476 405 458 382 c 128,-1,14
 440 359 440 359 414.5 342.5 c 128,-1,15
 389 326 389 326 356 316 c 128,-1,16
 323 306 323 306 288 306 c 256,17,18
 253 306 253 306 225 316 c 128,-1,19
 197 326 197 326 179 341.5 c 128,-1,20
 161 357 161 357 152 376 c 128,-1,21
 143 395 143 395 146 415 c 0,22,23
 154 458 154 458 240 458 c 1,24,25
 237 451 237 451 236 445 c 128,-1,26
 235 439 235 439 232 431 c 1,27,28
 225 399 225 399 245 377.5 c 128,-1,29
 265 356 265 356 298 356 c 256,30,31
 332 356 332 356 359.5 377.5 c 128,-1,32
 387 399 387 399 395 431 c 0,33,34
 402 461 402 461 382.5 483 c 128,-1,35
 363 505 363 505 330 505 c 0,36,37
 314 505 314 505 301.5 512 c 128,-1,38
 289 519 289 519 292 529 c 0,39,40
 295 541 295 541 309.5 548 c 128,-1,41
 324 555 324 555 341 555 c 0,42,43
 366 555 366 555 387 572 c 128,-1,44
 408 589 408 589 413 613 c 256,45,46
 418 638 418 638 404 654.5 c 128,-1,47
 390 671 390 671 365 671 c 0,48,49
 341 671 341 671 319.5 654.5 c 128,-1,50
 298 638 298 638 294 613 c 2,51,52
 292 610 292 610 291.5 604 c 128,-1,53
 291 598 291 598 294 591 c 1,54,55
 255 585 255 585 228.5 595.5 c 128,-1,56
 202 606 202 606 214 632 c 0,0,1
EndSplineSet
EndChar
StartChar: acute
Encoding: 180 180 118
Width: 349
VWidth: 1507
Flags: W
HStem: 558 161<179 439 386 386>
Fore
295 690 m 2,0,1
 323 719 323 719 386 719 c 2,2,-1
 439 719 l 1,3,-1
 286 583 l 2,4,5
 267 568 267 568 243 563 c 128,-1,6
 219 558 219 558 179 558 c 1,7,-1
 295 690 l 2,0,1
EndSplineSet
EndChar
StartChar: mu
Encoding: 181 181 119
Width: 617
VWidth: 1507
Flags: W
HStem: -213 21G<46.2121 86.5> -9 56<244.892 375.784> 502 20G<242.5 283.81 593.5 633.738>
Fore
304 -9 m 256,0,1
 267 -9 267 -9 236.5 -0.5 c 128,-1,2
 206 8 206 8 182 23 c 1,3,-1
 145 -155 l 2,4,5
 131 -213 131 -213 42 -213 c 1,6,-1
 185 466 l 2,7,8
 197 522 197 522 288 522 c 1,9,-1
 213 164 l 2,10,11
 202 116 202 116 231.5 81.5 c 128,-1,12
 261 47 261 47 317 47 c 0,13,14
 374 47 374 47 418.5 81.5 c 128,-1,15
 463 116 463 116 473 164 c 2,16,-1
 537 466 l 2,17,18
 549 522 549 522 638 522 c 1,19,-1
 537 48 l 2,20,21
 525 -9 525 -9 436 -9 c 1,22,-1
 443 23 l 1,23,24
 413 8 413 8 377.5 -0.5 c 128,-1,25
 342 -9 342 -9 304 -9 c 256,0,1
EndSplineSet
EndChar
StartChar: paragraph
Encoding: 182 182 120
Width: 619
VWidth: 1507
Flags: W
HStem: 671 54<512 545.272 545.272 579>
Fore
511 -81 m 2,0,1
 505 -109 505 -109 478 -123 c 128,-1,2
 451 -137 451 -137 407 -137 c 1,3,-1
 579 671 l 1,4,-1
 512 671 l 1,5,-1
 353 -81 l 2,6,7
 347 -109 347 -109 319 -123 c 128,-1,8
 291 -137 291 -137 247 -137 c 1,9,-1
 335 270 l 1,10,11
 291 271 291 271 250.5 285.5 c 128,-1,12
 210 300 210 300 181 327 c 128,-1,13
 152 354 152 354 138.5 393.5 c 128,-1,14
 125 433 125 433 137 485 c 0,15,16
 146 526 146 526 168.5 569 c 128,-1,17
 191 612 191 612 235 646.5 c 128,-1,18
 279 681 279 681 346 703 c 128,-1,19
 413 725 413 725 511 725 c 0,20,21
 562 725 562 725 609.5 722 c 128,-1,22
 657 719 657 719 680 714 c 1,23,-1
 511 -81 l 2,0,1
EndSplineSet
EndChar
StartChar: periodcentered
Encoding: 183 183 121
Width: 376
VWidth: 1507
Flags: W
HStem: 199 200<195.67 305.977>
VStem: 136 230<254.202 345.208>
Fore
136 298 m 0,0,1
 143 341 143 341 184 370 c 128,-1,2
 225 399 225 399 273 399 c 256,3,4
 321 399 321 399 347.5 370 c 128,-1,5
 374 341 374 341 366 298 c 0,6,7
 357 258 357 258 318 228.5 c 128,-1,8
 279 199 279 199 231 199 c 256,9,10
 182 199 182 199 154.5 228.5 c 128,-1,11
 127 258 127 258 136 298 c 0,0,1
EndSplineSet
EndChar
StartChar: cedilla
Encoding: 184 184 122
Width: 293
VWidth: 1507
Flags: W
HStem: -210 47<40.5087 114.581>
VStem: 3 229<-165 -116 -165 -116 -165 -165>
Fore
232 -116 m 0,0,1
 228 -139 228 -139 212.5 -156 c 128,-1,2
 197 -173 197 -173 177 -185 c 128,-1,3
 157 -197 157 -197 132 -203.5 c 128,-1,4
 107 -210 107 -210 84 -210 c 0,5,6
 41 -210 41 -210 17 -193 c 0,7,8
 3 -181 3 -181 3 -165 c 128,-1,9
 3 -149 3 -149 24 -127 c 1,10,11
 62 -163 62 -163 95 -163 c 0,12,13
 109 -163 109 -163 124 -152.5 c 128,-1,14
 139 -142 139 -142 142 -124 c 0,15,16
 148 -99 148 -99 117 -89.5 c 128,-1,17
 86 -80 86 -80 45 -83 c 1,18,-1
 133 17 l 1,19,-1
 208 17 l 1,20,-1
 155 -42 l 1,21,22
 194 -47 194 -47 216 -68 c 128,-1,23
 238 -89 238 -89 232 -116 c 0,0,1
EndSplineSet
EndChar
StartChar: onesuperior
Encoding: 185 185 123
Width: 449
VWidth: 1507
Flags: W
HStem: 306 410<347 356 271 396 396 396> 665 51<304.926 347>
VStem: 271 166<306 687 181 306>
Fore
396 716 m 1,0,1
 418 716 418 716 429 707.5 c 128,-1,2
 440 699 440 699 437 687 c 2,3,-1
 368 360 l 2,4,5
 356 306 356 306 271 306 c 1,6,-1
 347 665 l 1,7,8
 318 665 318 665 304.5 679 c 128,-1,9
 291 693 291 693 295 716 c 1,10,-1
 396 716 l 1,0,1
EndSplineSet
EndChar
StartChar: ordmasculine
Encoding: 186 186 124
Width: 473
VWidth: 1507
Flags: W
HStem: 307 52<230.366 346.658> 669 51<309.408 418.417>
VStem: 107 445<472 512 512 555 512 512 512 512>
Fore
107 512 m 0,0,1
 116 555 116 555 141.5 593.5 c 128,-1,2
 167 632 167 632 202.5 659.5 c 128,-1,3
 238 687 238 687 282 703.5 c 128,-1,4
 326 720 326 720 371 720 c 0,5,6
 418 720 418 720 455.5 703.5 c 128,-1,7
 493 687 493 687 518 659.5 c 128,-1,8
 543 632 543 632 552 593.5 c 128,-1,9
 561 555 561 555 552 512 c 0,10,11
 543 472 543 472 517 434 c 128,-1,12
 491 396 491 396 455 368.5 c 128,-1,13
 419 341 419 341 374.5 324 c 128,-1,14
 330 307 330 307 283 307 c 0,15,16
 238 307 238 307 201 324 c 128,-1,17
 164 341 164 341 141 368.5 c 128,-1,18
 118 396 118 396 108 434 c 128,-1,19
 98 472 98 472 107 512 c 0,0,1
193 512 m 0,20,21
 179 448 179 448 209.5 403.5 c 128,-1,22
 240 359 240 359 294 359 c 0,23,24
 323 359 323 359 350.5 371 c 128,-1,25
 378 383 378 383 401.5 403.5 c 128,-1,26
 425 424 425 424 441.5 452.5 c 128,-1,27
 458 481 458 481 466 512 c 0,28,29
 472 546 472 546 467.5 574.5 c 128,-1,30
 463 603 463 603 448.5 624 c 128,-1,31
 434 645 434 645 411.5 657 c 128,-1,32
 389 669 389 669 360 669 c 0,33,34
 333 669 333 669 306 657 c 128,-1,35
 279 645 279 645 256.5 624 c 128,-1,36
 234 603 234 603 216.5 574.5 c 128,-1,37
 199 546 199 546 193 512 c 0,20,21
EndSplineSet
EndChar
StartChar: onequarter
Encoding: 188 188 126
Width: 884
VWidth: 1507
Flags: W
HStem: -5 21G<687.2 726> 95 51<597 704 800 852.689> 665 51<311.41 353>
Fore
404 716 m 2,0,1
 425 716 425 716 436.5 707.5 c 128,-1,2
 448 699 448 699 445 687 c 2,3,-1
 375 360 l 2,4,5
 363 306 363 306 277 306 c 1,6,-1
 353 665 l 1,7,8
 324 665 324 665 311 679 c 128,-1,9
 298 693 298 693 303 716 c 1,10,-1
 404 716 l 2,0,1
865 146 m 1,11,12
 855 95 855 95 799 95 c 2,13,-1
 790 95 l 1,14,-1
 778 39 l 2,15,16
 769 -5 769 -5 683 -5 c 1,17,-1
 704 95 l 1,18,-1
 525 95 l 2,19,20
 503 95 503 95 493.5 108.5 c 128,-1,21
 484 122 484 122 499 137 c 2,22,-1
 770 390 l 2,23,24
 785 402 785 402 799.5 407.5 c 128,-1,25
 814 413 814 413 826 412 c 128,-1,26
 838 411 838 411 845 403.5 c 128,-1,27
 852 396 852 396 850 383 c 2,28,-1
 800 146 l 1,29,-1
 865 146 l 1,11,12
714 146 m 1,30,-1
 743 282 l 1,31,32
 707 247 707 247 671 214 c 128,-1,33
 635 181 635 181 597 146 c 1,34,-1
 714 146 l 1,30,-1
730 724 m 2,35,36
 751 751 751 751 778 757.5 c 128,-1,37
 805 764 805 764 838 745 c 1,38,-1
 304 -2 l 2,39,40
 261 -63 261 -63 197 -23 c 1,41,-1
 730 724 l 2,35,36
EndSplineSet
Ligature2: "'frac' Diagonal Fractions in Latin lookup 0 subtable" one fraction four
Ligature2: "'frac' Diagonal Fractions in Latin lookup 0 subtable" one slash four
EndChar
StartChar: onehalf
Encoding: 189 189 127
Width: 884
VWidth: 1507
Flags: W
HStem: 0 51<583 815.507> 360 50<682.888 778.049> 665 51<311.41 353>
Fore
404 716 m 2,0,1
 425 716 425 716 436.5 707.5 c 128,-1,2
 448 699 448 699 445 687 c 2,3,-1
 375 360 l 2,4,5
 363 306 363 306 277 306 c 1,6,-1
 353 665 l 1,7,8
 324 665 324 665 311 679 c 128,-1,9
 298 693 298 693 303 716 c 1,10,-1
 404 716 l 2,0,1
770 51 m 2,11,12
 826 51 826 51 817 0 c 1,13,-1
 528 0 l 2,14,15
 511 0 511 0 499 6 c 128,-1,16
 487 12 487 12 490 24 c 0,17,18
 500 72 500 72 545.5 117.5 c 128,-1,19
 591 163 591 163 669 193 c 0,20,21
 713 211 713 211 748.5 230 c 128,-1,22
 784 249 784 249 791 282 c 0,23,24
 799 312 799 312 780 336 c 128,-1,25
 761 360 761 360 727 360 c 256,26,27
 692 360 692 360 663.5 336 c 128,-1,28
 635 312 635 312 627 282 c 1,29,30
 627 279 627 279 626.5 273.5 c 128,-1,31
 626 268 626 268 626 256 c 1,32,33
 595 256 595 256 569.5 270.5 c 128,-1,34
 544 285 544 285 550 298 c 0,35,36
 561 324 561 324 580.5 344.5 c 128,-1,37
 600 365 600 365 625.5 380 c 128,-1,38
 651 395 651 395 680.5 402.5 c 128,-1,39
 710 410 710 410 737 410 c 0,40,41
 766 410 766 410 793.5 401.5 c 128,-1,42
 821 393 821 393 841.5 376.5 c 128,-1,43
 862 360 862 360 872 336 c 128,-1,44
 882 312 882 312 876 282 c 0,45,46
 865 232 865 232 811.5 200.5 c 128,-1,47
 758 169 758 169 693 145 c 0,48,49
 653 128 653 128 624 104.5 c 128,-1,50
 595 81 595 81 583 51 c 1,51,-1
 770 51 l 2,11,12
730 724 m 2,52,53
 751 751 751 751 778 757.5 c 128,-1,54
 805 764 805 764 838 745 c 1,55,-1
 304 -2 l 2,56,57
 261 -63 261 -63 197 -23 c 1,58,-1
 730 724 l 2,52,53
EndSplineSet
Ligature2: "'frac' Diagonal Fractions in Latin lookup 0 subtable" one fraction two
Ligature2: "'frac' Diagonal Fractions in Latin lookup 0 subtable" one slash two
EndChar
StartChar: threequarters
Encoding: 190 190 128
Width: 884
VWidth: 1507
Flags: W
HStem: -5 21G<687.2 726> 95 51<597 704 800 852.689> 306 50<251.357 366.023> 505 50<325.747 389.887> 671 49<322.638 412.722>
VStem: 154 84<391.963 415 415 431 431.25 444.395>
Fore
865 146 m 1,0,1
 855 95 855 95 799 95 c 2,2,-1
 790 95 l 1,3,-1
 778 39 l 2,4,5
 769 -5 769 -5 683 -5 c 1,6,-1
 704 95 l 1,7,-1
 525 95 l 2,8,9
 503 95 503 95 493.5 108.5 c 128,-1,10
 484 122 484 122 499 137 c 2,11,-1
 770 390 l 2,12,13
 799 415 799 415 825.5 411.5 c 128,-1,14
 852 408 852 408 850 383 c 1,15,-1
 800 146 l 1,16,-1
 865 146 l 1,0,1
714 146 m 1,17,-1
 743 282 l 1,18,19
 707 247 707 247 671 214 c 128,-1,20
 635 181 635 181 597 146 c 1,21,-1
 714 146 l 1,17,-1
222 632 m 0,22,23
 234 663 234 663 277.5 691.5 c 128,-1,24
 321 720 321 720 383 720 c 0,25,26
 442 720 442 720 478 688.5 c 128,-1,27
 514 657 514 657 505 613 c 0,28,29
 500 592 500 592 481.5 570.5 c 128,-1,30
 463 549 463 549 440 532 c 1,31,32
 466 514 466 514 480 487 c 128,-1,33
 494 460 494 460 487 431 c 0,34,35
 476 378 476 378 421 342 c 128,-1,36
 366 306 366 306 295 306 c 0,37,38
 261 306 261 306 233 316 c 128,-1,39
 205 326 205 326 187 341.5 c 128,-1,40
 169 357 169 357 160 376 c 128,-1,41
 151 395 151 395 154 415 c 0,42,43
 161 458 161 458 246 458 c 1,44,45
 243 451 243 451 242 445 c 128,-1,46
 241 439 241 439 238 431 c 1,47,48
 231 399 231 399 251 377.5 c 128,-1,49
 271 356 271 356 306 356 c 0,50,51
 339 356 339 356 367 377.5 c 128,-1,52
 395 399 395 399 402 431 c 0,53,54
 410 461 410 461 390.5 483 c 128,-1,55
 371 505 371 505 338 505 c 0,56,57
 321 505 321 505 308 512 c 128,-1,58
 295 519 295 519 298 529 c 0,59,60
 301 541 301 541 316.5 548 c 128,-1,61
 332 555 332 555 348 555 c 0,62,63
 374 555 374 555 395 572 c 128,-1,64
 416 589 416 589 421 613 c 256,65,66
 425 638 425 638 411.5 654.5 c 128,-1,67
 398 671 398 671 372 671 c 256,68,69
 347 671 347 671 325.5 654.5 c 128,-1,70
 304 638 304 638 300 613 c 2,71,72
 298 610 298 610 297.5 604 c 128,-1,73
 297 598 297 598 300 591 c 1,74,75
 280 588 280 588 263.5 589.5 c 128,-1,76
 247 591 247 591 236 596 c 128,-1,77
 225 601 225 601 220.5 610.5 c 128,-1,78
 216 620 216 620 222 632 c 0,22,23
730 724 m 2,79,80
 751 751 751 751 778 757.5 c 128,-1,81
 805 764 805 764 838 745 c 1,82,-1
 304 -2 l 2,83,84
 261 -63 261 -63 197 -23 c 1,85,-1
 730 724 l 2,79,80
EndSplineSet
Ligature2: "'frac' Diagonal Fractions in Latin lookup 0 subtable" three fraction four
Ligature2: "'frac' Diagonal Fractions in Latin lookup 0 subtable" three slash four
EndChar
StartChar: questiondown
Encoding: 191 191 129
Width: 533
VWidth: 1507
Flags: W
HStem: -213 58<168.654 312.609> 404 118<326.298 411.217>
VStem: 295 148<446.952 509.676>
Fore
291 309 m 2,0,1
 304 369 304 369 396 369 c 1,2,-1
 377 279 l 2,3,4
 365 226 365 226 327 192 c 128,-1,5
 289 158 289 158 249 128 c 0,6,7
 211 102 211 102 178.5 71.5 c 128,-1,8
 146 41 146 41 134 -12 c 0,9,10
 121 -75 121 -75 151 -115 c 128,-1,11
 181 -155 181 -155 238 -155 c 0,12,13
 294 -155 294 -155 342 -116 c 128,-1,14
 390 -77 390 -77 404 -12 c 0,15,16
 407 -2 407 -2 407.5 4.5 c 128,-1,17
 408 11 408 11 408 20 c 1,18,19
 443 20 443 20 467 1 c 128,-1,20
 491 -18 491 -18 488 -41 c 1,21,22
 472 -77 472 -77 445.5 -108 c 128,-1,23
 419 -139 419 -139 384.5 -162 c 128,-1,24
 350 -185 350 -185 309 -199 c 128,-1,25
 268 -213 268 -213 226 -213 c 0,26,27
 181 -213 181 -213 142.5 -199 c 128,-1,28
 104 -185 104 -185 78.5 -159 c 128,-1,29
 53 -133 53 -133 42.5 -96 c 128,-1,30
 32 -59 32 -59 42 -12 c 0,31,32
 56 54 56 54 99.5 95 c 128,-1,33
 143 136 143 136 190 169 c 0,34,35
 225 191 225 191 250.5 215.5 c 128,-1,36
 276 240 276 240 285 279 c 2,37,-1
 291 309 l 2,0,1
443 464 m 0,38,39
 437 439 437 439 412 421.5 c 128,-1,40
 387 404 387 404 356 404 c 0,41,42
 326 404 326 404 307.5 421.5 c 128,-1,43
 289 439 289 439 295 464 c 0,44,45
 300 488 300 488 325.5 505 c 128,-1,46
 351 522 351 522 381 522 c 0,47,48
 413 522 413 522 430.5 505 c 128,-1,49
 448 488 448 488 443 464 c 0,38,39
EndSplineSet
EndChar
StartChar: AE
Encoding: 198 198 135
Width: 939
VWidth: 1507
Flags: W
HStem: 0 60<635 914.548> 232 60<333 552> 330 60<666 941.053> 659 58<690 1043.97>
Fore
615 717 m 1,0,-1
 989 717 l 2,1,2
 1060 717 1060 717 1046 659 c 1,3,-1
 690 659 l 1,4,-1
 666 390 l 1,5,-1
 962 390 l 1,6,7
 948 330 948 330 876 330 c 2,8,-1
 660 330 l 1,9,-1
 635 60 l 1,10,-1
 935 60 l 1,11,12
 921 0 921 0 852 0 c 2,13,-1
 528 0 l 1,14,-1
 552 232 l 1,15,-1
 279 232 l 1,16,17
 226 172 226 172 169.5 107 c 128,-1,18
 113 42 113 42 60 -17 c 1,19,20
 30 -3 30 -3 25.5 22.5 c 128,-1,21
 21 48 21 48 42 74 c 2,22,-1
 615 717 l 1,0,-1
588 585 m 1,23,-1
 333 292 l 1,24,-1
 559 292 l 1,25,-1
 588 585 l 1,23,-1
EndSplineSet
EndChar
StartChar: Eth
Encoding: 208 208 145
Width: 759
VWidth: 1507
Flags: W
HStem: 3 60<197 480.749> 332 57<86.396 416.08> 662 58<324 600.936>
Fore
68 332 m 1,0,1
 81 389 81 389 148 389 c 2,2,-1
 434 389 l 1,3,4
 422 332 422 332 354 332 c 2,5,-1
 68 332 l 1,0,1
540 720 m 2,6,7
 592 720 592 720 642 704.5 c 128,-1,8
 692 689 692 689 728 659.5 c 128,-1,9
 764 630 764 630 782 585.5 c 128,-1,10
 800 541 800 541 788 485 c 2,11,-1
 736 240 l 2,12,13
 724 185 724 185 688.5 141.5 c 128,-1,14
 653 98 653 98 604.5 67 c 128,-1,15
 556 36 556 36 499 19.5 c 128,-1,16
 442 3 442 3 387 3 c 2,17,-1
 137 3 l 2,18,19
 116 3 116 3 104 13 c 128,-1,20
 92 23 92 23 95 36 c 2,21,-1
 234 687 l 2,22,23
 237 702 237 702 252.5 711 c 128,-1,24
 268 720 268 720 289 720 c 2,25,-1
 540 720 l 2,6,7
324 662 m 1,26,-1
 197 63 l 1,27,-1
 399 63 l 2,28,29
 442 63 442 63 482 77.5 c 128,-1,30
 522 92 522 92 555 115.5 c 128,-1,31
 588 139 588 139 611.5 171 c 128,-1,32
 635 203 635 203 642 240 c 2,33,-1
 695 485 l 2,34,35
 702 522 702 522 692.5 554 c 128,-1,36
 683 586 683 586 659.5 609.5 c 128,-1,37
 636 633 636 633 602 647.5 c 128,-1,38
 568 662 568 662 526 662 c 2,39,-1
 324 662 l 1,26,-1
EndSplineSet
EndChar
StartChar: multiply
Encoding: 215 215 152
Width: 633
VWidth: 1507
Flags: W
HStem: 113 389.5<237.5 472 237.5 237.5>
Fore
552 482 m 2,0,1
 609 529 609 529 648 481 c 1,2,-1
 425 297 l 1,3,-1
 571 115 l 1,4,5
 509 69 509 69 472 113 c 2,6,-1
 365 247 l 1,7,-1
 202 113 l 2,8,9
 145 68 145 68 106 115 c 1,10,-1
 326 297 l 1,11,-1
 182 481 l 1,12,13
 211 502 211 502 237.5 502.5 c 128,-1,14
 264 503 264 503 282 482 c 2,15,-1
 386 347 l 1,16,-1
 552 482 l 2,0,1
EndSplineSet
EndChar
StartChar: Thorn
Encoding: 222 222 159
Width: 625
VWidth: 1507
Flags: W
HStem: -9 21G<88.2857 106> 173 58<232 245.701 245.701 250.703 250.703 294.515 294.515 426.123> 546 53.5<341.175 391.881 366.528 481.888> 705 20G<314 331.538>
Fore
654 402 m 0,0,1
 642 350 642 350 611 307.5 c 128,-1,2
 580 265 580 265 534 235 c 128,-1,3
 488 205 488 205 428 189 c 128,-1,4
 368 173 368 173 300 173 c 0,5,6
 260 173 l 128,-1,7
 240 173 240 173 219 176 c 1,8,-1
 193 53 l 2,9,10
 185 23 185 23 156.5 7 c 128,-1,11
 128 -9 128 -9 84 -9 c 1,12,-1
 228 663 l 2,13,14
 234 692 234 692 263 708.5 c 128,-1,15
 292 725 292 725 336 725 c 1,16,-1
 307 595 l 1,17,18
 335 598 335 598 365.5 599.5 c 128,-1,19
 396 601 396 601 418 601 c 0,20,21
 564 601 564 601 620 537 c 0,22,23
 645 506 645 506 653.5 471.5 c 128,-1,24
 662 437 662 437 654 402 c 0,0,1
559 395 m 0,25,26
 568 437 568 437 559 465.5 c 128,-1,27
 550 494 550 494 528 512.5 c 128,-1,28
 506 531 506 531 474 538.5 c 128,-1,29
 442 546 442 546 405 546 c 256,30,31
 369 546 369 546 336 542 c 128,-1,32
 303 538 303 538 283 532 c 1,33,-1
 295 535 l 1,34,-1
 232 237 l 1,35,36
 253 234 253 234 274 232.5 c 128,-1,37
 295 231 295 231 315 231 c 0,38,39
 416 231 416 231 479.5 274.5 c 128,-1,40
 543 318 543 318 559 395 c 0,25,26
EndSplineSet
EndChar
StartChar: uni00DF
Encoding: 223 223 160
Width: 589
VWidth: 1507
Flags: W
HStem: -9 54<304.207 398.388> 357 53<326 413.699> 671 54<360.504 474.183>
Fore
200 532 m 2,0,1
 219 620 219 620 277.5 672.5 c 128,-1,2
 336 725 336 725 436 725 c 0,3,4
 522 725 522 725 561.5 674 c 128,-1,5
 601 623 601 623 585 543 c 0,6,7
 564 445 564 445 460 393 c 1,8,9
 522 368 522 368 546.5 319.5 c 128,-1,10
 571 271 571 271 556 203 c 0,11,12
 535 104 535 104 475.5 47.5 c 128,-1,13
 416 -9 416 -9 323 -9 c 0,14,15
 303 -9 303 -9 289.5 -7 c 128,-1,16
 276 -5 276 -5 268 -2 c 1,17,18
 250 11 250 11 246.5 30.5 c 128,-1,19
 243 50 243 50 262 75 c 1,20,21
 282 63 282 63 303 54 c 128,-1,22
 324 45 324 45 339 45 c 0,23,24
 430 45 430 45 461 196 c 0,25,26
 479 283 479 283 442 320 c 128,-1,27
 405 357 405 357 315 357 c 1,28,-1
 326 410 l 1,29,30
 390 413 390 413 431.5 442.5 c 128,-1,31
 473 472 473 472 488 546 c 0,32,33
 500 604 500 604 483 637.5 c 128,-1,34
 466 671 466 671 413 671 c 0,35,36
 386 671 386 671 366.5 659 c 128,-1,37
 347 647 347 647 332.5 628 c 128,-1,38
 318 609 318 609 309 585 c 128,-1,39
 300 561 300 561 295 537 c 2,40,-1
 166 -75 l 2,41,42
 152 -137 152 -137 57 -137 c 1,43,-1
 200 532 l 2,0,1
EndSplineSet
EndChar
StartChar: ae
Encoding: 230 230 167
Width: 925
VWidth: 1507
Flags: W
HStem: -9 56<211.305 369.492 564.871 693.851> 265 55<299.595 464 567 826> 467 55<306.13 426.033 647.407 798.926>
Fore
476 320 m 1,0,-1
 482 350 l 2,1,2
 487 372 487 372 481.5 394 c 128,-1,3
 476 416 476 416 461 432 c 128,-1,4
 446 448 446 448 425 457.5 c 128,-1,5
 404 467 404 467 377 467 c 0,6,7
 335 467 335 467 289 434.5 c 128,-1,8
 243 402 243 402 210 354 c 1,9,10
 187 375 187 375 182.5 403 c 128,-1,11
 178 431 178 431 196 449 c 0,12,13
 232 482 232 482 283.5 502 c 128,-1,14
 335 522 335 522 389 522 c 0,15,16
 437 522 437 522 482.5 504.5 c 128,-1,17
 528 487 528 487 552 455 c 1,18,19
 586 485 586 485 635 503.5 c 128,-1,20
 684 522 684 522 739 522 c 0,21,22
 784 522 784 522 821.5 508 c 128,-1,23
 859 494 859 494 884 471 c 128,-1,24
 909 448 909 448 919.5 416 c 128,-1,25
 930 384 930 384 922 348 c 2,26,-1
 910 294 l 2,27,28
 907 282 907 282 891.5 273.5 c 128,-1,29
 876 265 876 265 859 265 c 2,30,-1
 555 265 l 1,31,-1
 532 163 l 2,32,33
 523 116 523 116 551.5 81.5 c 128,-1,34
 580 47 580 47 638 47 c 0,35,36
 666 47 666 47 691.5 56.5 c 128,-1,37
 717 66 717 66 738.5 82.5 c 128,-1,38
 760 99 760 99 774 121 c 128,-1,39
 788 143 788 143 793 167 c 1,40,41
 806 167 806 167 820.5 162 c 128,-1,42
 835 157 835 157 845.5 148 c 128,-1,43
 856 139 856 139 859 126 c 128,-1,44
 862 113 862 113 852 98 c 0,45,46
 818 50 818 50 758 20.5 c 128,-1,47
 698 -9 698 -9 626 -9 c 0,48,49
 571 -9 571 -9 529.5 10 c 128,-1,50
 488 29 488 29 467 59 c 1,51,52
 428 24 428 24 377 7.5 c 128,-1,53
 326 -9 326 -9 276 -9 c 0,54,55
 229 -9 229 -9 191.5 3 c 128,-1,56
 154 15 154 15 129 37 c 128,-1,57
 104 59 104 59 93.5 89 c 128,-1,58
 83 119 83 119 90 155 c 256,59,60
 98 191 98 191 122 221.5 c 128,-1,61
 146 252 146 252 180 273.5 c 128,-1,62
 214 295 214 295 257 307.5 c 128,-1,63
 300 320 300 320 347 320 c 2,64,-1
 476 320 l 1,0,-1
335 265 m 2,65,66
 277 265 277 265 233.5 234 c 128,-1,67
 190 203 190 203 179 155 c 0,68,69
 170 109 170 109 200.5 78 c 128,-1,70
 231 47 231 47 288 47 c 0,71,72
 344 47 344 47 388.5 81.5 c 128,-1,73
 433 116 433 116 442 163 c 2,74,-1
 464 265 l 1,75,-1
 335 265 l 2,65,66
567 320 m 1,76,-1
 826 320 l 1,77,-1
 832 348 l 2,78,79
 843 396 843 396 813.5 431.5 c 128,-1,80
 784 467 784 467 727 467 c 0,81,82
 672 467 672 467 627.5 431.5 c 128,-1,83
 583 396 583 396 573 348 c 2,84,-1
 567 320 l 1,76,-1
EndSplineSet
EndChar
StartChar: eth
Encoding: 240 240 177
Width: 660
VWidth: 1507
Flags: W
HStem: -9 54<264.926 413.11> 469 53<342.334 488.116>
Fore
276 540 m 1,0,1
 262 597 262 597 321 623 c 2,2,-1
 408 659 l 1,3,4
 383 677 383 677 356.5 690.5 c 128,-1,5
 330 704 330 704 304 716 c 1,6,-1
 344 772 l 1,7,8
 390 752 390 752 428.5 732.5 c 128,-1,9
 467 713 467 713 493 693 c 1,10,-1
 654 763 l 1,11,12
 662 734 662 734 649 713 c 128,-1,13
 636 692 636 692 607 680 c 2,14,-1
 543 653 l 1,15,16
 580 613 580 613 609 568 c 128,-1,17
 638 523 638 523 653 472 c 0,18,19
 680 380 680 380 657 270 c 0,20,21
 641 197 641 197 605.5 144.5 c 128,-1,22
 570 92 570 92 523 58 c 128,-1,23
 476 24 476 24 423.5 7.5 c 128,-1,24
 371 -9 371 -9 321 -9 c 0,25,26
 262 -9 262 -9 217 10.5 c 128,-1,27
 172 30 172 30 145 64.5 c 128,-1,28
 118 99 118 99 108.5 146.5 c 128,-1,29
 99 194 99 194 112 249 c 0,30,31
 125 312 125 312 159 362.5 c 128,-1,32
 193 413 193 413 238 448.5 c 128,-1,33
 283 484 283 484 336 503 c 128,-1,34
 389 522 389 522 439 522 c 0,35,36
 473 522 473 522 503.5 513.5 c 128,-1,37
 534 505 534 505 559 490 c 1,38,39
 528 565 528 565 464 620 c 1,40,-1
 276 540 l 1,0,1
559 262 m 256,41,42
 571 317 571 317 567.5 353 c 128,-1,43
 564 389 564 389 549 411 c 1,44,45
 528 433 528 433 499 451 c 128,-1,46
 470 469 470 469 428 469 c 0,47,48
 381 469 381 469 342.5 448.5 c 128,-1,49
 304 428 304 428 275 396.5 c 128,-1,50
 246 365 246 365 227 326.5 c 128,-1,51
 208 288 208 288 200 250 c 0,52,53
 190 200 190 200 197.5 162 c 128,-1,54
 205 124 205 124 224 98 c 128,-1,55
 243 72 243 72 271.5 58.5 c 128,-1,56
 300 45 300 45 332 45 c 0,57,58
 369 45 369 45 405.5 58.5 c 128,-1,59
 442 72 442 72 472 99.5 c 128,-1,60
 502 127 502 127 524.5 167.5 c 128,-1,61
 547 208 547 208 559 262 c 256,41,42
EndSplineSet
EndChar
StartChar: divide
Encoding: 247 247 184
Width: 633
VWidth: 1507
Flags: W
HStem: 66 116<298.782 383.702> 270 59<129.206 626.279> 416 116<373.782 457.702>
Fore
656 329 m 1,0,1
 650 301 650 301 627 285.5 c 128,-1,2
 604 270 604 270 571 270 c 2,3,-1
 101 270 l 1,4,5
 106 295 106 295 128.5 312 c 128,-1,6
 151 329 151 329 184 329 c 2,7,-1
 656 329 l 1,0,1
342 473 m 0,8,9
 348 497 348 497 373 514.5 c 128,-1,10
 398 532 398 532 428 532 c 256,11,12
 458 532 458 532 476 514.5 c 128,-1,13
 494 497 494 497 488 473 c 0,14,15
 484 451 484 451 458.5 433.5 c 128,-1,16
 433 416 433 416 402 416 c 256,17,18
 372 416 372 416 355 433.5 c 128,-1,19
 338 451 338 451 342 473 c 0,8,9
268 124 m 0,20,21
 273 148 273 148 298 165 c 128,-1,22
 323 182 323 182 353 182 c 256,23,24
 383 182 383 182 401 165 c 128,-1,25
 419 148 419 148 415 124 c 0,26,27
 410 101 410 101 384.5 83.5 c 128,-1,28
 359 66 359 66 329 66 c 256,29,30
 298 66 298 66 281 83.5 c 128,-1,31
 264 101 264 101 268 124 c 0,20,21
EndSplineSet
EndChar
StartChar: oslash
Encoding: 248 248 185
Width: 679
VWidth: 1507
Flags: W
HStem: -6 56<277.976 432.18> 470 55<356.11 510.02>
Fore
532 517 m 2,0,1
 577 574 577 574 641 538 c 1,2,-1
 253 -5 l 2,3,4
 232 -32 232 -32 203.5 -38 c 128,-1,5
 175 -44 175 -44 143 -26 c 1,6,-1
 532 517 l 2,0,1
115 259 m 0,7,8
 125 314 125 314 157.5 362 c 128,-1,9
 190 410 190 410 235 446 c 128,-1,10
 280 482 280 482 335 503.5 c 128,-1,11
 390 525 390 525 449 525 c 256,12,13
 508 525 508 525 554.5 503.5 c 128,-1,14
 601 482 601 482 631.5 446 c 128,-1,15
 662 410 662 410 674 362 c 128,-1,16
 686 314 686 314 675 259 c 0,17,18
 663 203 663 203 630.5 155 c 128,-1,19
 598 107 598 107 552 71 c 128,-1,20
 506 35 506 35 450.5 14.5 c 128,-1,21
 395 -6 395 -6 336 -6 c 256,22,23
 277 -6 277 -6 231 14.5 c 128,-1,24
 185 35 185 35 155 71 c 128,-1,25
 125 107 125 107 113.5 155 c 128,-1,26
 102 203 102 203 115 259 c 0,7,8
203 259 m 256,27,28
 194 216 194 216 201 177.5 c 128,-1,29
 208 139 208 139 227.5 110 c 128,-1,30
 247 81 247 81 278 65.5 c 128,-1,31
 309 50 309 50 348 50 c 256,32,33
 387 50 387 50 425.5 65.5 c 128,-1,34
 464 81 464 81 496.5 110 c 128,-1,35
 529 139 529 139 552.5 177.5 c 128,-1,36
 576 216 576 216 585 259 c 256,37,38
 594 303 594 303 587 341.5 c 128,-1,39
 580 380 580 380 560 408.5 c 128,-1,40
 540 437 540 437 508 453.5 c 128,-1,41
 476 470 476 470 437 470 c 256,42,43
 398 470 398 470 360.5 453.5 c 128,-1,44
 323 437 323 437 291 408.5 c 128,-1,45
 259 380 259 380 236 341.5 c 128,-1,46
 213 303 213 303 203 259 c 256,27,28
EndSplineSet
EndChar
StartChar: thorn
Encoding: 254 254 191
Width: 617
VWidth: 1507
Flags: W
HStem: -213 21G<46.2452 66> -9 56<244.892 396.281> 467 55<326.534 478.387> 705 20G<286.5 327.612>
Fore
213 164 m 2,0,1
 202 116 202 116 231.5 81.5 c 128,-1,2
 261 47 261 47 317 47 c 0,3,4
 374 47 374 47 418.5 81.5 c 128,-1,5
 463 116 463 116 473 164 c 2,6,-1
 512 350 l 2,7,8
 523 396 523 396 493 431.5 c 128,-1,9
 463 467 463 467 405 467 c 0,10,11
 350 467 350 467 306 431.5 c 128,-1,12
 262 396 262 396 252 350 c 2,13,-1
 213 164 l 2,0,1
304 -9 m 0,14,15
 267 -9 267 -9 236.5 -0.5 c 128,-1,16
 206 8 206 8 182 23 c 1,17,-1
 143 -161 l 2,18,19
 137 -185 137 -185 113.5 -199 c 128,-1,20
 90 -213 90 -213 42 -213 c 1,21,-1
 229 668 l 2,22,23
 241 725 241 725 332 725 c 1,24,-1
 280 488 l 1,25,26
 344 522 344 522 418 522 c 0,27,28
 464 522 464 522 501 508 c 128,-1,29
 538 494 538 494 563 471.5 c 128,-1,30
 588 449 588 449 598.5 417.5 c 128,-1,31
 609 386 609 386 601 350 c 2,32,-1
 562 164 l 2,33,34
 555 128 555 128 530.5 97 c 128,-1,35
 506 66 506 66 471.5 42 c 128,-1,36
 437 18 437 18 394 4.5 c 128,-1,37
 351 -9 351 -9 304 -9 c 0,14,15
EndSplineSet
EndChar
StartChar: Lslash
Encoding: 321 321 193
Width: 654
VWidth: 1507
Flags: W
HStem: 3 60<197 621.087>
Fore
69 237 m 1,0,1
 45 292 45 292 99 324 c 2,2,-1
 454 529 l 1,3,4
 478 470 478 470 425 442 c 2,5,-1
 69 237 l 1,0,1
567 63 m 2,6,7
 636 63 636 63 626 3 c 1,8,-1
 137 3 l 2,9,10
 116 3 116 3 104 13 c 128,-1,11
 92 23 92 23 95 36 c 2,12,-1
 229 666 l 2,13,14
 243 730 243 730 339 730 c 1,15,-1
 197 63 l 1,16,-1
 567 63 l 2,6,7
EndSplineSet
EndChar
StartChar: lslash
Encoding: 322 322 194
Width: 271
VWidth: 1507
Flags: W
HStem: -6 21G<88.2857 132.5>
VStem: 68 282<238 467 221 238>
Fore
68 238 m 1,0,1
 44 291 44 291 98 323 c 2,2,-1
 350 467 l 1,3,4
 374 411 374 411 321 381 c 2,5,-1
 68 238 l 1,0,1
194 57 m 2,6,7
 181 -6 181 -6 84 -6 c 1,8,-1
 228 666 l 2,9,10
 241 730 241 730 338 730 c 1,11,-1
 194 57 l 2,6,7
EndSplineSet
EndChar
StartChar: OE
Encoding: 338 338 195
Width: 1234
VWidth: 1507
Flags: W
HStem: -9 60<300.095 472.852 801.939 942.875> 330 60<755 1031.54> 666 61<423.773 596.845 921.974 1098.75>
Fore
755 390 m 1,0,-1
 1052 390 l 1,1,2
 1039 330 1039 330 966 330 c 2,3,-1
 742 330 l 1,4,-1
 720 228 l 2,5,6
 713 191 713 191 721.5 159 c 128,-1,7
 730 127 730 127 752.5 103.5 c 128,-1,8
 775 80 775 80 809 65.5 c 128,-1,9
 843 51 843 51 885 51 c 256,10,11
 927 51 927 51 967 65.5 c 128,-1,12
 1007 80 1007 80 1040 103.5 c 128,-1,13
 1073 127 1073 127 1095.5 159 c 128,-1,14
 1118 191 1118 191 1126 228 c 0,15,16
 1127 235 1127 235 1128.5 244 c 128,-1,17
 1130 253 1130 253 1130 261 c 1,18,19
 1147 261 1147 261 1164.5 256.5 c 128,-1,20
 1182 252 1182 252 1194 243 c 128,-1,21
 1206 234 1206 234 1210.5 219.5 c 128,-1,22
 1215 205 1215 205 1209 185 c 0,23,24
 1189 142 1189 142 1152 105.5 c 128,-1,25
 1115 69 1115 69 1069 43.5 c 128,-1,26
 1023 18 1023 18 971 4.5 c 128,-1,27
 919 -9 919 -9 871 -9 c 0,28,29
 800 -9 800 -9 737.5 18 c 128,-1,30
 675 45 675 45 644 98 c 1,31,32
 592 47 592 47 517 19 c 128,-1,33
 442 -9 442 -9 369 -9 c 0,34,35
 317 -9 317 -9 267 7 c 128,-1,36
 217 23 217 23 181 53.5 c 128,-1,37
 145 84 145 84 127.5 128 c 128,-1,38
 110 172 110 172 122 228 c 2,39,-1
 178 491 l 2,40,41
 188 546 188 546 224.5 589.5 c 128,-1,42
 261 633 261 633 309 663 c 128,-1,43
 357 693 357 693 414.5 710 c 128,-1,44
 472 727 472 727 526 727 c 0,45,46
 597 727 597 727 661 699.5 c 128,-1,47
 725 672 725 672 755 621 c 1,48,49
 808 674 808 674 881 700.5 c 128,-1,50
 954 727 954 727 1028 727 c 0,51,52
 1075 727 1075 727 1121 714.5 c 128,-1,53
 1167 702 1167 702 1202 679 c 128,-1,54
 1237 656 1237 656 1259 619.5 c 128,-1,55
 1281 583 1281 583 1283 535 c 0,56,57
 1283 514 1283 514 1272.5 499.5 c 128,-1,58
 1262 485 1262 485 1245 476 c 128,-1,59
 1228 467 1228 467 1209.5 462.5 c 128,-1,60
 1191 458 1191 458 1173 458 c 1,61,62
 1176 466 1176 466 1177.5 475 c 128,-1,63
 1179 484 1179 484 1182 491 c 1,64,65
 1189 528 1189 528 1179.5 559.5 c 128,-1,66
 1170 591 1170 591 1147 615 c 128,-1,67
 1124 639 1124 639 1090.5 652.5 c 128,-1,68
 1057 666 1057 666 1014 666 c 256,69,70
 972 666 972 666 932 652.5 c 128,-1,71
 892 639 892 639 860 615 c 128,-1,72
 828 591 828 591 806 559.5 c 128,-1,73
 784 528 784 528 776 491 c 2,74,-1
 755 390 l 1,0,-1
680 491 m 2,75,76
 687 528 687 528 677.5 559.5 c 128,-1,77
 668 591 668 591 645.5 615 c 128,-1,78
 623 639 623 639 589 652.5 c 128,-1,79
 555 666 555 666 512 666 c 256,80,81
 470 666 470 666 430 652.5 c 128,-1,82
 390 639 390 639 358 615 c 128,-1,83
 326 591 326 591 304 559.5 c 128,-1,84
 282 528 282 528 274 491 c 2,85,-1
 219 228 l 2,86,87
 211 191 211 191 219.5 159 c 128,-1,88
 228 127 228 127 250.5 103.5 c 128,-1,89
 273 80 273 80 307 65.5 c 128,-1,90
 341 51 341 51 383 51 c 256,91,92
 425 51 425 51 465 65.5 c 128,-1,93
 505 80 505 80 538 103.5 c 128,-1,94
 571 127 571 127 593.5 159 c 128,-1,95
 616 191 616 191 624 228 c 2,96,-1
 680 491 l 2,75,76
EndSplineSet
EndChar
StartChar: oe
Encoding: 339 339 196
Width: 940
VWidth: 1507
Flags: W
HStem: -9 56<229.735 358.5 579.277 708.722> 265 55<582 841> 467 55<313.108 463.521 660.343 812.657>
Fore
547 163 m 2,0,1
 538 116 538 116 566.5 81.5 c 128,-1,2
 595 47 595 47 653 47 c 0,3,4
 680 47 680 47 706.5 56.5 c 128,-1,5
 733 66 733 66 753 82.5 c 128,-1,6
 773 99 773 99 788 121 c 128,-1,7
 803 143 803 143 808 167 c 1,8,9
 821 167 821 167 835.5 162 c 128,-1,10
 850 157 850 157 860.5 148 c 128,-1,11
 871 139 871 139 874 126 c 128,-1,12
 877 113 877 113 867 98 c 0,13,14
 834 50 834 50 773.5 20.5 c 128,-1,15
 713 -9 713 -9 641 -9 c 0,16,17
 585 -9 585 -9 542.5 10 c 128,-1,18
 500 29 500 29 479 59 c 1,19,20
 445 29 445 29 394.5 10 c 128,-1,21
 344 -9 344 -9 291 -9 c 0,22,23
 244 -9 244 -9 207 4.5 c 128,-1,24
 170 18 170 18 145.5 41.5 c 128,-1,25
 121 65 121 65 110 96 c 128,-1,26
 99 127 99 127 107 163 c 2,27,-1
 148 348 l 2,28,29
 155 384 155 384 178.5 416 c 128,-1,30
 202 448 202 448 236.5 471 c 128,-1,31
 271 494 271 494 314 508 c 128,-1,32
 357 522 357 522 404 522 c 0,33,34
 457 522 457 522 500 503.5 c 128,-1,35
 543 485 543 485 565 455 c 1,36,37
 600 485 600 485 648 503.5 c 128,-1,38
 696 522 696 522 754 522 c 0,39,40
 799 522 799 522 836.5 508 c 128,-1,41
 874 494 874 494 899 471 c 128,-1,42
 924 448 924 448 934.5 416 c 128,-1,43
 945 384 945 384 938 348 c 2,44,-1
 925 294 l 2,45,46
 922 282 922 282 906.5 273.5 c 128,-1,47
 891 265 891 265 874 265 c 2,48,-1
 570 265 l 1,49,-1
 547 163 l 2,0,1
392 467 m 0,50,51
 335 467 335 467 291 431.5 c 128,-1,52
 247 396 247 396 237 348 c 2,53,-1
 196 163 l 2,54,55
 187 116 187 116 216.5 81.5 c 128,-1,56
 246 47 246 47 303 47 c 0,57,58
 330 47 330 47 355 56 c 128,-1,59
 380 65 380 65 401 80.5 c 128,-1,60
 422 96 422 96 437 117.5 c 128,-1,61
 452 139 452 139 457 163 c 2,62,-1
 497 348 l 2,63,64
 508 396 508 396 478 431.5 c 128,-1,65
 448 467 448 467 392 467 c 0,50,51
582 320 m 1,66,-1
 841 320 l 1,67,-1
 847 348 l 2,68,69
 858 396 858 396 827.5 431.5 c 128,-1,70
 797 467 797 467 742 467 c 0,71,72
 684 467 684 467 641 431.5 c 128,-1,73
 598 396 598 396 588 348 c 2,74,-1
 582 320 l 1,66,-1
EndSplineSet
EndChar
StartChar: florin
Encoding: 402 402 202
Width: 605
VWidth: 1507
Flags: W
HStem: -80 53.5<70 89 75.6654 150.531> -25 20G<18 40.5> 384 55<230.628 318 427 555.888> 671 56<545.251 653.871>
Fore
669 653 m 1,0,1
 653 660 653 660 635.5 665.5 c 128,-1,2
 618 671 618 671 603 671 c 0,3,4
 573 671 573 671 549 656 c 128,-1,5
 525 641 525 641 504.5 615 c 128,-1,6
 484 589 484 589 469 555.5 c 128,-1,7
 454 522 454 522 443 485 c 2,8,-1
 427 439 l 1,9,-1
 582 439 l 1,10,11
 576 413 576 413 556.5 398.5 c 128,-1,12
 537 384 537 384 506 384 c 2,13,-1
 411 384 l 1,14,-1
 338 160 l 2,15,16
 301 48 301 48 241.5 -19 c 128,-1,17
 182 -86 182 -86 84 -86 c 0,18,19
 57 -86 57 -86 41 -80 c 0,20,21
 20 -71 20 -71 14.5 -53 c 128,-1,22
 9 -35 9 -35 27 -5 c 1,23,24
 54 -21 54 -21 70 -26.5 c 128,-1,25
 86 -32 86 -32 102 -32 c 0,26,27
 127 -32 127 -32 147 -17.5 c 128,-1,28
 167 -3 167 -3 183.5 20.5 c 128,-1,29
 200 44 200 44 214 73 c 128,-1,30
 228 102 228 102 237 134 c 2,31,-1
 318 384 l 1,32,-1
 205 384 l 1,33,34
 210 410 210 410 230 424.5 c 128,-1,35
 250 439 250 439 282 439 c 2,36,-1
 335 439 l 1,37,38
 336 443 336 443 338.5 450 c 128,-1,39
 341 457 341 457 344 461 c 1,40,41
 345 467 345 467 346.5 474 c 128,-1,42
 348 481 348 481 350 487 c 0,43,44
 384 594 384 594 453 660.5 c 128,-1,45
 522 727 522 727 623 727 c 0,46,47
 656 727 656 727 680 716 c 1,48,49
 698 704 698 704 703 687.5 c 128,-1,50
 708 671 708 671 695 654 c 1,51,-1
 669 653 l 1,0,1
EndSplineSet
EndChar
StartChar: circumflex
Encoding: 710 710 203
Width: 491
VWidth: 1507
Flags: W
HStem: 558 162
VStem: 206 322<576 576 576 576>
Fore
396 720 m 256,0,1
 418 720 418 720 425 711 c 2,2,-1
 528 576 l 1,3,4
 500 558 500 558 471.5 558 c 128,-1,5
 443 558 443 558 430 574 c 2,6,-1
 380 642 l 1,7,-1
 300 574 l 2,8,9
 279 558 279 558 252 558 c 128,-1,10
 225 558 225 558 206 576 c 1,11,-1
 365 711 l 2,12,13
 375 720 375 720 396 720 c 256,0,1
EndSplineSet
EndChar
StartChar: breve
Encoding: 728 728 205
Width: 482
VWidth: 1507
Flags: W
HStem: 558 57<316.231 413.985> 705 20G<282 294.5 483 506.5>
VStem: 205 95<657.158 684 684 708.324> 488 76<646.099 724.714>
Fore
357 558 m 256,0,1
 330 558 330 558 300.5 566 c 128,-1,2
 271 574 271 574 248.5 590.5 c 128,-1,3
 226 607 226 607 213 630.5 c 128,-1,4
 200 654 200 654 205 684 c 0,5,6
 208 701 208 701 236 713 c 128,-1,7
 264 725 264 725 300 725 c 1,8,9
 289 677 289 677 309 646 c 128,-1,10
 329 615 329 615 369 615 c 0,11,12
 411 615 411 615 444.5 646 c 128,-1,13
 478 677 478 677 488 725 c 1,14,15
 525 725 525 725 546.5 713 c 128,-1,16
 568 701 568 701 564 684 c 0,17,18
 556 654 556 654 533.5 630.5 c 128,-1,19
 511 607 511 607 481 590.5 c 128,-1,20
 451 574 451 574 417.5 566 c 128,-1,21
 384 558 384 558 357 558 c 256,0,1
EndSplineSet
EndChar
StartChar: dotaccent
Encoding: 729 729 206
Width: 268
VWidth: 1507
Flags: W
HStem: 638 107<239.72 320.28>
VStem: 211 137<673.518 732.634>
Fore
211 692 m 0,0,1
 216 713 216 713 239 729 c 128,-1,2
 262 745 262 745 292 745 c 256,3,4
 323 745 323 745 338 729 c 128,-1,5
 353 713 353 713 348 692 c 0,6,7
 344 669 344 669 321 653.5 c 128,-1,8
 298 638 298 638 268 638 c 256,9,10
 238 638 238 638 222 653.5 c 128,-1,11
 206 669 206 669 211 692 c 0,0,1
EndSplineSet
EndChar
StartChar: ring
Encoding: 730 730 207
Width: 449
VWidth: 1507
Flags: W
HStem: 591 42<328.866 393.978> 751 42<352.025 410.314>
VStem: 252 235<650 692 692 710 692 692 692 692>
Fore
252 692 m 0,0,1
 256 710 256 710 268 728 c 128,-1,2
 280 746 280 746 298.5 760.5 c 128,-1,3
 317 775 317 775 340 784 c 128,-1,4
 363 793 363 793 390 793 c 0,5,6
 443 793 443 793 468.5 760.5 c 128,-1,7
 494 728 494 728 487 692 c 0,8,9
 478 648 478 648 439.5 619.5 c 128,-1,10
 401 591 401 591 348 591 c 0,11,12
 300 591 300 591 271.5 620.5 c 128,-1,13
 243 650 243 650 252 692 c 0,0,1
326 692 m 0,14,15
 320 666 320 666 329.5 649.5 c 128,-1,16
 339 633 339 633 357 633 c 0,17,18
 377 633 377 633 392.5 649.5 c 128,-1,19
 408 666 408 666 415 692 c 0,20,21
 419 713 419 713 410.5 732 c 128,-1,22
 402 751 402 751 381 751 c 256,23,24
 360 751 360 751 345 732 c 128,-1,25
 330 713 330 713 326 692 c 0,14,15
EndSplineSet
EndChar
StartChar: ogonek
Encoding: 731 731 208
Width: 292
VWidth: 1507
Flags: W
HStem: -210 227<102 170 98 125 98 98> -210 47<113.26 198.417>
VStem: 17 205<-127 -116 -116 -89>
Fore
17 -116 m 0,0,1
 23 -89 23 -89 54.5 -68 c 128,-1,2
 86 -47 86 -47 127 -42 c 1,3,-1
 98 17 l 1,4,-1
 173 17 l 1,5,-1
 219 -83 l 1,6,7
 178 -80 178 -80 144 -89.5 c 128,-1,8
 110 -99 110 -99 104 -124 c 0,9,10
 101 -142 101 -142 111.5 -152.5 c 128,-1,11
 122 -163 122 -163 136 -163 c 0,12,13
 166 -163 166 -163 222 -127 c 1,14,15
 241 -169 241 -169 199 -193 c 0,16,17
 170 -210 170 -210 125 -210 c 0,18,19
 102 -210 102 -210 80.5 -203.5 c 128,-1,20
 59 -197 59 -197 43 -185 c 128,-1,21
 27 -173 27 -173 19.5 -156 c 128,-1,22
 12 -139 12 -139 17 -116 c 0,0,1
EndSplineSet
EndChar
StartChar: tilde
Encoding: 732 732 209
Width: 381
VWidth: 1507
Flags: W
HStem: 592 122.5<427.401 430> 592 53<377.297 420.57> 662 52<234.844 278.053>
VStem: 152 350<618 668 618 618>
Fore
360 674 m 1,0,1
 371 662 371 662 380.5 653.5 c 128,-1,2
 390 645 390 645 398 645 c 0,3,4
 410 645 410 645 420.5 664 c 128,-1,5
 431 683 431 683 424 708 c 1,6,7
 446 716 446 716 462 714.5 c 128,-1,8
 478 713 478 713 487.5 706 c 128,-1,9
 497 699 497 699 501 688.5 c 128,-1,10
 505 678 505 678 502 668 c 0,11,12
 490 636 490 636 460 614 c 128,-1,13
 430 592 430 592 387 592 c 0,14,15
 353 592 353 592 336.5 602.5 c 128,-1,16
 320 613 320 613 304 627 c 1,17,-1
 307 627 l 1,18,-1
 295 635 l 1,19,20
 286 644 286 644 275 653 c 128,-1,21
 264 662 264 662 256 662 c 0,22,23
 244 662 244 662 235 643 c 128,-1,24
 226 624 226 624 231 600 c 1,25,26
 208 592 208 592 191.5 593 c 128,-1,27
 175 594 175 594 165 600.5 c 128,-1,28
 155 607 155 607 152 618 c 128,-1,29
 149 629 149 629 154 639 c 0,30,31
 166 672 166 672 197 693 c 128,-1,32
 228 714 228 714 267 714 c 0,33,34
 301 714 301 714 318 704.5 c 128,-1,35
 335 695 335 695 350 681 c 1,36,-1
 347 681 l 1,37,-1
 356 674 l 1,38,-1
 360 674 l 1,0,1
EndSplineSet
EndChar
StartChar: uni0E01
Encoding: 3585 3585 212
Width: 660
VWidth: 1507
Flags: W
HStem: -9 21G<185.5 209.3 477.3 492.5> 550 57<371.087 485.872>
Fore
176 291 m 1,0,1
 175 294 175 294 171 310 c 128,-1,2
 167 326 167 326 161 344 c 0,3,4
 155 365 155 365 146 390 c 1,5,6
 140 401 140 401 145 405 c 1,7,8
 154 451 154 451 184 488 c 128,-1,9
 214 525 214 525 256 552 c 128,-1,10
 298 579 298 579 346.5 593 c 128,-1,11
 395 607 395 607 442 607 c 0,12,13
 487 607 487 607 530 593.5 c 128,-1,14
 573 580 573 580 604.5 554 c 128,-1,15
 636 528 636 528 651 490 c 128,-1,16
 666 452 666 452 656 405 c 2,17,-1
 582 57 l 2,18,19
 574 29 574 29 543 10 c 128,-1,20
 512 -9 512 -9 473 -9 c 1,21,-1
 562 405 l 2,22,23
 568 434 568 434 560.5 459.5 c 128,-1,24
 553 485 553 485 535 505.5 c 128,-1,25
 517 526 517 526 490 538 c 128,-1,26
 463 550 463 550 430 550 c 0,27,28
 398 550 398 550 366.5 539 c 128,-1,29
 335 528 335 528 309 509 c 128,-1,30
 283 490 283 490 264.5 465 c 128,-1,31
 246 440 246 440 238 413 c 1,32,33
 238 408 238 408 243.5 392.5 c 128,-1,34
 249 377 249 377 255 359 c 0,35,36
 261 338 261 338 270 314 c 1,37,-1
 271 298 l 1,38,-1
 205 -9 l 1,39,40
 166 -9 166 -9 142.5 10 c 128,-1,41
 119 29 119 29 127 57 c 2,42,-1
 176 291 l 1,0,1
EndSplineSet
EndChar
StartChar: uni0E02
Encoding: 3586 3586 213
Width: 634
VWidth: 1507
Flags: W
HStem: -9 57<325.126 419.697> 309 48<197.386 272.152> 454 40<239.385 284.887> 550 57<273.501 381.532>
Fore
565 540 m 2,0,1
 571 567 571 567 602 586.5 c 128,-1,2
 633 606 633 606 672 606 c 1,3,-1
 573 139 l 2,4,5
 565 106 565 106 545 78.5 c 128,-1,6
 525 51 525 51 496 31.5 c 128,-1,7
 467 12 467 12 432.5 1.5 c 128,-1,8
 398 -9 398 -9 363 -9 c 256,9,10
 329 -9 329 -9 299.5 1.5 c 128,-1,11
 270 12 270 12 249.5 31.5 c 128,-1,12
 229 51 229 51 220 78.5 c 128,-1,13
 211 106 211 106 219 139 c 2,14,-1
 225 167 l 2,15,16
 237 220 237 220 273 266 c 128,-1,17
 309 312 309 312 353 359 c 0,18,19
 392 396 392 396 401 437 c 0,20,21
 410 481 410 481 390.5 515.5 c 128,-1,22
 371 550 371 550 333 550 c 0,23,24
 303 550 303 550 276 533.5 c 128,-1,25
 249 517 249 517 232 491 c 1,26,27
 240 493 240 493 246 493.5 c 128,-1,28
 252 494 252 494 259 494 c 0,29,30
 306 494 306 494 332.5 469.5 c 128,-1,31
 359 445 359 445 351 405 c 0,32,33
 342 366 342 366 304.5 337.5 c 128,-1,34
 267 309 267 309 220 309 c 0,35,36
 164 309 164 309 138.5 347.5 c 128,-1,37
 113 386 113 386 124 437 c 0,38,39
 131 472 131 472 152 503 c 128,-1,40
 173 534 173 534 202.5 557 c 128,-1,41
 232 580 232 580 269 593.5 c 128,-1,42
 306 607 306 607 345 607 c 0,43,44
 383 607 383 607 414 593.5 c 128,-1,45
 445 580 445 580 465 557 c 128,-1,46
 485 534 485 534 493.5 503 c 128,-1,47
 502 472 502 472 494 437 c 0,48,49
 488 410 488 410 465 380 c 128,-1,50
 442 350 442 350 411 320 c 0,51,52
 378 289 378 289 353.5 252.5 c 128,-1,53
 329 216 329 216 317 167 c 2,54,-1
 311 139 l 2,55,56
 303 99 303 99 322 73.5 c 128,-1,57
 341 48 341 48 375 48 c 256,58,59
 410 48 410 48 440 72 c 128,-1,60
 470 96 470 96 479 139 c 2,61,-1
 565 540 l 2,0,1
193 405 m 256,62,63
 188 384 188 384 199 370.5 c 128,-1,64
 210 357 210 357 231 357 c 256,65,66
 252 357 252 357 268.5 370.5 c 128,-1,67
 285 384 285 384 289 405 c 256,68,69
 294 427 294 427 282.5 440.5 c 128,-1,70
 271 454 271 454 250 454 c 256,71,72
 229 454 229 454 213 440.5 c 128,-1,73
 197 427 197 427 193 405 c 256,62,63
EndSplineSet
EndChar
StartChar: uni0E03
Encoding: 3587 3587 214
Width: 634
VWidth: 1507
Flags: W
HStem: -9 57<325.126 419.697> 309 48<197.386 272.152> 454 40<230.221 284.887> 587 20G<282.5 307.5 386 411 652.5 667.76>
VStem: 405.5 92.5<442.468 498.5 498.5 545.354>
Fore
259 494 m 0,0,1
 306 494 306 494 332.5 469.5 c 128,-1,2
 359 445 359 445 351 405 c 0,3,4
 342 366 342 366 304.5 337.5 c 128,-1,5
 267 309 267 309 220 309 c 0,6,7
 164 309 164 309 138.5 347.5 c 128,-1,8
 113 386 113 386 124 437 c 0,9,10
 130 464 130 464 145 493.5 c 128,-1,11
 160 523 160 523 181 549 c 0,12,13
 205 576 205 576 235 591.5 c 128,-1,14
 265 607 265 607 300 607 c 0,15,16
 315 607 315 607 325 599 c 128,-1,17
 335 591 335 591 342 583 c 1,18,19
 351 591 351 591 364 599 c 128,-1,20
 377 607 377 607 395 607 c 0,21,22
 427 607 427 607 449.5 592 c 128,-1,23
 472 577 472 577 484 553 c 128,-1,24
 496 529 496 529 498 499 c 128,-1,25
 500 469 500 469 494 437 c 0,26,27
 488 410 488 410 465 380 c 128,-1,28
 442 350 442 350 411 320 c 0,29,30
 378 289 378 289 353.5 252.5 c 128,-1,31
 329 216 329 216 317 167 c 2,32,-1
 311 139 l 2,33,34
 303 99 303 99 322 73.5 c 128,-1,35
 341 48 341 48 375 48 c 256,36,37
 410 48 410 48 440 72 c 128,-1,38
 470 96 470 96 479 139 c 2,39,-1
 565 540 l 2,40,41
 571 567 571 567 602 586.5 c 128,-1,42
 633 606 633 606 672 606 c 1,43,-1
 573 139 l 2,44,45
 565 106 565 106 545 78.5 c 128,-1,46
 525 51 525 51 496 31.5 c 128,-1,47
 467 12 467 12 432.5 1.5 c 128,-1,48
 398 -9 398 -9 363 -9 c 256,49,50
 329 -9 329 -9 299.5 1.5 c 128,-1,51
 270 12 270 12 249.5 31.5 c 128,-1,52
 229 51 229 51 220 78.5 c 128,-1,53
 211 106 211 106 219 139 c 2,54,-1
 225 167 l 2,55,56
 237 220 237 220 273 266 c 128,-1,57
 309 312 309 312 353 359 c 0,58,59
 392 396 392 396 401 437 c 0,60,61
 407 466 407 466 405.5 498.5 c 128,-1,62
 404 531 404 531 395 546 c 1,63,64
 383 536 l 128,-1,65
 371 526 l 2,66,67
 365 520 365 520 359 517 c 2,68,69
 345 505 345 505 326 505 c 128,-1,70
 307 505 307 505 297 517 c 0,71,72
 294 522 294 522 289 528 c 0,73,74
 286 532 286 532 281.5 537.5 c 128,-1,75
 277 543 277 543 274 547 c 1,76,77
 264 540 264 540 252 524.5 c 128,-1,78
 240 509 240 509 229 490 c 1,79,80
 244 494 244 494 259 494 c 0,0,1
193 405 m 256,81,82
 188 384 188 384 199 370.5 c 128,-1,83
 210 357 210 357 231 357 c 256,84,85
 252 357 252 357 268.5 370.5 c 128,-1,86
 285 384 285 384 289 405 c 256,87,88
 294 427 294 427 282.5 440.5 c 128,-1,89
 271 454 271 454 250 454 c 256,90,91
 229 454 229 454 213 440.5 c 128,-1,92
 197 427 197 427 193 405 c 256,81,82
EndSplineSet
EndChar
StartChar: uni0E04
Encoding: 3588 3588 215
Width: 690
VWidth: 1507
Flags: W
HStem: -9 21G<156.5 187.731 507.3 523> 261 46<374.574 450.005> 404 48<386.768 461.79> 550 57<401.305 515.591>
Fore
472 607 m 0,0,1
 517 607 517 607 559 593 c 128,-1,2
 601 579 601 579 633 553.5 c 128,-1,3
 665 528 665 528 680 490 c 128,-1,4
 695 452 695 452 686 405 c 2,5,-1
 612 57 l 2,6,7
 604 29 604 29 573.5 10 c 128,-1,8
 543 -9 543 -9 503 -9 c 1,9,-1
 592 405 l 2,10,11
 598 434 598 434 590.5 459.5 c 128,-1,12
 583 485 583 485 565 505.5 c 128,-1,13
 547 526 547 526 520 538 c 128,-1,14
 493 550 493 550 460 550 c 256,15,16
 427 550 427 550 394.5 538 c 128,-1,17
 362 526 362 526 335.5 505.5 c 128,-1,18
 309 485 309 485 291 459.5 c 128,-1,19
 273 434 273 434 267 405 c 2,20,-1
 225 213 l 1,21,-1
 326 393 l 2,22,23
 342 419 342 419 372 435.5 c 128,-1,24
 402 452 402 452 439 452 c 0,25,26
 482 452 482 452 510 423.5 c 128,-1,27
 538 395 538 395 531 356 c 0,28,29
 522 317 522 317 482 289 c 128,-1,30
 442 261 442 261 398 261 c 0,31,32
 362 261 362 261 342 274 c 1,33,-1
 176 -9 l 1,34,35
 137 -9 137 -9 114.5 10 c 128,-1,36
 92 29 92 29 99 57 c 2,37,-1
 173 405 l 2,38,39
 182 451 182 451 213 488 c 128,-1,40
 244 525 244 525 285.5 552 c 128,-1,41
 327 579 327 579 376 593 c 128,-1,42
 425 607 425 607 472 607 c 0,0,1
371 356 m 0,43,44
 366 335 366 335 376.5 321 c 128,-1,45
 387 307 387 307 408 307 c 256,46,47
 430 307 430 307 446.5 321 c 128,-1,48
 463 335 463 335 467 356 c 0,49,50
 470 377 470 377 459.5 390.5 c 128,-1,51
 449 404 449 404 428 404 c 256,52,53
 407 404 407 404 390.5 390.5 c 128,-1,54
 374 377 374 377 371 356 c 0,43,44
EndSplineSet
EndChar
StartChar: uni0E05
Encoding: 3589 3589 216
Width: 690
VWidth: 1507
Flags: W
HStem: -9 21G<156.5 188.074 507.289 523> 247 47<371.574 447.357> 390 49<384.757 460.508> 587 20G<373 395 548.5 572>
Fore
225 208 m 1,0,-1
 323 380 l 2,1,2
 339 405 339 405 369 422 c 128,-1,3
 399 439 399 439 436 439 c 0,4,5
 482 439 482 439 508.5 410 c 128,-1,6
 535 381 535 381 528 342 c 0,7,8
 519 303 519 303 480.5 275 c 128,-1,9
 442 247 442 247 395 247 c 0,10,11
 359 247 359 247 339 261 c 1,12,-1
 176 -9 l 1,13,14
 137 -9 137 -9 114.5 10 c 128,-1,15
 92 29 92 29 99 57 c 2,16,-1
 179 434 l 2,17,18
 188 475 188 475 211.5 507.5 c 128,-1,19
 235 540 235 540 265 562.5 c 128,-1,20
 295 585 295 585 327.5 596 c 128,-1,21
 360 607 360 607 386 607 c 0,22,23
 404 607 404 607 411 598 c 0,24,25
 421 589 421 589 430 583 c 2,26,27
 437 576 437 576 445.5 570 c 128,-1,28
 454 564 454 564 461 556 c 1,29,30
 472 564 472 564 484 570.5 c 128,-1,31
 496 577 496 577 506 585 c 2,32,-1
 529 600 l 2,33,34
 538 607 538 607 559 607 c 0,35,36
 585 607 585 607 612 596 c 128,-1,37
 639 585 639 585 659.5 562.5 c 128,-1,38
 680 540 680 540 690.5 507.5 c 128,-1,39
 701 475 701 475 692 434 c 2,40,-1
 612 57 l 2,41,42
 604 29 604 29 573.5 10 c 128,-1,43
 543 -9 543 -9 503 -9 c 1,44,-1
 598 434 l 2,45,46
 607 479 607 479 593.5 508.5 c 128,-1,47
 580 538 580 538 562 546 c 1,48,49
 553 540 553 540 539.5 530 c 128,-1,50
 526 520 526 520 512.5 511 c 128,-1,51
 499 502 499 502 488.5 495 c 128,-1,52
 478 488 478 488 475 487 c 1,53,-1
 476 487 l 1,54,55
 460 475 460 475 444 475 c 128,-1,56
 428 475 428 475 416 487 c 0,57,58
 402 499 402 499 390 511 c 2,59,-1
 356 546 l 1,60,61
 335 538 335 538 308.5 508.5 c 128,-1,62
 282 479 282 479 273 434 c 2,63,-1
 225 208 l 1,0,-1
368 342 m 256,64,65
 363 321 363 321 373.5 307.5 c 128,-1,66
 384 294 384 294 405 294 c 256,67,68
 427 294 427 294 443.5 307.5 c 128,-1,69
 460 321 460 321 464 342 c 256,70,71
 469 363 469 363 458.5 376.5 c 128,-1,72
 448 390 448 390 427 390 c 256,73,74
 405 390 405 390 388.5 376.5 c 128,-1,75
 372 363 372 363 368 342 c 256,64,65
EndSplineSet
EndChar
StartChar: uni0E06
Encoding: 3590 3590 217
Width: 721
VWidth: 1507
Flags: W
HStem: -9 51<144.266 219.152> 139 49<158.099 227.549> 309 48<197.386 272.357> 454 40<230.221 284.914> 587 20G<282.5 307.5 386 411 740 755.774>
VStem: 405.5 92.5<442.468 498.5 498.5 545.354>
Fore
274 547 m 1,0,1
 264 540 264 540 252 524.5 c 128,-1,2
 240 509 240 509 229 490 c 1,3,4
 244 494 244 494 259 494 c 0,5,6
 306 494 306 494 333 469.5 c 128,-1,7
 360 445 360 445 353 405 c 0,8,9
 344 366 344 366 305.5 337.5 c 128,-1,10
 267 309 267 309 220 309 c 0,11,12
 164 309 164 309 138.5 347.5 c 128,-1,13
 113 386 113 386 124 437 c 0,14,15
 130 464 130 464 145.5 493.5 c 128,-1,16
 161 523 161 523 182 549 c 0,17,18
 205 576 205 576 235 591.5 c 128,-1,19
 265 607 265 607 300 607 c 0,20,21
 315 607 315 607 325 599 c 128,-1,22
 335 591 335 591 342 583 c 1,23,24
 351 591 351 591 364 599 c 128,-1,25
 377 607 377 607 395 607 c 0,26,27
 427 607 427 607 449.5 592 c 128,-1,28
 472 577 472 577 484 553 c 128,-1,29
 496 529 496 529 498 499 c 128,-1,30
 500 469 500 469 494 437 c 0,31,32
 488 410 488 410 465 380 c 128,-1,33
 442 350 442 350 411 320 c 0,34,35
 381 291 381 291 354 254 c 128,-1,36
 327 217 327 217 318 173 c 0,37,38
 316 165 l 128,-1,39
 315 161 315 161 317 157 c 1,40,-1
 552 66 l 1,41,-1
 653 540 l 2,42,43
 659 567 659 567 689.5 586.5 c 128,-1,44
 720 606 720 606 760 606 c 1,45,-1
 644 57 l 2,46,47
 636 29 636 29 609 10 c 128,-1,48
 582 -9 582 -9 547 -9 c 1,49,-1
 301 86 l 1,50,51
 289 45 289 45 251.5 18 c 128,-1,52
 214 -9 214 -9 167 -9 c 0,53,54
 119 -9 119 -9 92.5 19.5 c 128,-1,55
 66 48 66 48 75 90 c 0,56,57
 84 130 84 130 122.5 159 c 128,-1,58
 161 188 161 188 210 188 c 0,59,60
 222 188 222 188 229 187 c 1,61,62
 244 232 244 232 279 274.5 c 128,-1,63
 314 317 314 317 353 359 c 0,64,65
 392 396 392 396 401 437 c 0,66,67
 407 466 407 466 405.5 498.5 c 128,-1,68
 404 531 404 531 395 546 c 1,69,70
 383 536 l 128,-1,71
 377 531 377 531 372 526 c 0,72,73
 366 520 366 520 360 517 c 2,74,75
 345 505 345 505 326 505 c 128,-1,76
 307 505 307 505 297 517 c 0,77,78
 294 522 294 522 289 528 c 0,79,80
 286 532 286 532 281.5 537.5 c 128,-1,81
 277 543 277 543 274 547 c 1,0,1
193 405 m 256,82,83
 188 384 188 384 199 370.5 c 128,-1,84
 210 357 210 357 231 357 c 256,85,86
 252 357 252 357 268.5 370.5 c 128,-1,87
 285 384 285 384 289 405 c 256,88,89
 294 427 294 427 282.5 440.5 c 128,-1,90
 271 454 271 454 250 454 c 256,91,92
 229 454 229 454 213 440.5 c 128,-1,93
 197 427 197 427 193 405 c 256,82,83
140 90 m 256,94,95
 136 69 136 69 146.5 55.5 c 128,-1,96
 157 42 157 42 178 42 c 256,97,98
 199 42 199 42 215.5 55.5 c 128,-1,99
 232 69 232 69 237 90 c 256,100,101
 241 112 241 112 230.5 125.5 c 128,-1,102
 220 139 220 139 199 139 c 256,103,104
 178 139 178 139 161.5 125.5 c 128,-1,105
 145 112 145 112 140 90 c 256,94,95
EndSplineSet
EndChar
StartChar: uni0E07
Encoding: 3591 3591 218
Width: 575
VWidth: 1507
Flags: W
HStem: -9 21G<348 413.5> 418 45<441.831 480.734> 559 48<464.727 526.36>
VStem: 532 62<494.619 538.76>
Fore
503 607 m 0,0,1
 549 607 549 607 575 578.5 c 128,-1,2
 601 550 601 550 594 511 c 2,3,-1
 497 57 l 2,4,5
 490 29 490 29 460.5 10 c 128,-1,6
 431 -9 431 -9 396 -9 c 1,7,8
 300 128 300 128 248.5 203.5 c 128,-1,9
 197 279 197 279 173 314 c 0,10,11
 146 354 146 354 140 360 c 1,12,-1
 142 360 l 1,13,14
 130 377 130 377 138 404 c 128,-1,15
 146 431 146 431 176 455 c 1,16,-1
 416 107 l 1,17,-1
 481 418 l 1,18,-1
 463 418 l 2,19,20
 416 418 416 418 389.5 445 c 128,-1,21
 363 472 363 472 372 511 c 0,22,23
 377 531 377 531 389 548 c 128,-1,24
 401 565 401 565 419 578.5 c 128,-1,25
 437 592 437 592 459 599.5 c 128,-1,26
 481 607 481 607 503 607 c 0,0,1
436 511 m 0,27,28
 431 490 431 490 441.5 476.5 c 128,-1,29
 452 463 452 463 473 463 c 256,30,31
 494 463 494 463 511 476.5 c 128,-1,32
 528 490 528 490 532 511 c 0,33,34
 535 532 535 532 524.5 545.5 c 128,-1,35
 514 559 514 559 493 559 c 256,36,37
 472 559 472 559 455.5 545.5 c 128,-1,38
 439 532 439 532 436 511 c 0,27,28
EndSplineSet
EndChar
StartChar: uni0E08
Encoding: 3592 3592 219
Width: 617
VWidth: 1507
Flags: W
HStem: -9 21G<430.357 452.5> 262 47<316.129 381.192> 405 49<341.894 404.655> 550 57<338.587 461.547>
VStem: 125 488<408 425 425 434 405 434 434 434>
Fore
396 271 m 1,0,1
 371 262 371 262 339 262 c 0,2,3
 294 262 294 262 267.5 290 c 128,-1,4
 241 318 241 318 250 357 c 0,5,6
 255 377 255 377 267 394 c 128,-1,7
 279 411 279 411 296.5 425 c 128,-1,8
 314 439 314 439 335.5 446.5 c 128,-1,9
 357 454 357 454 380 454 c 0,10,11
 419 454 419 454 443 434.5 c 128,-1,12
 467 415 467 415 472 386 c 2,13,-1
 482 231 l 1,14,-1
 520 405 l 2,15,16
 526 434 526 434 520 460.5 c 128,-1,17
 514 487 514 487 496.5 506.5 c 128,-1,18
 479 526 479 526 453.5 538 c 128,-1,19
 428 550 428 550 395 550 c 0,20,21
 363 550 363 550 332 538 c 128,-1,22
 301 526 301 526 276.5 506.5 c 128,-1,23
 252 487 252 487 234 460.5 c 128,-1,24
 216 434 216 434 210 405 c 0,25,26
 206 395 206 395 205.5 389 c 128,-1,27
 205 383 205 383 203 374 c 1,28,29
 166 374 166 374 141 391 c 128,-1,30
 116 408 116 408 125 434 c 0,31,32
 139 470 139 470 167.5 502 c 128,-1,33
 196 534 196 534 233 557 c 128,-1,34
 270 580 270 580 314.5 593.5 c 128,-1,35
 359 607 359 607 407 607 c 0,36,37
 460 607 460 607 502 591.5 c 128,-1,38
 544 576 544 576 571 549 c 128,-1,39
 598 522 598 522 610.5 485 c 128,-1,40
 623 448 623 448 613 405 c 2,41,-1
 540 57 l 2,42,43
 532 30 532 30 502 10.5 c 128,-1,44
 472 -9 472 -9 433 -9 c 1,45,-1
 396 271 l 1,0,1
312 357 m 256,46,47
 307 336 307 336 318 322.5 c 128,-1,48
 329 309 329 309 350 309 c 256,49,50
 371 309 371 309 387.5 322.5 c 128,-1,51
 404 336 404 336 408 357 c 256,52,53
 413 378 413 378 402.5 391.5 c 128,-1,54
 392 405 392 405 371 405 c 256,55,56
 350 405 350 405 333.5 391.5 c 128,-1,57
 317 378 317 378 312 357 c 256,46,47
EndSplineSet
EndChar
StartChar: uni0E09
Encoding: 3593 3593 220
Width: 655
VWidth: 1507
Flags: W
HStem: -9 48<467.943 546.058> 184 48<185.831 224.717> 329 46<197.132 271.09> 550 57<367.512 458.497>
VStem: 118 61<250.362 314.561> 276 62<263.852 280 280 309.981>
Fore
225 184 m 1,0,-1
 206 184 l 2,1,2
 160 184 160 184 135 212.5 c 128,-1,3
 110 241 110 241 118 280 c 256,4,5
 125 320 125 320 162.5 347.5 c 128,-1,6
 200 375 200 375 247 375 c 256,7,8
 294 375 294 375 319.5 347.5 c 128,-1,9
 345 320 345 320 338 280 c 2,10,-1
 294 77 l 1,11,-1
 451 161 l 2,12,13
 467 170 467 170 480.5 186.5 c 128,-1,14
 494 203 494 203 497 220 c 2,15,-1
 537 405 l 2,16,17
 543 434 543 434 534.5 459.5 c 128,-1,18
 526 485 526 485 508 505.5 c 128,-1,19
 490 526 490 526 463 538 c 128,-1,20
 436 550 436 550 402 550 c 256,21,22
 369 550 369 550 336.5 538 c 128,-1,23
 304 526 304 526 278 505.5 c 128,-1,24
 252 485 252 485 233 458 c 128,-1,25
 214 431 214 431 208 402 c 1,26,27
 164 399 164 399 144.5 421 c 128,-1,28
 125 443 125 443 143 470 c 0,29,30
 163 502 163 502 194 527.5 c 128,-1,31
 225 553 225 553 261 571 c 128,-1,32
 297 589 297 589 337 598 c 128,-1,33
 377 607 377 607 415 607 c 0,34,35
 458 607 458 607 501 593.5 c 128,-1,36
 544 580 544 580 575.5 554 c 128,-1,37
 607 528 607 528 623 490 c 128,-1,38
 639 452 639 452 629 405 c 2,39,-1
 589 220 l 2,40,41
 585 203 585 203 571 182 c 1,42,43
 601 172 601 172 618.5 146.5 c 128,-1,44
 636 121 636 121 629 90 c 0,45,46
 620 48 620 48 580.5 19.5 c 128,-1,47
 541 -9 541 -9 493 -9 c 0,48,49
 454 -9 454 -9 427.5 10.5 c 128,-1,50
 401 30 401 30 398 62 c 1,51,-1
 267 -9 l 1,52,53
 232 -9 232 -9 211.5 10.5 c 128,-1,54
 191 30 191 30 199 57 c 2,55,-1
 225 184 l 1,0,-1
179 280 m 256,56,57
 175 259 175 259 185.5 245.5 c 128,-1,58
 196 232 196 232 217 232 c 256,59,60
 238 232 238 232 254.5 245.5 c 128,-1,61
 271 259 271 259 276 280 c 256,62,63
 280 301 280 301 269.5 315 c 128,-1,64
 259 329 259 329 238 329 c 256,65,66
 217 329 217 329 200.5 315 c 128,-1,67
 184 301 184 301 179 280 c 256,56,57
463 90 m 256,68,69
 458 69 458 69 470 54 c 128,-1,70
 482 39 482 39 503 39 c 256,71,72
 525 39 525 39 543 54 c 128,-1,73
 561 69 561 69 565 90 c 256,74,75
 570 112 570 112 558 127 c 128,-1,76
 546 142 546 142 525 142 c 256,77,78
 503 142 503 142 485 127 c 128,-1,79
 467 112 467 112 463 90 c 256,68,69
EndSplineSet
EndChar
StartChar: uni0E0A
Encoding: 3594 3594 221
Width: 634
VWidth: 1507
Flags: W
HStem: -9 57<325.126 419.697> 309 48<197.386 272.152> 454 40<239.385 284.887> 550 57<273.501 381.04>
Fore
225 167 m 2,0,1
 237 220 237 220 273 266 c 128,-1,2
 309 312 309 312 353 359 c 0,3,4
 392 396 392 396 401 437 c 0,5,6
 410 481 410 481 390.5 515.5 c 128,-1,7
 371 550 371 550 333 550 c 0,8,9
 303 550 303 550 276 533.5 c 128,-1,10
 249 517 249 517 232 491 c 1,11,12
 240 493 240 493 246 493.5 c 128,-1,13
 252 494 252 494 259 494 c 0,14,15
 306 494 306 494 332.5 469.5 c 128,-1,16
 359 445 359 445 351 405 c 0,17,18
 342 366 342 366 304.5 337.5 c 128,-1,19
 267 309 267 309 220 309 c 0,20,21
 164 309 164 309 138.5 347.5 c 128,-1,22
 113 386 113 386 124 437 c 0,23,24
 131 472 131 472 152 503 c 128,-1,25
 173 534 173 534 202.5 557 c 128,-1,26
 232 580 232 580 269 593.5 c 128,-1,27
 306 607 306 607 345 607 c 0,28,29
 411 607 411 607 453.5 567.5 c 128,-1,30
 496 528 496 528 497 470 c 1,31,-1
 520 479 l 2,32,33
 534 484 534 484 548 496 c 128,-1,34
 562 508 562 508 573.5 524.5 c 128,-1,35
 585 541 585 541 594 559 c 128,-1,36
 603 577 603 577 606 594 c 2,37,38
 609 601 609 601 609 606.5 c 128,-1,39
 609 612 609 612 609 626 c 1,40,41
 647 626 647 626 672.5 608.5 c 128,-1,42
 698 591 698 591 689 567 c 0,43,44
 677 535 677 535 650.5 503.5 c 128,-1,45
 624 472 624 472 589 457 c 1,46,47
 612 436 612 436 616.5 402.5 c 128,-1,48
 621 369 621 369 613 327 c 2,49,-1
 573 139 l 2,50,51
 565 106 565 106 545 78.5 c 128,-1,52
 525 51 525 51 496 31.5 c 128,-1,53
 467 12 467 12 432.5 1.5 c 128,-1,54
 398 -9 398 -9 363 -9 c 256,55,56
 329 -9 329 -9 299.5 1.5 c 128,-1,57
 270 12 270 12 249.5 31.5 c 128,-1,58
 229 51 229 51 220 78.5 c 128,-1,59
 211 106 211 106 219 139 c 2,60,-1
 225 167 l 2,0,1
511 433 m 1,61,62
 499 436 499 436 494 439 c 1,63,-1
 494 437 l 1,64,65
 488 410 488 410 465 380 c 128,-1,66
 442 350 442 350 411 320 c 0,67,68
 378 289 378 289 353.5 252.5 c 128,-1,69
 329 216 329 216 317 167 c 2,70,-1
 311 139 l 2,71,72
 303 99 303 99 322 73.5 c 128,-1,73
 341 48 341 48 375 48 c 256,74,75
 410 48 410 48 440 72 c 128,-1,76
 470 96 470 96 479 139 c 2,77,-1
 520 327 l 2,78,79
 532 383 532 383 528.5 405 c 128,-1,80
 525 427 525 427 511 433 c 1,61,62
193 405 m 256,81,82
 188 384 188 384 199 370.5 c 128,-1,83
 210 357 210 357 231 357 c 256,84,85
 252 357 252 357 268.5 370.5 c 128,-1,86
 285 384 285 384 289 405 c 256,87,88
 294 427 294 427 282.5 440.5 c 128,-1,89
 271 454 271 454 250 454 c 256,90,91
 229 454 229 454 213 440.5 c 128,-1,92
 197 427 197 427 193 405 c 256,81,82
EndSplineSet
EndChar
StartChar: uni0E0B
Encoding: 3595 3595 222
Width: 634
VWidth: 1507
Flags: W
HStem: -9 57<325.126 419.697> 309 48<197.386 272.152> 454 40<230.221 284.887> 587 20G<282.5 307.5 386 423>
Fore
225 167 m 2,0,1
 237 220 237 220 273 266 c 128,-1,2
 309 312 309 312 353 359 c 0,3,4
 392 396 392 396 401 437 c 0,5,6
 407 466 407 466 405.5 498.5 c 128,-1,7
 404 531 404 531 395 546 c 1,8,9
 383 536 l 128,-1,10
 377 531 377 531 372 526 c 0,11,12
 366 520 366 520 360 517 c 2,13,14
 345 505 345 505 326 505 c 128,-1,15
 307 505 307 505 297 517 c 0,16,17
 294 522 294 522 289 528 c 0,18,19
 286 532 286 532 281.5 537.5 c 128,-1,20
 277 543 277 543 274 547 c 1,21,22
 264 540 264 540 252 524.5 c 128,-1,23
 240 509 240 509 229 490 c 1,24,25
 244 494 244 494 259 494 c 0,26,27
 306 494 306 494 332.5 469.5 c 128,-1,28
 359 445 359 445 351 405 c 0,29,30
 342 366 342 366 304.5 337.5 c 128,-1,31
 267 309 267 309 220 309 c 0,32,33
 164 309 164 309 138.5 347.5 c 128,-1,34
 113 386 113 386 124 437 c 0,35,36
 130 464 130 464 145 493.5 c 128,-1,37
 160 523 160 523 181 549 c 0,38,39
 205 576 205 576 235 591.5 c 128,-1,40
 265 607 265 607 300 607 c 0,41,42
 315 607 315 607 325 599 c 128,-1,43
 335 591 335 591 342 583 c 1,44,45
 351 591 351 591 364 599 c 128,-1,46
 377 607 377 607 395 607 c 0,47,48
 451 607 451 607 476.5 566 c 128,-1,49
 502 525 502 525 499 470 c 1,50,51
 502 473 502 473 508 474.5 c 128,-1,52
 514 476 514 476 520 479 c 0,53,54
 534 484 534 484 548 496 c 128,-1,55
 562 508 562 508 573.5 524.5 c 128,-1,56
 585 541 585 541 594 559 c 128,-1,57
 603 577 603 577 606 594 c 2,58,59
 609 601 609 601 609 606.5 c 128,-1,60
 609 612 609 612 609 626 c 1,61,62
 647 626 647 626 672.5 608.5 c 128,-1,63
 698 591 698 591 689 567 c 0,64,65
 677 535 677 535 650.5 503.5 c 128,-1,66
 624 472 624 472 589 457 c 1,67,68
 612 436 612 436 616.5 402.5 c 128,-1,69
 621 369 621 369 613 327 c 2,70,-1
 573 139 l 2,71,72
 565 106 565 106 545 78.5 c 128,-1,73
 525 51 525 51 496 31.5 c 128,-1,74
 467 12 467 12 432.5 1.5 c 128,-1,75
 398 -9 398 -9 363 -9 c 256,76,77
 329 -9 329 -9 299.5 1.5 c 128,-1,78
 270 12 270 12 249.5 31.5 c 128,-1,79
 229 51 229 51 220 78.5 c 128,-1,80
 211 106 211 106 219 139 c 2,81,-1
 225 167 l 2,0,1
511 433 m 1,82,83
 499 436 499 436 494 439 c 1,84,-1
 494 437 l 1,85,86
 488 410 488 410 465 380 c 128,-1,87
 442 350 442 350 411 320 c 0,88,89
 378 289 378 289 353.5 252.5 c 128,-1,90
 329 216 329 216 317 167 c 2,91,-1
 311 139 l 2,92,93
 303 99 303 99 322 73.5 c 128,-1,94
 341 48 341 48 375 48 c 256,95,96
 410 48 410 48 440 72 c 128,-1,97
 470 96 470 96 479 139 c 2,98,-1
 520 327 l 2,99,100
 532 383 532 383 528.5 405 c 128,-1,101
 525 427 525 427 511 433 c 1,82,83
193 405 m 256,102,103
 188 384 188 384 199 370.5 c 128,-1,104
 210 357 210 357 231 357 c 256,105,106
 252 357 252 357 268.5 370.5 c 128,-1,107
 285 384 285 384 289 405 c 256,108,109
 294 427 294 427 282.5 440.5 c 128,-1,110
 271 454 271 454 250 454 c 256,111,112
 229 454 229 454 213 440.5 c 128,-1,113
 197 427 197 427 193 405 c 256,102,103
EndSplineSet
EndChar
StartChar: uni0E0C
Encoding: 3596 3596 223
Width: 939
VWidth: 1507
Flags: W
HStem: -9 48<199.667 275.152 433.366 508.76> 136 46<246.066 288.09 446.723 516.94> 550 57<371.44 486.122>
Fore
246 181 m 1,0,1
 250 182 250 182 264 182 c 0,2,3
 311 182 311 182 336.5 154.5 c 128,-1,4
 362 127 362 127 354 87 c 0,5,6
 345 48 345 48 307.5 19.5 c 128,-1,7
 270 -9 270 -9 223 -9 c 256,8,9
 176 -9 176 -9 150.5 19.5 c 128,-1,10
 125 48 125 48 134 87 c 2,11,-1
 178 291 l 1,12,13
 176 294 176 294 171.5 310 c 128,-1,14
 167 326 167 326 161 344 c 0,15,16
 155 365 155 365 146 390 c 1,17,18
 140 401 140 401 145 405 c 1,19,20
 154 451 154 451 184 488 c 128,-1,21
 214 525 214 525 256 552 c 128,-1,22
 298 579 298 579 347 593 c 128,-1,23
 396 607 396 607 443 607 c 0,24,25
 488 607 488 607 531 593.5 c 128,-1,26
 574 580 574 580 605 554 c 128,-1,27
 636 528 636 528 651 490 c 128,-1,28
 666 452 666 452 656 405 c 2,29,-1
 600 146 l 1,30,-1
 767 66 l 1,31,-1
 868 540 l 2,32,33
 874 567 874 567 905 586.5 c 128,-1,34
 936 606 936 606 975 606 c 1,35,-1
 859 57 l 2,36,37
 852 29 852 29 824 10 c 128,-1,38
 796 -9 796 -9 761 -9 c 1,39,-1
 585 74 l 1,40,41
 573 38 573 38 536.5 14.5 c 128,-1,42
 500 -9 500 -9 457 -9 c 0,43,44
 410 -9 410 -9 383.5 19.5 c 128,-1,45
 357 48 357 48 366 87 c 0,46,47
 374 127 374 127 412.5 154.5 c 128,-1,48
 451 182 451 182 497 182 c 0,49,50
 509 182 509 182 515 181 c 1,51,-1
 564 405 l 2,52,53
 570 434 570 434 561.5 459.5 c 128,-1,54
 553 485 553 485 535 505.5 c 128,-1,55
 517 526 517 526 490.5 538 c 128,-1,56
 464 550 464 550 431 550 c 256,57,58
 398 550 398 550 366.5 539 c 128,-1,59
 335 528 335 528 309 509 c 128,-1,60
 283 490 283 490 264.5 465 c 128,-1,61
 246 440 246 440 238 413 c 1,62,63
 238 408 238 408 243.5 392.5 c 128,-1,64
 249 377 249 377 255 359 c 0,65,66
 261 338 261 338 270 314 c 1,67,-1
 271 298 l 1,68,-1
 246 181 l 1,0,1
196 87 m 256,69,70
 191 66 191 66 202 52.5 c 128,-1,71
 213 39 213 39 234 39 c 256,72,73
 255 39 255 39 271.5 52.5 c 128,-1,74
 288 66 288 66 292 87 c 256,75,76
 297 109 297 109 286.5 122.5 c 128,-1,77
 276 136 276 136 255 136 c 256,78,79
 234 136 234 136 217 122.5 c 128,-1,80
 200 109 200 109 196 87 c 256,69,70
430 87 m 256,81,82
 425 66 425 66 435.5 52.5 c 128,-1,83
 446 39 446 39 467 39 c 256,84,85
 488 39 488 39 505 52.5 c 128,-1,86
 522 66 522 66 526 87 c 256,87,88
 531 109 531 109 520 122.5 c 128,-1,89
 509 136 509 136 488 136 c 256,90,91
 467 136 467 136 450.5 122.5 c 128,-1,92
 434 109 434 109 430 87 c 256,81,82
EndSplineSet
EndChar
StartChar: uni0E0D
Encoding: 3597 3597 224
Width: 908
VWidth: 1507
Flags: W
HStem: -267 57<565.872 634.863> -81 43<516.84 576.966> -9 63<585.118 690.305> -9 48<199.667 275.152> 136 46<246.066 288.09> 550 57<333.744 468.22>
VStem: 582 60<-155.593 -125 -125 -99.4875> 691 91<-137.716 -98 -98 -68.7207>
Fore
264 182 m 0,0,1
 311 182 311 182 336.5 154.5 c 128,-1,2
 362 127 362 127 354 87 c 0,3,4
 345 48 345 48 307.5 19.5 c 128,-1,5
 270 -9 270 -9 223 -9 c 256,6,7
 176 -9 176 -9 150.5 19.5 c 128,-1,8
 125 48 125 48 134 87 c 2,9,-1
 178 291 l 1,10,11
 176 294 176 294 171.5 310 c 128,-1,12
 167 326 167 326 161 344 c 0,13,14
 155 365 155 365 146 390 c 1,15,16
 140 401 140 401 145 405 c 1,17,18
 154 448 154 448 179.5 485 c 128,-1,19
 205 522 205 522 243.5 549 c 128,-1,20
 282 576 282 576 328.5 591.5 c 128,-1,21
 375 607 375 607 428 607 c 0,22,23
 479 607 479 607 520 591.5 c 128,-1,24
 561 576 561 576 588 549 c 128,-1,25
 615 522 615 522 625.5 485 c 128,-1,26
 636 448 636 448 627 405 c 2,27,-1
 570 139 l 2,28,29
 562 102 562 102 583 78 c 128,-1,30
 604 54 604 54 644 54 c 256,31,32
 683 54 683 54 714 78 c 128,-1,33
 745 102 745 102 752 139 c 2,34,-1
 838 540 l 2,35,36
 844 567 844 567 875 586.5 c 128,-1,37
 906 606 906 606 945 606 c 1,38,-1
 846 139 l 2,39,40
 838 106 838 106 817 78.5 c 128,-1,41
 796 51 796 51 766 31.5 c 128,-1,42
 736 12 736 12 700.5 1.5 c 128,-1,43
 665 -9 665 -9 630 -9 c 256,44,45
 595 -9 595 -9 565 1 c 128,-1,46
 535 11 535 11 513 30.5 c 128,-1,47
 491 50 491 50 480.5 77 c 128,-1,48
 470 104 470 104 478 139 c 2,49,-1
 535 405 l 2,50,51
 541 437 541 437 534.5 463.5 c 128,-1,52
 528 490 528 490 511 509.5 c 128,-1,53
 494 529 494 529 469.5 539.5 c 128,-1,54
 445 550 445 550 416 550 c 0,55,56
 362 550 362 550 310.5 514 c 128,-1,57
 259 478 259 478 238 413 c 1,58,59
 238 408 238 408 243.5 392.5 c 128,-1,60
 249 377 249 377 255 359 c 0,61,62
 261 338 261 338 270 314 c 1,63,-1
 271 298 l 1,64,-1
 246 181 l 1,65,66
 250 182 250 182 264 182 c 0,0,1
642 -125 m 0,67,68
 636 -152 636 -152 613.5 -172.5 c 128,-1,69
 591 -193 591 -193 561 -202 c 1,70,71
 576 -210 576 -210 585 -210 c 0,72,73
 610 -210 610 -210 631.5 -194 c 128,-1,74
 653 -178 653 -178 668 -153 c 128,-1,75
 683 -128 683 -128 691 -98 c 128,-1,76
 699 -68 699 -68 698 -39 c 1,77,78
 742 -39 742 -39 765 -55 c 128,-1,79
 788 -71 788 -71 782 -95 c 0,80,81
 775 -127 775 -127 756 -157.5 c 128,-1,82
 737 -188 737 -188 709 -212.5 c 128,-1,83
 681 -237 681 -237 646.5 -252 c 128,-1,84
 612 -267 612 -267 573 -267 c 0,85,86
 541 -267 541 -267 513 -256.5 c 128,-1,87
 485 -246 485 -246 465.5 -227 c 128,-1,88
 446 -208 446 -208 437 -181.5 c 128,-1,89
 428 -155 428 -155 436 -125 c 0,90,91
 443 -90 443 -90 477.5 -64 c 128,-1,92
 512 -38 512 -38 556 -38 c 256,93,94
 600 -38 600 -38 625 -64 c 128,-1,95
 650 -90 650 -90 642 -125 c 0,67,68
196 87 m 256,96,97
 191 66 191 66 202 52.5 c 128,-1,98
 213 39 213 39 234 39 c 256,99,100
 255 39 255 39 271.5 52.5 c 128,-1,101
 288 66 288 66 292 87 c 256,102,103
 297 109 297 109 286.5 122.5 c 128,-1,104
 276 136 276 136 255 136 c 256,105,106
 234 136 234 136 217 122.5 c 128,-1,107
 200 109 200 109 196 87 c 256,96,97
494 -125 m 0,108,109
 490 -143 490 -143 500.5 -156 c 128,-1,110
 511 -169 511 -169 529 -169 c 256,111,112
 547 -169 547 -169 562 -156 c 128,-1,113
 577 -143 577 -143 582 -125 c 0,114,115
 585 -107 585 -107 575 -94 c 128,-1,116
 565 -81 565 -81 547 -81 c 256,117,118
 529 -81 529 -81 513 -94 c 128,-1,119
 497 -107 497 -107 494 -125 c 0,108,109
EndSplineSet
Substitution2: "Single Substitution lookup 22 subtable" uni0E0D.alt1
Substitution2: "Single Substitution lookup 22 subtable" uni0E0D.alt1
EndChar
StartChar: uni0E0E
Encoding: 3598 3598 225
AltUni2: 00f71b.ffffffff.0
Width: 688
VWidth: 1507
Flags: W
HStem: -9 48<127.41 202.561> 136 46<140.821 210.913> 550 57<397.844 512.872>
VStem: 109 73<-200.9 -181 -181 -151.893>
Fore
124 87 m 256,0,1
 119 66 119 66 129.5 52.5 c 128,-1,2
 140 39 140 39 161 39 c 256,3,4
 182 39 182 39 199 52.5 c 128,-1,5
 216 66 216 66 220 87 c 256,6,7
 225 109 225 109 214 122.5 c 128,-1,8
 203 136 203 136 182 136 c 256,9,10
 161 136 161 136 144.5 122.5 c 128,-1,11
 128 109 128 109 124 87 c 256,0,1
232 -142 m 0,12,13
 222 -143 222 -143 204.5 -151.5 c 128,-1,14
 187 -160 187 -160 182 -181 c 0,15,16
 179 -197 179 -197 191 -207 c 128,-1,17
 203 -217 203 -217 216 -219 c 0,18,19
 231 -220 231 -220 254 -205.5 c 128,-1,20
 277 -191 277 -191 298 -164 c 1,21,22
 279 -148 279 -148 263 -143.5 c 128,-1,23
 247 -139 247 -139 232 -142 c 0,12,13
191 182 m 0,24,25
 203 182 203 182 210 181 c 1,26,-1
 232 288 l 1,27,28
 229 292 229 292 220 309.5 c 128,-1,29
 211 327 211 327 199 347 c 0,30,31
 185 369 185 369 169 396 c 1,32,33
 169 402 169 402 170 405 c 2,34,35
 179 451 179 451 210 488.5 c 128,-1,36
 241 526 241 526 282.5 552.5 c 128,-1,37
 324 579 324 579 373 593 c 128,-1,38
 422 607 422 607 469 607 c 0,39,40
 514 607 514 607 557 593.5 c 128,-1,41
 600 580 600 580 631.5 554 c 128,-1,42
 663 528 663 528 678 490 c 128,-1,43
 693 452 693 452 683 405 c 2,44,-1
 573 -109 l 2,45,46
 570 -118 570 -118 563 -130 c 128,-1,47
 556 -142 556 -142 546 -149 c 0,48,49
 512 -176 512 -176 477 -205.5 c 128,-1,50
 442 -235 442 -235 410 -261 c 0,51,52
 402 -267 402 -267 391.5 -268.5 c 128,-1,53
 381 -270 381 -270 374 -268 c 0,54,55
 365 -267 365 -267 356.5 -262.5 c 128,-1,56
 348 -258 348 -258 347 -250 c 0,57,58
 344 -231 344 -231 336 -214 c 1,59,60
 268 -273 268 -273 193 -268 c 0,61,62
 146 -265 146 -265 123.5 -242 c 128,-1,63
 101 -219 101 -219 109 -181 c 0,64,65
 116 -145 116 -145 147.5 -121.5 c 128,-1,66
 179 -98 179 -98 228 -90 c 0,67,68
 286 -83 286 -83 341 -112 c 1,69,70
 357 -89 357 -89 383 -42 c 1,71,72
 413 -54 413 -54 426 -74.5 c 128,-1,73
 439 -95 439 -95 425 -113 c 0,74,75
 415 -125 415 -125 407 -135 c 128,-1,76
 399 -145 399 -145 392 -155 c 1,77,78
 401 -166.5 l 0,79,80
 410 -178 410 -178 413 -190 c 1,81,-1
 473 -142 l 1,82,-1
 589 405 l 2,83,84
 595 434 595 434 587.5 459.5 c 128,-1,85
 580 485 580 485 562 505.5 c 128,-1,86
 544 526 544 526 517 538 c 128,-1,87
 490 550 490 550 457 550 c 0,88,89
 425 550 425 550 393.5 539 c 128,-1,90
 362 528 362 528 336.5 509 c 128,-1,91
 311 490 311 490 292 465 c 128,-1,92
 273 440 273 440 265 413 c 1,93,94
 267 408 267 408 275 392.5 c 128,-1,95
 283 377 283 377 294 360 c 0,96,97
 306 341 306 341 320 317 c 0,98,99
 327 303 327 303 326 297 c 2,100,-1
 282 87 l 2,101,102
 273 48 273 48 235 19.5 c 128,-1,103
 197 -9 197 -9 151 -9 c 256,104,105
 104 -9 104 -9 78.5 19.5 c 128,-1,106
 53 48 53 48 62 87 c 0,107,108
 69 127 69 127 107 154.5 c 128,-1,109
 145 182 145 182 191 182 c 0,24,25
EndSplineSet
Substitution2: "Single Substitution lookup 22 subtable" uni0E0E.alt1
Substitution2: "Single Substitution lookup 22 subtable" uni0E0E.alt1
EndChar
StartChar: uni0E0F
Encoding: 3599 3599 226
AltUni2: 00f71c.ffffffff.0
Width: 687
VWidth: 1507
Flags: W
HStem: -9 48<126.278 201.179> 136 46<139.681 209.56> 550 57<397.844 512.872>
VStem: 12 72<-200.534 -151.893> 62 60<57.3622 87 87 122.076>
Fore
122 87 m 256,0,1
 118 66 118 66 128.5 52.5 c 128,-1,2
 139 39 139 39 160 39 c 256,3,4
 181 39 181 39 197.5 52.5 c 128,-1,5
 214 66 214 66 219 87 c 256,6,7
 223 109 223 109 212.5 122.5 c 128,-1,8
 202 136 202 136 181 136 c 256,9,10
 160 136 160 136 143.5 122.5 c 128,-1,11
 127 109 127 109 122 87 c 256,0,1
191 182 m 0,12,13
 203 182 203 182 210 181 c 1,14,-1
 232 288 l 1,15,-1
 169 396 l 1,16,17
 169 401 169 401 170 405 c 0,18,19
 179 451 179 451 210 488.5 c 128,-1,20
 241 526 241 526 282.5 552.5 c 128,-1,21
 324 579 324 579 373 593 c 128,-1,22
 422 607 422 607 469 607 c 0,23,24
 514 607 514 607 557 593.5 c 128,-1,25
 600 580 600 580 631.5 554 c 128,-1,26
 663 528 663 528 678 490 c 128,-1,27
 693 452 693 452 683 405 c 2,28,-1
 562 -158 l 2,29,30
 561 -164 561 -164 553.5 -174.5 c 128,-1,31
 546 -185 546 -185 535 -193 c 2,32,-1
 452 -261 l 2,33,34
 436 -273 436 -273 419 -273 c 128,-1,35
 402 -273 402 -273 395 -261 c 2,36,-1
 363 -220 l 1,37,-1
 314 -261 l 2,38,39
 306 -267 306 -267 296 -268.5 c 128,-1,40
 286 -270 286 -270 276 -268 c 0,41,42
 264 -267 264 -267 256.5 -261 c 128,-1,43
 249 -255 249 -255 247 -249 c 0,44,45
 246 -240 246 -240 243.5 -231 c 128,-1,46
 241 -222 241 -222 238 -214 c 1,47,48
 172 -273 172 -273 95 -268 c 0,49,50
 48 -265 48 -265 26.5 -242 c 128,-1,51
 5 -219 5 -219 12 -181 c 0,52,53
 20 -145 20 -145 50.5 -121.5 c 128,-1,54
 81 -98 81 -98 130 -90 c 0,55,56
 191 -83 191 -83 241 -112 c 1,57,58
 253 -98 253 -98 263 -82 c 128,-1,59
 273 -66 273 -66 285 -44 c 1,60,61
 315 -54 315 -54 327 -75 c 128,-1,62
 339 -96 339 -96 327 -113 c 2,63,-1
 292 -157 l 1,64,65
 307 -172 307 -172 318 -193 c 1,66,-1
 353 -164 l 2,67,68
 386 -139 386 -139 408 -164 c 2,69,-1
 439 -202 l 1,70,-1
 464 -184 l 1,71,-1
 589 405 l 2,72,73
 595 434 595 434 587.5 459.5 c 128,-1,74
 580 485 580 485 562 505.5 c 128,-1,75
 544 526 544 526 517 538 c 128,-1,76
 490 550 490 550 457 550 c 0,77,78
 425 550 425 550 393.5 539 c 128,-1,79
 362 528 362 528 336.5 509 c 128,-1,80
 311 490 311 490 292 465 c 128,-1,81
 273 440 273 440 265 413 c 1,82,83
 268 408 268 408 275.5 392.5 c 128,-1,84
 283 377 283 377 294 360 c 0,85,86
 304 341 304 341 320 317 c 0,87,88
 327 303 327 303 326 297 c 2,89,-1
 282 87 l 2,90,91
 273 48 273 48 235 19.5 c 128,-1,92
 197 -9 197 -9 151 -9 c 256,93,94
 104 -9 104 -9 78.5 19.5 c 128,-1,95
 53 48 53 48 62 87 c 0,96,97
 69 127 69 127 107 154.5 c 128,-1,98
 145 182 145 182 191 182 c 0,12,13
118 -219 m 0,99,100
 134 -220 134 -220 157.5 -207 c 128,-1,101
 181 -194 181 -194 202 -164 c 1,102,103
 182 -148 182 -148 166.5 -143.5 c 128,-1,104
 151 -139 151 -139 136 -142 c 0,105,106
 124 -143 124 -143 106.5 -151.5 c 128,-1,107
 89 -160 89 -160 84 -181 c 0,108,109
 81 -197 81 -197 93.5 -207 c 128,-1,110
 106 -217 106 -217 118 -219 c 0,99,100
EndSplineSet
Substitution2: "Single Substitution lookup 22 subtable" uni0E0F.alt1
Substitution2: "Single Substitution lookup 22 subtable" uni0E0F.alt1
EndChar
StartChar: uni0E10
Encoding: 3600 3600 227
Width: 610
VWidth: 1507
Flags: W
HStem: -298 42<83.4951 118.136> -233 20G<313.5 326> -193 45<92.2052 147.141 346.252 376.895> -72 43<357.587 412.992> -9 21G<405.03 431> 102 49<261.871 337.213> 247 47<286.781 348.666> 550 57<348.064 469.045>
VStem: 280 61<-135.125 -82.8297> 416 59<-126.275 -110 -110 -85.5817>
Fore
377 -193 m 1,0,-1
 360 -193 l 2,1,2
 321 -193 321 -193 297 -169 c 128,-1,3
 273 -145 273 -145 280 -110 c 0,4,5
 288 -77 288 -77 321 -53 c 128,-1,6
 354 -29 354 -29 395 -29 c 0,7,8
 434 -29 434 -29 458 -53 c 128,-1,9
 482 -77 482 -77 475 -110 c 2,10,-1
 455 -203 l 2,11,12
 452 -217 452 -217 434 -234 c 0,13,14
 431 -237 431 -237 420.5 -246 c 128,-1,15
 410 -255 410 -255 398 -265 c 0,16,17
 384 -277 384 -277 368 -291 c 0,18,19
 360 -298 360 -298 341 -298 c 0,20,21
 324 -298 324 -298 317 -291 c 1,22,-1
 295 -261 l 1,23,-1
 259 -291 l 2,24,25
 255 -295 255 -295 246.5 -296.5 c 128,-1,26
 238 -298 238 -298 231 -298 c 0,27,28
 219 -298 219 -298 211 -285 c 0,29,30
 203 -273 203 -273 203 -272 c 128,-1,31
 203 -271 203 -271 197 -261 c 1,32,33
 176 -277 176 -277 147 -287.5 c 128,-1,34
 118 -298 118 -298 89 -298 c 0,35,36
 50 -298 50 -298 29.5 -276.5 c 128,-1,37
 9 -255 9 -255 17 -225 c 0,38,39
 24 -190 24 -190 55.5 -169 c 128,-1,40
 87 -148 87 -148 127 -148 c 0,41,42
 151 -148 151 -148 169 -151 c 128,-1,43
 187 -154 187 -154 203 -163 c 1,44,45
 208 -154 208 -154 215.5 -139.5 c 128,-1,46
 223 -125 223 -125 234 -101 c 1,47,48
 264 -115 264 -115 269 -130.5 c 128,-1,49
 274 -146 274 -146 271 -163 c 0,50,51
 265 -182 265 -182 246 -205 c 1,52,-1
 270 -238 l 1,53,-1
 289 -220 l 2,54,55
 292 -217 292 -217 299.5 -215 c 128,-1,56
 307 -213 307 -213 320 -213 c 256,57,58
 332 -213 332 -213 335.5 -215 c 128,-1,59
 339 -217 339 -217 342 -220 c 2,60,-1
 360 -244 l 1,61,-1
 368 -237 l 1,62,-1
 377 -193 l 1,0,-1
99 -256 m 0,63,64
 112 -256 112 -256 131.5 -244 c 128,-1,65
 151 -232 151 -232 167 -210 c 1,66,67
 152 -197 152 -197 140 -194 c 128,-1,68
 128 -191 128 -191 118 -191 c 0,69,70
 110 -191 110 -191 95 -198.5 c 128,-1,71
 80 -206 80 -206 77 -225 c 0,72,73
 74 -238 74 -238 83 -247 c 128,-1,74
 92 -256 92 -256 99 -256 c 0,63,64
413 607 m 0,75,76
 466 607 466 607 506 589 c 128,-1,77
 546 571 546 571 570 543 c 1,78,-1
 618 607 l 1,79,80
 651 591 651 591 659.5 567.5 c 128,-1,81
 668 544 668 544 653 523 c 2,82,-1
 600 449 l 2,83,84
 576 416 576 416 551 419 c 128,-1,85
 526 422 526 422 520 449 c 0,86,87
 511 493 511 493 478 521.5 c 128,-1,88
 445 550 445 550 401 550 c 0,89,90
 356 550 356 550 314.5 518.5 c 128,-1,91
 273 487 273 487 250 448 c 1,92,-1
 526 377 l 2,93,94
 547 369 547 369 561.5 351 c 128,-1,95
 576 333 576 333 570 312 c 2,96,-1
 517 57 l 2,97,98
 509 29 509 29 479 10 c 128,-1,99
 449 -9 449 -9 413 -9 c 1,100,-1
 360 124 l 1,101,102
 326 102 326 102 285 102 c 0,103,104
 240 102 240 102 213.5 131 c 128,-1,105
 187 160 187 160 196 199 c 0,106,107
 200 219 200 219 212.5 236 c 128,-1,108
 225 253 225 253 242 266 c 128,-1,109
 259 279 259 279 281 286.5 c 128,-1,110
 303 294 303 294 326 294 c 0,111,112
 359 294 359 294 382 280.5 c 128,-1,113
 405 267 405 267 415 244 c 2,114,-1
 443 146 l 1,115,-1
 481 323 l 1,116,117
 404 342 404 342 329.5 362.5 c 128,-1,118
 255 383 255 383 178 402 c 0,119,120
 164 405 164 405 156 414.5 c 128,-1,121
 148 424 148 424 151 436 c 0,122,123
 163 472 163 472 188.5 503.5 c 128,-1,124
 214 535 214 535 248.5 558.5 c 128,-1,125
 283 582 283 582 325.5 594.5 c 128,-1,126
 368 607 368 607 413 607 c 0,75,76
258 199 m 0,127,128
 253 178 253 178 263.5 164.5 c 128,-1,129
 274 151 274 151 295 151 c 256,130,131
 317 151 317 151 333.5 164.5 c 128,-1,132
 350 178 350 178 354 199 c 0,133,134
 357 220 357 220 346.5 233.5 c 128,-1,135
 336 247 336 247 315 247 c 256,136,137
 294 247 294 247 277.5 233.5 c 128,-1,138
 261 220 261 220 258 199 c 0,127,128
341 -110 m 256,139,140
 338 -127 338 -127 346 -137.5 c 128,-1,141
 354 -148 354 -148 371 -148 c 256,142,143
 387 -148 387 -148 400 -137.5 c 128,-1,144
 413 -127 413 -127 416 -110 c 256,145,146
 419 -93 419 -93 410.5 -82.5 c 128,-1,147
 402 -72 402 -72 386 -72 c 256,148,149
 369 -72 369 -72 356.5 -82.5 c 128,-1,150
 344 -93 344 -93 341 -110 c 256,139,140
EndSplineSet
Substitution2: "Single Substitution lookup 22 subtable" uni0E10.alt1
Substitution2: "Single Substitution lookup 22 subtable" uni0E10.alt1
EndChar
StartChar: uni0E11
Encoding: 3601 3601 228
Width: 764
VWidth: 1507
Flags: W
HStem: -9 21G<273 340.5 581.28 596.5> 309 48<197.032 272.357> 454 40<230.221 284.914> 587 20G<282.5 307.5 386.5 412 677.5 710.5>
VStem: 405.5 92.5<442.468 498.5 498.5 545.354>
Fore
274 547 m 1,0,1
 264 540 264 540 252 524.5 c 128,-1,2
 240 509 240 509 229 490 c 1,3,4
 244 494 244 494 259 494 c 0,5,6
 306 494 306 494 333 469.5 c 128,-1,7
 360 445 360 445 353 405 c 0,8,9
 344 366 344 366 305.5 337.5 c 128,-1,10
 267 309 267 309 220 309 c 0,11,12
 166 309 166 309 139.5 347.5 c 128,-1,13
 113 386 113 386 124 437 c 0,14,15
 130 464 130 464 145.5 493.5 c 128,-1,16
 161 523 161 523 182 549 c 0,17,18
 205 576 205 576 235 591.5 c 128,-1,19
 265 607 265 607 300 607 c 0,20,21
 315 607 315 607 325 599 c 128,-1,22
 335 591 335 591 342 583 c 1,23,24
 351 591 351 591 364 599 c 128,-1,25
 377 607 377 607 396 607 c 0,26,27
 428 607 428 607 450 592 c 128,-1,28
 472 577 472 577 484 553 c 128,-1,29
 496 529 496 529 498 499 c 128,-1,30
 500 469 500 469 494 437 c 0,31,32
 488 410 488 410 465 380 c 128,-1,33
 442 350 442 350 411 320 c 0,34,35
 378 289 378 289 361 254.5 c 128,-1,36
 344 220 344 220 333 172 c 1,37,-1
 639 591 l 2,38,39
 645 598 645 598 658 602.5 c 128,-1,40
 671 607 671 607 684 607 c 0,41,42
 737 607 737 607 762.5 579.5 c 128,-1,43
 788 552 788 552 779 505 c 2,44,-1
 684 57 l 2,45,46
 677 29 677 29 646.5 10 c 128,-1,47
 616 -9 616 -9 577 -9 c 1,48,-1
 687 505 l 2,49,50
 689 514 689 514 690.5 521 c 128,-1,51
 692 528 692 528 689 534 c 1,52,53
 589 396 589 396 489.5 262 c 128,-1,54
 390 128 390 128 291 -9 c 1,55,56
 255 -9 255 -9 232.5 10 c 128,-1,57
 210 29 210 29 217 57 c 2,58,-1
 240 167 l 2,59,60
 252 220 252 220 279 265.5 c 128,-1,61
 306 311 306 311 354 359 c 0,62,63
 372 377 372 377 384 396 c 128,-1,64
 396 415 396 415 401 437 c 0,65,66
 407 466 407 466 405.5 498.5 c 128,-1,67
 404 531 404 531 395 546 c 1,68,69
 389 541 389 541 383.5 536 c 128,-1,70
 378 531 378 531 372 526 c 2,71,72
 366 520 366 520 360 517 c 2,73,74
 345 505 345 505 326 505 c 128,-1,75
 307 505 307 505 297 517 c 0,76,77
 294 522 294 522 289 528 c 0,78,79
 286 532 286 532 281.5 537.5 c 128,-1,80
 277 543 277 543 274 547 c 1,0,1
193 405 m 256,81,82
 188 384 188 384 199 370.5 c 128,-1,83
 210 357 210 357 231 357 c 256,84,85
 252 357 252 357 268.5 370.5 c 128,-1,86
 285 384 285 384 289 405 c 256,87,88
 294 427 294 427 282.5 440.5 c 128,-1,89
 271 454 271 454 250 454 c 256,90,91
 229 454 229 454 213 440.5 c 128,-1,92
 197 427 197 427 193 405 c 256,81,82
EndSplineSet
EndChar
StartChar: uni0E12
Encoding: 3602 3602 229
Width: 967
VWidth: 1507
Flags: W
HStem: -9 48<459.342 536.938> 142 46<485.495 545.138> 390 49<397.281 460.387> 587 20G<373 395.5 548.5 572 984.5 999.774>
Fore
203 109 m 1,0,-1
 360 253 l 1,1,2
 330 262 330 262 314 286.5 c 128,-1,3
 298 311 298 311 306 342 c 0,4,5
 311 362 311 362 323 379 c 128,-1,6
 335 396 335 396 352 410 c 128,-1,7
 369 424 369 424 391 431.5 c 128,-1,8
 413 439 413 439 436 439 c 0,9,10
 479 439 479 439 507 410 c 128,-1,11
 535 381 535 381 528 342 c 0,12,13
 522 311 522 311 487 282 c 2,14,-1
 172 -9 l 1,15,16
 137 -9 137 -9 115 10 c 128,-1,17
 93 29 93 29 101 57 c 2,18,-1
 181 434 l 2,19,20
 190 475 190 475 213.5 507.5 c 128,-1,21
 237 540 237 540 266 562.5 c 128,-1,22
 295 585 295 585 327.5 596 c 128,-1,23
 360 607 360 607 386 607 c 0,24,25
 405 607 405 607 413 598 c 0,26,27
 422 589 422 589 431 583 c 1,28,29
 439 576 439 576 446.5 570 c 128,-1,30
 454 564 454 564 461 556 c 1,31,32
 472 564 472 564 484 570.5 c 128,-1,33
 496 577 496 577 506 585 c 2,34,-1
 529 600 l 2,35,36
 538 607 538 607 559 607 c 0,37,38
 585 607 585 607 612 596 c 128,-1,39
 639 585 639 585 659.5 562.5 c 128,-1,40
 680 540 680 540 690.5 507.5 c 128,-1,41
 701 475 701 475 692 434 c 2,42,-1
 632 151 l 1,43,-1
 796 66 l 1,44,-1
 897 540 l 2,45,46
 903 567 903 567 934 586.5 c 128,-1,47
 965 606 965 606 1004 606 c 1,48,-1
 888 57 l 2,49,50
 880 29 880 29 852 10 c 128,-1,51
 824 -9 824 -9 790 -9 c 1,52,-1
 615 78 l 1,53,54
 601 39 601 39 564.5 15 c 128,-1,55
 528 -9 528 -9 484 -9 c 0,56,57
 436 -9 436 -9 408.5 19.5 c 128,-1,58
 381 48 381 48 390 90 c 0,59,60
 395 110 395 110 408 128 c 128,-1,61
 421 146 421 146 439 159.5 c 128,-1,62
 457 173 457 173 479.5 180.5 c 128,-1,63
 502 188 502 188 526 188 c 0,64,65
 540 188 540 188 547 187 c 1,66,-1
 600 434 l 2,67,68
 609 479 609 479 595.5 508.5 c 128,-1,69
 582 538 582 538 562 546 c 1,70,71
 553 540 553 540 539.5 530 c 128,-1,72
 526 520 526 520 512.5 511 c 128,-1,73
 499 502 499 502 488.5 495 c 128,-1,74
 478 488 478 488 475 487 c 1,75,-1
 476 487 l 1,76,77
 442 463 442 463 418 487 c 0,78,79
 404 499 404 499 392 511 c 0,80,81
 381 522 381 522 370.5 531.5 c 128,-1,82
 360 541 360 541 356 546 c 1,83,84
 335 538 335 538 308.5 508.5 c 128,-1,85
 282 479 282 479 273 434 c 2,86,-1
 203 109 l 1,0,-1
368 342 m 256,87,88
 363 321 363 321 373.5 307.5 c 128,-1,89
 384 294 384 294 405 294 c 256,90,91
 427 294 427 294 443.5 307.5 c 128,-1,92
 460 321 460 321 464 342 c 256,93,94
 469 363 469 363 458.5 376.5 c 128,-1,95
 448 390 448 390 427 390 c 256,96,97
 405 390 405 390 388.5 376.5 c 128,-1,98
 372 363 372 363 368 342 c 256,87,88
454 90 m 256,99,100
 449 69 449 69 461 54 c 128,-1,101
 473 39 473 39 494 39 c 256,102,103
 515 39 515 39 533.5 54 c 128,-1,104
 552 69 552 69 556 90 c 256,105,106
 561 112 561 112 549 127 c 128,-1,107
 537 142 537 142 515 142 c 256,108,109
 494 142 494 142 476 127 c 128,-1,110
 458 112 458 112 454 90 c 256,99,100
EndSplineSet
EndChar
StartChar: uni0E13
Encoding: 3603 3603 230
Width: 934
VWidth: 1507
Flags: W
HStem: -9 48<199.667 275.357 746.323 823.388> 136 46<246.066 288.112> 550 57<359.443 481.417>
Fore
264 182 m 0,0,1
 311 182 311 182 337 154.5 c 128,-1,2
 363 127 363 127 356 87 c 0,3,4
 347 48 347 48 308.5 19.5 c 128,-1,5
 270 -9 270 -9 223 -9 c 256,6,7
 176 -9 176 -9 150.5 19.5 c 128,-1,8
 125 48 125 48 134 87 c 2,9,-1
 178 291 l 1,10,11
 176 294 176 294 171.5 310 c 128,-1,12
 167 326 167 326 161 344 c 0,13,14
 155 365 155 365 146 390 c 1,15,16
 140 401 140 401 145 405 c 1,17,18
 154 448 154 448 180 485 c 128,-1,19
 206 522 206 522 244 549 c 128,-1,20
 282 576 282 576 329.5 591.5 c 128,-1,21
 377 607 377 607 430 607 c 0,22,23
 481 607 481 607 521.5 591.5 c 128,-1,24
 562 576 562 576 589 549 c 128,-1,25
 616 522 616 522 627 485 c 128,-1,26
 638 448 638 448 629 405 c 2,27,-1
 558 74 l 1,28,29
 598 95 598 95 644 118.5 c 128,-1,30
 690 142 690 142 730 163 c 0,31,32
 751 175 751 175 760.5 190.5 c 128,-1,33
 770 206 770 206 773 222 c 2,34,-1
 841 540 l 2,35,36
 847 567 847 567 878 586.5 c 128,-1,37
 909 606 909 606 948 606 c 1,38,-1
 867 222 l 2,39,40
 864 213 864 213 860 201.5 c 128,-1,41
 856 190 856 190 850 182 c 1,42,43
 880 170 880 170 896.5 144.5 c 128,-1,44
 913 119 913 119 906 90 c 0,45,46
 897 48 897 48 856 19.5 c 128,-1,47
 815 -9 815 -9 770 -9 c 0,48,49
 728 -9 728 -9 703 12 c 128,-1,50
 678 33 678 33 677 66 c 1,51,-1
 531 -9 l 1,52,53
 496 -9 496 -9 475.5 10 c 128,-1,54
 455 29 455 29 463 57 c 2,55,-1
 537 405 l 2,56,57
 549 470 549 470 517 503 c 0,58,59
 500 525 500 525 474 537.5 c 128,-1,60
 448 550 448 550 418 550 c 256,61,62
 387 550 387 550 355.5 538 c 128,-1,63
 324 526 324 526 297 505 c 0,64,65
 276 488 276 488 261 464 c 128,-1,66
 246 440 246 440 238 415 c 1,67,68
 238 410 238 410 243.5 393.5 c 128,-1,69
 249 377 249 377 255 359 c 0,70,71
 261 338 261 338 270 314 c 1,72,-1
 271 298 l 1,73,-1
 246 181 l 1,74,75
 250 182 250 182 264 182 c 0,0,1
196 87 m 256,76,77
 191 66 191 66 202 52.5 c 128,-1,78
 213 39 213 39 234 39 c 256,79,80
 255 39 255 39 271.5 52.5 c 128,-1,81
 288 66 288 66 292 87 c 256,82,83
 297 109 297 109 286.5 122.5 c 128,-1,84
 276 136 276 136 255 136 c 256,85,86
 234 136 234 136 217 122.5 c 128,-1,87
 200 109 200 109 196 87 c 256,76,77
740 90 m 256,88,89
 736 69 736 69 748 54 c 128,-1,90
 760 39 760 39 781 39 c 256,91,92
 802 39 802 39 820 54 c 128,-1,93
 838 69 838 69 843 90 c 256,94,95
 847 112 847 112 835 127 c 128,-1,96
 823 142 823 142 802 142 c 256,97,98
 781 142 781 142 763 127 c 128,-1,99
 745 112 745 112 740 90 c 256,88,89
EndSplineSet
EndChar
StartChar: uni0E14
Encoding: 3604 3604 231
Width: 690
VWidth: 1507
Flags: W
HStem: -9 21G<154 192.85 507.3 523> 405 49<400.281 463.508> 550 57<398.305 515.811>
Fore
203 113 m 1,0,-1
 363 267 l 1,1,2
 333 277 333 277 317 301.5 c 128,-1,3
 301 326 301 326 309 357 c 0,4,5
 314 377 314 377 326 394 c 128,-1,6
 338 411 338 411 355 425 c 128,-1,7
 372 439 372 439 394 446.5 c 128,-1,8
 416 454 416 454 439 454 c 0,9,10
 485 454 485 454 511.5 425 c 128,-1,11
 538 396 538 396 531 357 c 0,12,13
 523 329 523 329 491 297 c 2,14,-1
 172 -9 l 1,15,16
 136 -9 136 -9 114 10 c 128,-1,17
 92 29 92 29 99 57 c 2,18,-1
 173 405 l 2,19,20
 181 445 181 445 209.5 482.5 c 128,-1,21
 238 520 238 520 282 550 c 0,22,23
 321 577 321 577 370 592 c 128,-1,24
 419 607 419 607 472 607 c 256,25,26
 525 607 525 607 567 592 c 128,-1,27
 609 577 609 577 636 550 c 0,28,29
 701 484 701 484 686 405 c 2,30,-1
 612 57 l 2,31,32
 604 29 604 29 573.5 10 c 128,-1,33
 543 -9 543 -9 503 -9 c 1,34,-1
 592 405 l 2,35,36
 598 434 598 434 590.5 459.5 c 128,-1,37
 583 485 583 485 565 505.5 c 128,-1,38
 547 526 547 526 520 538 c 128,-1,39
 493 550 493 550 460 550 c 256,40,41
 427 550 427 550 394.5 538 c 128,-1,42
 362 526 362 526 335.5 505.5 c 128,-1,43
 309 485 309 485 291 459.5 c 128,-1,44
 273 434 273 434 267 405 c 2,45,-1
 203 113 l 1,0,-1
371 357 m 256,46,47
 366 336 366 336 376.5 322.5 c 128,-1,48
 387 309 387 309 408 309 c 256,49,50
 430 309 430 309 446.5 322.5 c 128,-1,51
 463 336 463 336 467 357 c 256,52,53
 472 378 472 378 461.5 391.5 c 128,-1,54
 451 405 451 405 430 405 c 256,55,56
 408 405 408 405 391.5 391.5 c 128,-1,57
 375 378 375 378 371 357 c 256,46,47
EndSplineSet
EndChar
StartChar: uni0E15
Encoding: 3605 3605 232
Width: 690
VWidth: 1507
Flags: W
HStem: -9 21G<154 193.649 507.289 523> 390 49<397.281 460.387> 587 20G<373 395 548.5 572>
Fore
203 109 m 1,0,-1
 359 253 l 1,1,2
 329 262 329 262 313.5 286.5 c 128,-1,3
 298 311 298 311 306 342 c 0,4,5
 311 362 311 362 323 379 c 128,-1,6
 335 396 335 396 352 410 c 128,-1,7
 369 424 369 424 391 431.5 c 128,-1,8
 413 439 413 439 436 439 c 0,9,10
 479 439 479 439 507 410 c 128,-1,11
 535 381 535 381 528 342 c 0,12,13
 522 311 522 311 487 282 c 2,14,-1
 172 -9 l 1,15,16
 136 -9 136 -9 114 10 c 128,-1,17
 92 29 92 29 99 57 c 2,18,-1
 179 434 l 2,19,20
 188 475 188 475 211.5 507.5 c 128,-1,21
 235 540 235 540 265 562.5 c 128,-1,22
 295 585 295 585 327.5 596 c 128,-1,23
 360 607 360 607 386 607 c 0,24,25
 404 607 404 607 411 598 c 0,26,27
 421 589 421 589 430 583 c 2,28,29
 437 576 437 576 445.5 570 c 128,-1,30
 454 564 454 564 461 556 c 1,31,32
 472 564 472 564 484 570.5 c 128,-1,33
 496 577 496 577 506 585 c 2,34,-1
 529 600 l 2,35,36
 538 607 538 607 559 607 c 0,37,38
 585 607 585 607 612 596 c 128,-1,39
 639 585 639 585 659.5 562.5 c 128,-1,40
 680 540 680 540 690.5 507.5 c 128,-1,41
 701 475 701 475 692 434 c 2,42,-1
 612 57 l 2,43,44
 604 29 604 29 573.5 10 c 128,-1,45
 543 -9 543 -9 503 -9 c 1,46,-1
 598 434 l 2,47,48
 607 479 607 479 593.5 508.5 c 128,-1,49
 580 538 580 538 562 546 c 1,50,51
 553 540 553 540 539.5 530 c 128,-1,52
 526 520 526 520 512.5 511 c 128,-1,53
 499 502 499 502 488.5 495 c 128,-1,54
 478 488 478 488 476 487 c 0,55,56
 460 475 460 475 444 475 c 128,-1,57
 428 475 428 475 416 487 c 0,58,59
 402 499 402 499 390 511 c 2,60,-1
 356 546 l 1,61,62
 335 538 335 538 308.5 508.5 c 128,-1,63
 282 479 282 479 273 434 c 2,64,-1
 203 109 l 1,0,-1
368 342 m 256,65,66
 363 321 363 321 373.5 307.5 c 128,-1,67
 384 294 384 294 405 294 c 256,68,69
 427 294 427 294 443.5 307.5 c 128,-1,70
 460 321 460 321 464 342 c 256,71,72
 469 363 469 363 458.5 376.5 c 128,-1,73
 448 390 448 390 427 390 c 256,74,75
 405 390 405 390 388.5 376.5 c 128,-1,76
 372 363 372 363 368 342 c 256,65,66
EndSplineSet
EndChar
StartChar: uni0E16
Encoding: 3606 3606 233
Width: 660
VWidth: 1507
Flags: W
HStem: -9 48<200.285 275.123> 136 46<246.066 288.244> 550 57<371.087 485.872>
Fore
264 182 m 0,0,1
 309 182 309 182 335.5 154.5 c 128,-1,2
 362 127 362 127 354 87 c 0,3,4
 345 48 345 48 306.5 19.5 c 128,-1,5
 268 -9 268 -9 223 -9 c 0,6,7
 176 -9 176 -9 150 19.5 c 128,-1,8
 124 48 124 48 133 87 c 2,9,-1
 176 291 l 1,10,-1
 146 390 l 1,11,12
 142 399 142 399 145 405 c 1,13,14
 154 451 154 451 184 488 c 128,-1,15
 214 525 214 525 256 552 c 128,-1,16
 298 579 298 579 346.5 593 c 128,-1,17
 395 607 395 607 442 607 c 0,18,19
 487 607 487 607 530 593.5 c 128,-1,20
 573 580 573 580 604.5 554 c 128,-1,21
 636 528 636 528 651 490 c 128,-1,22
 666 452 666 452 656 405 c 2,23,-1
 582 57 l 2,24,25
 574 29 574 29 543 10 c 128,-1,26
 512 -9 512 -9 473 -9 c 1,27,-1
 562 405 l 2,28,29
 568 434 568 434 560.5 459.5 c 128,-1,30
 553 485 553 485 535 505.5 c 128,-1,31
 517 526 517 526 490 538 c 128,-1,32
 463 550 463 550 430 550 c 0,33,34
 398 550 398 550 366.5 539 c 128,-1,35
 335 528 335 528 309 509 c 128,-1,36
 283 490 283 490 264.5 465 c 128,-1,37
 246 440 246 440 238 413 c 1,38,-1
 270 314 l 2,39,40
 271 309 271 309 271 298 c 1,41,-1
 246 181 l 1,42,43
 250 182 250 182 264 182 c 0,0,1
196 87 m 256,44,45
 191 66 191 66 202 52.5 c 128,-1,46
 213 39 213 39 234 39 c 256,47,48
 255 39 255 39 271.5 52.5 c 128,-1,49
 288 66 288 66 292 87 c 256,50,51
 297 109 297 109 286.5 122.5 c 128,-1,52
 276 136 276 136 255 136 c 256,53,54
 234 136 234 136 217 122.5 c 128,-1,55
 200 109 200 109 196 87 c 256,44,45
EndSplineSet
EndChar
